<?xml version="1.0" standalone="no"?>
<!-- Generator: Adobe Fireworks 10, Export SVG Extension by Aaron Beall (http://fireworks.abeall.com) . Version: 0.6.1  -->
<!DOCTYPE svg PUBLIC "-//W3C//DTD SVG 1.1//EN" "http://www.w3.org/Graphics/SVG/1.1/DTD/svg11.dtd">
<svg id="Untitled-Page%201" viewBox="0 0 50 50" style="background-color:#ffffff00" version="1.1"
	xmlns="http://www.w3.org/2000/svg" xmlns:xlink="http://www.w3.org/1999/xlink" xml:space="preserve"
	x="0px" y="0px" width="50px" height="50px"
>
	<g id="Layer%201">
		<path d="M 14.5 35.5 L 25 41.5 L 35.5 35.5 L 35.4375 33.75 L 32.5 35.875 L 25 29.5 L 17.5 35.5 L 14.5 34 L 14.5 35.5 Z" fill="#009489"/>
		<path d="M 25.5 28 L 32.5 34 L 42.5 27.5 L 35.5 22 L 25.5 28 Z" fill="#009489"/>
		<path d="M 24.5 28 L 17.5 34 L 7.5 27.5 L 14.5 22 L 24.5 28 Z" fill="#009489"/>
		<path d="M 14.5 21.5 L 24.5 15 L 17.5 9.5 L 7.5 16 L 14.5 21.5 Z" fill="#009489"/>
		<path d="M 35.5 21.5 L 25.5 15 L 32.5 9.5 L 42.5 16 L 35.5 21.5 Z" fill="#009489"/>
	</g>
</svg>