<?xml version="1.0" standalone="no"?>
<!-- Generator: Adobe Fireworks 10, Export SVG Extension by Aaron Beall (http://fireworks.abeall.com) . Version: 0.6.1  -->
<!DOCTYPE svg PUBLIC "-//W3C//DTD SVG 1.1//EN" "http://www.w3.org/Graphics/SVG/1.1/DTD/svg11.dtd">
<svg id="Untitled-Page%201" viewBox="0 0 1136 640" style="background-color:#353526" version="1.1"
	xmlns="http://www.w3.org/2000/svg" xmlns:xlink="http://www.w3.org/1999/xlink" xml:space="preserve"
	x="0px" y="0px" width="1136px" height="640px"
>
	<defs>
		<linearGradient id="gradient1" x1="50%" y1="0%" x2="50%" y2="100%">
			<stop stop-color="#b9ff73" stop-opacity="1" offset="0%"/>
			<stop stop-color="#72ffb8" stop-opacity="1" offset="100%"/>
		</linearGradient>
		<linearGradient id="gradient2" x1="50%" y1="0%" x2="50%" y2="100%">
			<stop stop-color="#b9ff73" stop-opacity="1" offset="0%"/>
			<stop stop-color="#72ffb8" stop-opacity="1" offset="100%"/>
		</linearGradient>
		<linearGradient id="gradient3" x1="50%" y1="0%" x2="50%" y2="100%">
			<stop stop-color="#b9ff73" stop-opacity="1" offset="0%"/>
			<stop stop-color="#72ffb8" stop-opacity="1" offset="100%"/>
		</linearGradient>
		<linearGradient id="gradient4" x1="50%" y1="0%" x2="50%" y2="100%">
			<stop stop-color="#ff1218" stop-opacity="1" offset="0%"/>
			<stop stop-color="#fff812" stop-opacity="1" offset="100%"/>
		</linearGradient>
	</defs>
	<g id="Layer%201">
		<path opacity="0.0784" d="M 522 -19 L 1187 646 L 1236 644 L 521 -71 L 522 -19 ZM 622 -19 L 1287 646 L 1336 644 L 621 -71 L 622 -19 ZM -178 -19 L 487 646 L 536 644 L -179 -71 L -178 -19 ZM -378 -19 L 287 646 L 336 644 L -379 -71 L -378 -19 ZM -278 -19 L 387 646 L 436 644 L -279 -71 L -278 -19 ZM -678 -19 L -13 646 L 36 644 L -679 -71 L -678 -19 ZM -578 -19 L 87 646 L 136 644 L -579 -71 L -578 -19 ZM -478 -19 L 187 646 L 236 644 L -479 -71 L -478 -19 ZM 322 -19 L 987 646 L 1036 644 L 321 -71 L 322 -19 ZM 422 -19 L 1087 646 L 1136 644 L 421 -71 L 422 -19 ZM 922 -19 L 1587 646 L 1636 644 L 921 -71 L 922 -19 ZM 1022 -19 L 1687 646 L 1736 644 L 1021 -71 L 1022 -19 ZM 722 -19 L 1387 646 L 1436 644 L 721 -71 L 722 -19 ZM 822 -19 L 1487 646 L 1536 644 L 821 -71 L 822 -19 ZM 122 -19 L 787 646 L 836 644 L 121 -71 L 122 -19 ZM 222 -19 L 887 646 L 936 644 L 221 -71 L 222 -19 ZM -78 -19 L 587 646 L 636 644 L -79 -71 L -78 -19 ZM 22 -19 L 687 646 L 736 644 L 21 -71 L 22 -19 Z" fill="#000000"/>
		<path opacity="0.3412" d="M 151.875 254.9426 L 91.875 254.9426 C 88.375 254.4426 82.875 259.4426 83.125 262.6926 L 83.125 320.9426 L 25.375 320.9426 C 22.125 320.9426 17.125 324.9426 17.125 328.6926 L 17.125 391.1926 C 17.125 394.4426 22.375 398.9426 25.375 398.9426 L 83.125 398.9426 L 83.125 457.1926 C 83.125 460.4426 88.375 464.9426 91.375 464.9426 L 152.375 464.9426 C 155.625 464.9426 160.625 460.6926 160.875 456.9426 L 160.875 398.9426 L 218.375 398.9426 C 221.625 398.9426 226.625 394.6926 226.875 390.9426 L 226.875 328.6926 C 226.875 325.1926 221.875 320.6926 218.375 320.9426 L 160.875 320.9426 L 160.875 262.6926 C 160.875 258.9426 155.125 254.4426 151.875 254.9426 ZM 150.875 265.1926 L 150.875 326.4426 C 150.375 328.1926 153.875 331.1926 155.625 331.1926 L 216.875 331.1926 L 216.875 388.6926 L 155.625 388.6926 C 154.125 388.6926 150.875 391.1926 150.875 393.1926 L 150.875 454.6926 L 93.125 454.6926 L 93.125 392.9426 C 92.875 392.1926 90.125 388.6926 88.125 388.6926 L 27.125 388.6926 L 27.125 331.1926 L 88.375 331.1926 C 89.875 331.1926 92.875 328.4426 93.125 326.6926 L 93.125 265.1926 L 150.875 265.1926 ZM 126.125 274.4426 C 125.125 272.6926 123.125 272.1926 121.875 272.1926 C 120.625 272.1926 118.625 272.6926 117.625 274.4426 C 115.125 278.6926 112.875 283.6926 110.625 288.1926 C 108.125 293.1926 105.125 298.6926 102.625 304.1926 C 101.375 306.9426 100.125 308.1926 100.125 310.9426 C 100.125 312.9426 100.875 314.9426 104.125 315.9426 L 139.375 315.9426 C 141.875 315.9426 143.875 312.9426 143.875 310.6926 C 143.875 308.1926 127.875 276.6926 126.125 274.4426 ZM 130.625 305.6926 L 113.375 305.6926 L 121.875 288.6926 L 130.625 305.6926 ZM 147.875 360.9426 C 147.875 346.4426 137.125 335.1926 121.625 335.1926 C 110.375 335.1926 98.625 341.4426 96.125 357.4426 L 96.125 364.6926 C 96.125 365.1926 97.125 369.1926 97.875 371.1926 C 102.875 383.1926 113.375 386.6926 121.875 386.6926 C 135.875 386.6926 147.875 376.4426 147.875 360.9426 ZM 132.625 360.9426 C 132.625 367.1926 127.375 371.6926 121.875 371.6926 C 120.125 371.6926 117.125 370.4426 115.625 369.4426 C 114.375 368.6926 111.375 364.6926 111.375 363.4426 L 111.375 358.6926 C 112.875 352.6926 117.625 350.1926 121.875 350.1926 C 128.125 350.1926 132.625 355.1926 132.625 360.9426 ZM 178.875 341.6926 C 177.125 340.9426 173.875 338.9426 171.875 338.9426 C 170.125 338.9426 167.875 339.6926 167.125 342.9426 L 167.125 378.6926 C 167.125 380.9426 169.875 382.6926 172.125 382.6926 C 172.875 382.6926 173.625 382.4426 174.375 382.1926 C 185.875 376.6926 197.375 370.9426 208.625 364.9426 C 209.875 364.1926 210.875 361.4426 210.875 360.9426 C 210.875 358.9426 210.375 357.6926 208.625 356.6926 C 198.875 350.9426 188.375 346.4426 178.875 341.6926 ZM 194.375 360.9426 L 177.125 369.4426 L 177.125 352.4426 L 194.375 360.9426 ZM 76.875 343.1926 C 76.875 340.6926 73.875 339.1926 71.625 339.1926 C 71.125 339.1926 70.125 339.1926 69.625 339.4426 C 57.875 344.9426 46.625 350.9426 35.375 356.6926 C 33.875 357.4426 33.125 360.1926 33.125 360.9426 C 33.125 362.6926 33.375 363.9426 35.375 364.9426 C 44.875 370.6926 55.125 375.1926 65.125 379.9426 C 66.375 380.6926 69.875 382.9426 71.875 382.9426 C 73.625 382.9426 75.875 381.9426 76.875 378.6926 L 76.875 343.1926 ZM 66.875 369.4426 L 49.625 360.9426 L 66.875 352.4426 L 66.875 369.4426 ZM 139.125 405.9426 L 104.875 405.9426 C 101.875 406.4426 100.125 408.1926 100.125 410.9426 C 100.125 413.4426 116.125 444.9426 117.625 447.4426 C 118.625 448.9426 120.625 449.6926 121.875 449.6926 C 123.125 449.6926 125.125 448.9426 126.125 447.4426 C 128.875 442.6926 131.125 437.6926 133.375 433.1926 C 135.875 427.9426 138.625 422.6926 141.125 417.6926 C 142.625 414.6926 143.875 413.4426 143.875 410.9426 C 143.875 408.4426 142.625 406.4426 139.125 405.9426 ZM 130.625 416.1926 L 122.125 433.1926 L 113.375 416.1926 L 130.625 416.1926 ZM 1118.875 311.9426 C 1118.875 281.9426 1095.125 256.9426 1063.875 256.9426 C 1039.125 256.9426 1013.125 273.9426 1009.125 307.1926 L 1009.125 316.6926 C 1009.125 317.9426 1011.375 327.9426 1011.875 329.9426 C 1021.125 356.4426 1044.875 366.9426 1063.875 366.9426 C 1094.375 366.9426 1118.875 342.4426 1118.875 311.9426 ZM 1108.875 311.9426 C 1108.875 336.9426 1088.375 356.6926 1063.875 356.6926 C 1038.625 356.6926 1019.125 336.1926 1019.125 311.9426 C 1019.125 286.9426 1039.375 267.1926 1063.875 267.1926 C 1089.125 267.1926 1108.875 287.4426 1108.875 311.9426 ZM 1072.375 288.4426 C 1070.375 283.1926 1067.375 283.9426 1064.375 283.9426 C 1061.375 283.9426 1058.625 283.1926 1056.875 287.1926 C 1054.875 291.4426 1053.125 296.1926 1051.375 300.6926 C 1049.375 305.6926 1047.125 311.4426 1044.875 316.6926 C 1044.125 318.1926 1040.125 327.6926 1040.125 329.6926 C 1040.125 334.9426 1044.625 334.9426 1048.125 334.9426 C 1056.375 334.9426 1055.125 332.9426 1059.875 322.9426 L 1069.125 322.9426 C 1074.375 332.9426 1072.125 334.9426 1080.625 334.9426 C 1082.875 334.9426 1088.875 335.4426 1088.875 329.6926 C 1088.875 327.4426 1075.875 296.6926 1072.375 288.4426 ZM 1018.875 409.9426 C 1018.875 379.1926 994.375 354.9426 963.875 354.9426 C 939.125 354.9426 913.125 371.9426 909.125 405.1926 L 909.125 414.6926 C 909.125 416.4426 911.375 426.4426 911.625 427.1926 C 920.875 453.9426 944.375 464.9426 963.875 464.9426 C 994.375 464.9426 1018.875 440.4426 1018.875 409.9426 ZM 1008.875 409.9426 C 1008.875 434.9426 988.375 454.6926 963.875 454.6926 C 938.625 454.6926 919.125 434.1926 919.125 409.9426 C 919.125 384.9426 939.375 365.1926 963.875 365.1926 C 989.125 365.1926 1008.875 385.4426 1008.875 409.9426 ZM 967.625 385.1926 C 964.875 384.9426 959.625 384.9426 958.875 384.9426 C 956.625 384.9426 947.875 384.1926 948.125 389.1926 L 948.125 430.6926 C 948.125 432.6926 951.375 434.6926 952.625 434.9426 L 967.375 434.9426 C 975.875 434.9426 983.875 428.1926 983.875 418.9426 C 983.875 415.6926 983.875 415.1926 981.875 411.4426 C 981.125 409.9426 979.125 407.9426 979.125 407.4426 C 979.125 406.6926 980.125 405.1926 980.125 404.6926 C 980.375 403.1926 980.875 400.6926 980.875 399.9426 C 980.875 393.6926 976.875 386.1926 967.625 385.1926 ZM 964.625 401.1926 C 964.625 401.4426 964.375 401.4426 964.125 401.4426 L 964.125 400.1926 C 964.625 400.4426 964.625 401.1926 964.625 401.1926 ZM 966.125 417.1926 C 967.125 417.6926 967.625 417.9426 967.625 418.4426 C 967.625 418.9426 967.125 419.6926 966.375 419.6926 L 964.125 419.6926 L 964.125 417.1926 L 966.125 417.1926 ZM 113.955 603.945 L 114.77 603.945 C 114.6026 604.2844 114.4706 604.6656 114.375 605.0957 C 114.26 604.6644 114.1187 604.2828 113.955 603.945 ZM 160.875 573.9426 L 78.875 573.9426 C 73.125 573.6926 65.125 580.6926 65.125 586.6926 L 65.125 591.1926 C 65.125 595.4426 71.625 602.6926 75.875 603.1926 C 76.875 603.1926 77.875 603.6926 78.625 603.9426 L 79.11 603.945 C 77.4795 605.4012 76.375 607.4579 76.375 610.0957 C 76.375 610.8457 76.875 612.3457 76.875 612.8457 C 76.875 612.8457 75.375 617.8457 75.375 618.8457 C 75.375 623.0957 81.375 625.3457 84.625 625.3457 C 85.375 625.3457 88.625 624.3457 89.125 624.3457 C 89.875 624.3457 90.625 625.0957 91.375 625.3457 L 127.625 625.3457 C 128.375 625.3457 130.125 623.8457 130.875 623.8457 C 131.375 623.8457 135.375 625.3457 136.875 625.3457 C 137.625 625.3457 139.875 625.0957 141.125 624.5957 C 142.125 624.3457 143.625 623.5957 144.125 623.5957 C 144.875 623.5957 146.375 624.8457 147.375 625.0957 C 147.875 625.3457 148.625 625.3457 149.375 625.3457 C 157.125 625.3457 154.875 619.3457 156.375 613.3457 C 161.125 613.3457 162.125 609.8457 162.125 606.5957 C 162.125 605.5972 162.0254 604.6965 161.61 603.895 C 162.4054 603.7648 163.5144 603.3962 164.125 603.1926 C 172.375 600.1926 174.875 594.4426 174.875 588.9426 C 174.875 581.6926 170.625 575.4426 160.875 573.9426 ZM 160.375 584.1926 C 162.875 584.4426 164.875 586.9426 164.875 588.6926 C 164.875 590.4426 162.875 593.6926 160.625 593.6926 L 79.125 593.6926 C 76.875 593.1926 75.125 590.6926 75.125 588.9426 C 75.125 587.1926 76.875 583.9426 79.375 584.1926 L 160.375 584.1926 ZM 1050.875 573.9426 L 968.875 573.9426 C 963.125 573.6926 955.125 580.6926 955.125 586.6926 L 955.125 591.1926 C 955.125 596.4426 962.875 603.9426 968.625 603.9426 L 974.61 603.945 C 972.9795 605.4012 971.875 607.4579 971.875 610.0957 C 971.875 610.8457 972.375 612.3457 972.375 612.8457 C 972.375 612.8457 970.875 617.8457 970.875 618.8457 C 970.875 623.0957 976.875 625.3457 980.125 625.3457 C 983.625 625.3457 985.125 623.3457 986.375 623.3457 C 987.125 623.3457 988.875 624.8457 989.875 625.0957 C 990.375 625.3457 991.125 625.3457 991.875 625.3457 C 992.375 625.3457 993.375 625.3457 993.875 625.0957 C 994.625 625.0957 995.625 624.0957 996.375 624.0957 C 996.875 624.0957 998.125 625.0957 998.875 625.0957 C 999.625 625.3457 1000.375 625.3457 1000.875 625.3457 C 1003.375 625.3457 1002.875 625.0957 1006.625 623.3457 C 1007.875 625.5957 1012.375 625.3457 1014.375 625.3457 C 1014.875 625.3457 1017.375 625.3457 1018.875 625.0957 C 1019.875 624.8457 1021.125 623.8457 1021.625 623.8457 C 1022.375 623.8457 1022.625 624.5957 1023.125 624.5957 C 1024.125 625.0957 1026.125 625.3457 1026.625 625.3457 C 1027.375 625.3457 1029.625 624.8457 1030.375 624.8457 C 1030.875 624.8457 1033.125 625.3457 1033.875 625.3457 C 1041.375 625.3457 1039.375 619.3457 1040.875 613.3457 C 1045.625 613.3457 1046.625 609.8457 1046.625 606.5957 C 1046.625 605.7689 1046.5375 604.8162 1046.1899 603.945 L 1051.125 603.9426 C 1051.875 603.9426 1053.375 603.4426 1054.125 603.1926 C 1062.375 600.1926 1064.875 594.4426 1064.875 588.9426 C 1064.875 581.6926 1060.625 575.4426 1050.875 573.9426 ZM 1050.375 584.1926 C 1052.875 583.9426 1054.875 587.1926 1054.875 588.9426 C 1054.875 590.4426 1052.875 593.6926 1050.625 593.6926 L 969.125 593.6926 C 966.875 593.1926 965.125 590.6926 965.125 588.9426 C 965.125 586.9426 966.875 584.6926 969.375 584.1926 L 1050.375 584.1926 Z" fill="#000000"/>
		<rect opacity="0.2784" x="238" y="39" width="660" height="592" fill="#000000" rx="5.92" ry="5.92"/>
		<image x="238" y="39" width="660" height="592" xlink:href="landscape.svg.images/image1.png"/>
		<rect x="248" y="47" width="640" height="576" fill="#000000"/>
		<path d="M 1106.875 308.875 C 1106.875 333.375 1087.125 351.875 1063.875 351.875 C 1049.375 351.875 1031.625 344.125 1023.875 324.625 C 1023.625 323.875 1021.125 315.125 1021.125 312.875 L 1021.125 305.125 C 1024.875 278.875 1044.625 266.125 1063.875 266.125 C 1088.375 266.125 1106.875 285.875 1106.875 308.875 ZM 1014 309 C 1014 336.6146 1036.3855 359 1064 359 C 1091.6145 359 1114 336.6146 1114 309 C 1114 281.3854 1091.6145 259 1064 259 C 1036.3855 259 1014 281.3854 1014 309 ZM 1104.875 308.875 C 1104.875 286.375 1086.375 268.125 1063.875 268.125 C 1045.625 268.125 1024.625 281.375 1023.125 306.625 L 1023.125 311.375 C 1023.125 314.875 1024.625 320.125 1025.625 323.375 C 1032.625 342.125 1050.125 349.875 1064.125 349.875 C 1086.375 349.875 1104.875 331.375 1104.875 308.875 ZM 1045 327 L 1061.6719 286 L 1067.3125 286 L 1084 327 L 1077.5938 327 L 1072.7344 315 L 1056.2969 315 L 1051.4219 327 L 1045 327 ZM 1058.3438 310 L 1070.6406 310 L 1064.5 294.8438 L 1058.3438 310 Z" fill="url(#gradient1)"/>
		<path d="M 1006.875 406.875 C 1006.875 431.375 987.125 449.875 963.875 449.875 C 949.875 449.875 932.875 442.875 924.375 423.875 C 924.125 422.875 921.125 413.125 921.125 410.875 L 921.125 403.125 C 924.875 376.875 944.625 364.125 963.875 364.125 C 988.375 364.125 1006.875 383.625 1006.875 406.875 ZM 914 407 C 914 434.6146 936.3855 457 964 457 C 991.6145 457 1014 434.6146 1014 407 C 1014 379.3854 991.6145 357 964 357 C 936.3855 357 914 379.3854 914 407 ZM 1004.875 406.875 C 1004.875 384.375 986.375 366.125 963.875 366.125 C 945.625 366.125 924.625 379.375 923.125 404.625 L 923.125 409.375 C 923.125 412.875 924.625 418.125 925.625 421.375 C 932.625 440.125 950.125 447.875 964.125 447.875 C 986.375 447.875 1004.875 429.375 1004.875 406.875 ZM 973.1094 425.4688 C 971.1719 426.5 968.7656 427 965.8594 427 L 953 427 L 953 387 L 963.0781 387 C 966.25 387 968.7344 387.4531 970.5156 388.3281 C 972.2969 389.2031 973.6563 390.4219 974.5938 391.9531 C 975.5313 393.5 976 395.2813 976 397.3125 C 976 401.2188 973.9688 404 969.9219 405.6875 C 972.6875 406.25 974.8906 407.4688 976.5313 409.3281 C 978.1719 411.2031 979 413.4219 979 416.0156 C 979 418.0781 978.5 419.9063 977.5 421.5156 C 976.5 423.1406 975.0469 424.4531 973.1094 425.4688 ZM 970 397.75 C 970 393.9219 967.7969 392 963.4219 392 L 959 392 L 959 404 L 962.4219 404 C 965.1563 404 967.1094 403.4219 968.2656 402.2656 C 969.4219 401.1094 970 399.5938 970 397.75 ZM 969.3281 409.7656 C 968.1406 409.2656 966.2969 409 963.7656 409 L 959 409 L 959 422 L 964.0313 422 C 966.8125 422 968.6875 421.75 969.6875 421.25 C 970.6875 420.75 971.4844 419.9844 972.0938 418.9219 C 972.6875 417.8594 973 416.7344 973 415.5156 C 973 414.2656 972.6719 413.125 972.0469 412.0938 C 971.4063 411.0625 970.5 410.2813 969.3281 409.7656 Z" fill="url(#gradient2)"/>
		<path d="M 142.875 358.125 C 142.875 370.375 133.125 378.875 121.875 378.875 C 114.375 378.875 105.875 375.125 102.125 365.125 C 101.625 363.875 101.125 361.375 101.125 360.875 L 101.125 355.125 C 103.375 342.125 112.875 337.125 121.875 337.125 C 134.375 337.125 142.875 346.625 142.875 358.125 ZM 139 408 L 122 442 L 105 408 L 139 408 ZM 72 375 L 38 358 L 72 341 L 72 375 ZM 105 308 L 122 274 L 139 308 L 105 308 ZM 172 341 L 206 358 L 172 375 L 172 341 ZM 92.42 257 C 89.9789 257 88 258.9789 88 261.42 L 88 323 L 26.42 323 C 23.9789 323 22 324.9789 22 327.42 L 22 386.58 C 22 389.0211 23.9789 391 26.42 391 L 88 391 L 88 452.58 C 88 455.0211 89.9789 457 92.42 457 L 151.58 457 C 154.0211 457 156 455.0211 156 452.58 L 156 391 L 217.58 391 C 220.0211 391 222 389.0211 222 386.58 L 222 327.42 C 222 324.9789 220.0211 323 217.58 323 L 156 323 L 156 261.42 C 156 258.9789 154.0211 257 151.58 257 L 92.42 257 ZM 137.875 357.875 C 137.875 349.375 131.125 342.125 121.875 342.125 C 115.375 342.125 107.875 346.125 106.125 355.625 L 106.125 360.375 C 106.125 360.875 106.375 361.875 106.625 362.625 C 109.125 370.625 116.375 373.875 121.875 373.875 C 130.375 373.875 137.875 367.125 137.875 357.875 Z" fill="url(#gradient3)"/>
		<g>
			<path d="M 145.3438 603 L 145 606 L 149.7656 606 L 148 618 L 151.0469 618 L 152.8125 606 L 157.6563 606 L 158 603 L 145.3438 603 ZM 139.8906 603 C 136.9688 603 134.5938 603.7813 132.75 605.3281 C 130.9063 606.8906 130 608.875 130 611.3125 C 130 613.3125 130.6719 614.9219 132.0156 616.1563 C 133.3594 617.3906 135.1094 618 137.2813 618 C 139 618 140.7656 617.5625 142.5469 616.6875 L 143 613 C 140.9063 614.3438 139.0469 615 137.4063 615 C 136.0469 615 134.9688 614.6719 134.1875 614 C 133.3906 613.3438 133 612.4531 133 611.3281 C 133 609.9063 133.5781 608.6563 134.75 607.5938 C 135.9063 606.5313 137.5469 606 139.6719 606 C 140.9531 606 142.2031 606.3438 143.4531 607 L 144 603.6563 C 142.5313 603.2188 141.1563 603 139.8906 603 ZM 119.125 603 L 117 618 L 127.6563 618 L 128 615 L 120.4688 615 L 120.8906 612 L 126.625 612 L 127 609 L 121.3281 609 L 121.75 606 L 127.6563 606 L 128 603 L 119.125 603 ZM 107.125 603 L 105 618 L 114.6563 618 L 115 615 L 108.4688 615 L 110.1719 603 L 107.125 603 ZM 94.125 603 L 92 618 L 102.6563 618 L 103 615 L 95.4688 615 L 95.8906 612 L 101.625 612 L 102 609 L 96.3281 609 L 96.75 606 L 102.6563 606 L 103 603 L 94.125 603 ZM 86.5156 603 C 84.9219 603 83.6094 603.4375 82.5625 604.2813 C 81.5156 605.125 81 606.1875 81 607.4375 C 81 608.0938 81.1875 608.7344 81.5781 609.3438 C 81.9531 609.9688 82.7656 610.5938 84 611.2344 C 85.2344 611.8906 86.0469 612.3594 86.4219 612.6563 C 86.7969 612.9688 87 613.2656 87 613.5625 C 87 614 86.7969 614.3438 86.3906 614.6094 C 85.9844 614.875 85.4688 615 84.8125 615 C 84.1875 615 83.4844 614.8281 82.6719 614.4531 C 81.8594 614.0781 81.1406 613.5938 80.4844 613 L 80 616.2344 C 81.4063 617.4219 83.0781 618 85.0156 618 C 86.5313 618 87.7344 617.5781 88.6406 616.7344 C 89.5469 615.8906 90 614.8125 90 613.5313 C 90 612.8125 89.7813 612.1094 89.3594 611.4375 C 88.9375 610.7656 88.125 610.1094 86.9063 609.4688 C 85.6875 608.8281 84.9063 608.3906 84.5469 608.1406 C 84.1719 607.8906 84 607.6563 84 607.4063 C 84 607 84.2188 606.6719 84.6719 606.4063 C 85.1094 606.1406 85.6719 606 86.3594 606 C 86.9375 606 87.625 606.0938 88.4219 606.2813 C 89.2031 606.4688 89.9063 606.7188 90.5 607 L 91 604.2344 C 89.5938 603.4219 88.0938 603 86.5156 603 ZM 1029.8438 603 L 1029.5 606 L 1034.2656 606 L 1032.5 618 L 1035.5469 618 L 1037.3125 606 L 1042.1563 606 L 1042.5 603 L 1029.8438 603 ZM 1015.5 618 L 1018.5469 618 L 1019.3906 612 L 1020.1563 612 C 1021.0313 612 1021.6719 612.1719 1022.0781 612.4844 C 1022.4688 612.8125 1023.0313 613.625 1023.75 614.9063 L 1025.25 618 L 1028.5 618 L 1026.1875 613.2813 C 1025.7344 612.2813 1025.2031 611.6563 1024.6094 611.4063 L 1024.6094 611.3438 C 1025.6719 611.1406 1026.4219 610.6875 1026.8594 609.9844 C 1027.2813 609.2969 1027.5 608.4531 1027.5 607.4688 C 1027.5 606.25 1027.0625 605.2031 1026.2031 604.3281 C 1025.3438 603.4531 1024.1406 603 1022.5938 603 L 1017.5938 603 L 1015.5 618 ZM 1021.8594 606 C 1022.6719 606 1023.3281 606.125 1023.7969 606.375 C 1024.2656 606.625 1024.5 606.9688 1024.5 607.4063 C 1024.5 607.875 1024.2188 608.25 1023.6875 608.5469 C 1023.1406 608.8594 1022.375 609 1021.4063 609 L 1019.8125 609 L 1020.2188 606 L 1021.8594 606 ZM 1007.3438 603 L 999.5 618 L 1002.7969 618 L 1003.8438 616 L 1010.1875 616 L 1010.4375 618 L 1013.5 618 L 1011.6719 603 L 1007.3438 603 ZM 1009 606.1563 L 1009.8281 613 L 1005.4063 613 L 1009 606.1563 ZM 987.8438 603 L 987.5 606 L 992.2656 606 L 990.5 618 L 993.5469 618 L 995.3125 606 L 1000.1563 606 L 1000.5 603 L 987.8438 603 ZM 982.0156 603 C 980.4219 603 979.1094 603.4375 978.0625 604.2813 C 977.0156 605.125 976.5 606.1875 976.5 607.4375 C 976.5 608.0938 976.6875 608.7344 977.0781 609.3438 C 977.4531 609.9688 978.2656 610.5938 979.5 611.2344 C 980.7344 611.8906 981.5469 612.3594 981.9219 612.6563 C 982.2969 612.9688 982.5 613.2656 982.5 613.5625 C 982.5 614 982.2969 614.3438 981.8906 614.6094 C 981.4844 614.875 980.9688 615 980.3125 615 C 979.6875 615 978.9844 614.8281 978.1719 614.4531 C 977.3594 614.0781 976.6406 613.5938 975.9844 613 L 975.5 616.2344 C 976.9063 617.4219 978.5781 618 980.5156 618 C 982.0313 618 983.2344 617.5781 984.1406 616.7344 C 985.0469 615.8906 985.5 614.8125 985.5 613.5313 C 985.5 612.8125 985.2813 612.1094 984.8594 611.4375 C 984.4375 610.7656 983.625 610.1094 982.4063 609.4688 C 981.1875 608.8281 980.4063 608.3906 980.0469 608.1406 C 979.6719 607.8906 979.5 607.6563 979.5 607.4063 C 979.5 607 979.7188 606.6719 980.1719 606.4063 C 980.6094 606.1406 981.1719 606 981.8594 606 C 982.4375 606 983.125 606.0938 983.9219 606.2813 C 984.7031 606.4688 985.4063 606.7188 986 607 L 986.5 604.2344 C 985.0938 603.4219 983.5938 603 982.0156 603 ZM 970 576 C 964.4771 576 960 580.4771 960 586 C 960 591.5229 964.4771 596 970 596 L 1050 596 C 1055.5229 596 1060 591.5229 1060 586 C 1060 580.4771 1055.5229 576 1050 576 L 970 576 ZM 80 576 C 74.4771 576 70 580.4771 70 586 C 70 591.5229 74.4771 596 80 596 L 160 596 C 165.5229 596 170 591.5229 170 586 C 170 580.4771 165.5229 576 160 576 L 80 576 Z" fill="url(#gradient4)"/>
		</g>
		<path visibility="hidden" d="M 146.875 263.0887 C 148.125 263.3387 149.875 264.0887 149.875 265.3387 L 149.875 329.0887 L 213.375 329.0887 C 214.375 329.3387 215.875 330.5887 215.875 331.3387 L 215.875 382.3387 C 215.375 383.3387 214.125 384.8387 213.375 384.8387 L 149.875 384.8387 L 149.875 448.3387 C 149.375 449.3387 148.125 450.8387 147.375 450.8387 L 96.375 450.8387 C 95.625 450.5887 94.125 449.0887 94.125 448.5887 L 94.125 384.8387 L 30.375 384.8387 C 29.625 384.3387 28.125 383.0887 28.125 382.5887 L 28.125 331.3387 C 28.625 330.5887 29.625 329.0887 30.375 329.0887 L 94.125 329.0887 L 94.125 265.3387 C 94.375 264.5887 96.125 262.8387 96.875 263.0887 L 146.875 263.0887 ZM 146.125 265.0887 C 146.875 265.0887 147.375 265.3387 147.875 265.8387 L 147.875 330.0887 C 148.125 330.3387 148.375 330.8387 148.875 331.0887 L 212.625 331.0887 C 213.125 331.3387 213.625 331.5887 213.875 331.8387 L 213.875 382.0887 L 213.125 382.8387 L 148.875 382.8387 C 148.625 383.0887 148.125 383.3387 147.875 383.8387 L 147.875 448.0887 L 147.125 448.8387 L 96.875 448.8387 C 96.625 448.5887 96.125 448.3387 96.125 447.8387 L 96.125 383.8387 C 95.875 383.5887 95.625 383.0887 95.125 382.8387 L 30.875 382.8387 C 30.625 382.5887 30.125 382.3387 30.125 381.8387 L 30.125 332.0887 C 30.375 331.8387 30.625 331.3387 31.125 331.0887 L 95.125 331.0887 C 95.375 330.8387 95.875 330.5887 96.125 330.0887 L 96.125 266.0887 C 96.375 265.5887 97.125 265.0887 97.625 265.0887 L 146.125 265.0887 Z" fill="#000000"/>
		<g visibility="hidden">
			<path d="M 1089.6294 62.2522 C 1089.6294 60.2678 1087.9238 58 1085.0812 58 C 1083.0914 58 1080.8173 59.4174 1080.8173 62.2522 C 1080.8173 64.2365 1082.2385 66.7878 1085.0812 66.7878 C 1087.071 66.7878 1089.6294 65.087 1089.6294 62.2522 ZM 1101 70.1896 C 1101 68.2052 1099.2944 65.9374 1096.4518 65.9374 C 1094.4619 65.9374 1092.1879 67.3548 1092.1879 70.1896 C 1092.1879 72.1739 1093.6091 74.7252 1096.4518 74.7252 C 1098.4417 74.7252 1101 73.0243 1101 70.1896 ZM 1066.8883 69.0556 C 1066.8883 67.0713 1065.1827 64.8035 1062.3401 64.8035 C 1060.3502 64.8035 1058.0762 66.2209 1058.0762 69.0556 C 1058.0762 71.04 1059.4974 73.5913 1062.3401 73.5913 C 1064.33 73.5913 1066.8883 71.8904 1066.8883 69.0556 ZM 1078.2589 76.993 C 1078.2589 75.0087 1076.5533 72.7409 1073.7107 72.7409 C 1071.7208 72.7409 1069.4467 74.1583 1069.4467 76.993 C 1069.4467 78.9774 1070.868 81.5287 1073.7107 81.5287 C 1075.7006 81.5287 1078.2589 79.8278 1078.2589 76.993 ZM 1089.6294 84.9304 C 1089.6294 82.9461 1087.9238 80.6783 1085.0812 80.6783 C 1083.0914 80.6783 1080.8173 82.0956 1080.8173 84.9304 C 1080.8173 86.9148 1082.2385 89.4661 1085.0812 89.4661 C 1087.071 89.4661 1089.6294 87.7652 1089.6294 84.9304 ZM 1101 92.8678 C 1101 90.8835 1099.2944 88.6157 1096.4518 88.6157 C 1094.4619 88.6157 1092.1879 90.0331 1092.1879 92.8678 C 1092.1879 94.8522 1093.6091 97.4035 1096.4518 97.4035 C 1098.4417 97.4035 1101 95.7026 1101 92.8678 ZM 1044.1472 75.8591 C 1044.1472 73.8748 1042.4417 71.607 1039.599 71.607 C 1037.6091 71.607 1035.3351 73.0243 1035.3351 75.8591 C 1035.3351 77.8435 1036.7563 80.3948 1039.599 80.3948 C 1041.5889 80.3948 1044.1472 78.6939 1044.1472 75.8591 ZM 1055.5178 83.7965 C 1055.5178 81.8122 1053.8121 79.5443 1050.9695 79.5443 C 1048.9797 79.5443 1046.7056 80.9617 1046.7056 83.7965 C 1046.7056 85.7809 1048.127 88.3322 1050.9695 88.3322 C 1052.9594 88.3322 1055.5178 86.6313 1055.5178 83.7965 ZM 1066.8883 91.7339 C 1066.8883 89.7496 1065.1827 87.4818 1062.3401 87.4818 C 1060.3502 87.4818 1058.0762 88.8991 1058.0762 91.7339 C 1058.0762 93.7183 1059.4974 96.2696 1062.3401 96.2696 C 1064.33 96.2696 1066.8883 94.5687 1066.8883 91.7339 ZM 1078.2589 99.6713 C 1078.2589 97.687 1076.5533 95.4191 1073.7107 95.4191 C 1071.7208 95.4191 1069.4467 96.8365 1069.4467 99.6713 C 1069.4467 101.6557 1070.868 104.207 1073.7107 104.207 C 1075.7006 104.207 1078.2589 102.5061 1078.2589 99.6713 ZM 1089.6294 107.6087 C 1089.6294 105.6244 1087.9238 103.3565 1085.0812 103.3565 C 1083.0914 103.3565 1080.8173 104.7739 1080.8173 107.6087 C 1080.8173 109.593 1082.2385 112.1443 1085.0812 112.1443 C 1087.071 112.1443 1089.6294 110.4435 1089.6294 107.6087 ZM 1101 115.5461 C 1101 113.5617 1099.2944 111.2939 1096.4518 111.2939 C 1094.4619 111.2939 1092.1879 112.7113 1092.1879 115.5461 C 1092.1879 117.5304 1093.6091 120.0817 1096.4518 120.0817 C 1098.4417 120.0817 1101 118.3809 1101 115.5461 ZM 1021.4061 82.6626 C 1021.4061 80.6783 1019.7005 78.4104 1016.8578 78.4104 C 1014.868 78.4104 1012.5939 79.8278 1012.5939 82.6626 C 1012.5939 84.647 1014.0153 87.1983 1016.8578 87.1983 C 1018.8477 87.1983 1021.4061 85.4974 1021.4061 82.6626 ZM 1032.7766 90.6 C 1032.7766 88.6157 1031.071 86.3478 1028.2284 86.3478 C 1026.2385 86.3478 1023.9645 87.7652 1023.9645 90.6 C 1023.9645 92.5844 1025.3857 95.1357 1028.2284 95.1357 C 1030.2183 95.1357 1032.7766 93.4348 1032.7766 90.6 ZM 1044.1472 98.5374 C 1044.1472 96.553 1042.4417 94.2852 1039.599 94.2852 C 1037.6091 94.2852 1035.3351 95.7026 1035.3351 98.5374 C 1035.3351 100.5217 1036.7563 103.073 1039.599 103.073 C 1041.5889 103.073 1044.1472 101.3722 1044.1472 98.5374 ZM 1055.5178 106.4748 C 1055.5178 104.4904 1053.8121 102.2226 1050.9695 102.2226 C 1048.9797 102.2226 1046.7056 103.64 1046.7056 106.4748 C 1046.7056 108.4591 1048.127 111.0104 1050.9695 111.0104 C 1052.9594 111.0104 1055.5178 109.3096 1055.5178 106.4748 ZM 1066.8883 114.4122 C 1066.8883 112.4278 1065.1827 110.16 1062.3401 110.16 C 1060.3502 110.16 1058.0762 111.5774 1058.0762 114.4122 C 1058.0762 116.3965 1059.4974 118.9478 1062.3401 118.9478 C 1064.33 118.9478 1066.8883 117.2469 1066.8883 114.4122 ZM 1078.2589 122.3496 C 1078.2589 120.3652 1076.5533 118.0974 1073.7107 118.0974 C 1071.7208 118.0974 1069.4467 119.5148 1069.4467 122.3496 C 1069.4467 124.3339 1070.868 126.8852 1073.7107 126.8852 C 1075.7006 126.8852 1078.2589 125.1844 1078.2589 122.3496 ZM 1089.6294 130.287 C 1089.6294 128.3026 1087.9238 126.0348 1085.0812 126.0348 C 1083.0914 126.0348 1080.8173 127.4522 1080.8173 130.287 C 1080.8173 132.2713 1082.2385 134.8226 1085.0812 134.8226 C 1087.071 134.8226 1089.6294 133.1217 1089.6294 130.287 ZM 1101 138.2243 C 1101 136.24 1099.2944 133.9722 1096.4518 133.9722 C 1094.4619 133.9722 1092.1879 135.3896 1092.1879 138.2243 C 1092.1879 140.2087 1093.6091 142.76 1096.4518 142.76 C 1098.4417 142.76 1101 141.0591 1101 138.2243 ZM 998.665 89.4661 C 998.665 87.4818 996.9594 85.2139 994.1168 85.2139 C 992.1269 85.2139 989.8528 86.6313 989.8528 89.4661 C 989.8528 91.4504 991.2741 94.0017 994.1168 94.0017 C 996.1066 94.0017 998.665 92.3009 998.665 89.4661 ZM 1010.0355 97.4035 C 1010.0355 95.4191 1008.33 93.1513 1005.4873 93.1513 C 1003.4974 93.1513 1001.2233 94.5687 1001.2233 97.4035 C 1001.2233 99.3878 1002.6447 101.9391 1005.4873 101.9391 C 1007.4772 101.9391 1010.0355 100.2383 1010.0355 97.4035 ZM 1021.4061 105.3409 C 1021.4061 103.3565 1019.7005 101.0887 1016.8578 101.0887 C 1014.868 101.0887 1012.5939 102.5061 1012.5939 105.3409 C 1012.5939 107.3252 1014.0153 109.8765 1016.8578 109.8765 C 1018.8477 109.8765 1021.4061 108.1757 1021.4061 105.3409 ZM 1032.7766 113.2783 C 1032.7766 111.2939 1031.071 109.0261 1028.2284 109.0261 C 1026.2385 109.0261 1023.9645 110.4435 1023.9645 113.2783 C 1023.9645 115.2626 1025.3857 117.8139 1028.2284 117.8139 C 1030.2183 117.8139 1032.7766 116.113 1032.7766 113.2783 ZM 1044.1472 121.2157 C 1044.1472 119.2313 1042.4417 116.9635 1039.599 116.9635 C 1037.6091 116.9635 1035.3351 118.3809 1035.3351 121.2157 C 1035.3351 123.2 1036.7563 125.7513 1039.599 125.7513 C 1041.5889 125.7513 1044.1472 124.0504 1044.1472 121.2157 ZM 1055.5178 129.153 C 1055.5178 127.1687 1053.8121 124.9009 1050.9695 124.9009 C 1048.9797 124.9009 1046.7056 126.3183 1046.7056 129.153 C 1046.7056 131.1374 1048.127 133.6887 1050.9695 133.6887 C 1052.9594 133.6887 1055.5178 131.9878 1055.5178 129.153 ZM 1066.8883 137.0904 C 1066.8883 135.1061 1065.1827 132.8383 1062.3401 132.8383 C 1060.3502 132.8383 1058.0762 134.2556 1058.0762 137.0904 C 1058.0762 139.0748 1059.4974 141.6261 1062.3401 141.6261 C 1064.33 141.6261 1066.8883 139.9252 1066.8883 137.0904 ZM 1078.2589 145.0278 C 1078.2589 143.0435 1076.5533 140.7757 1073.7107 140.7757 C 1071.7208 140.7757 1069.4467 142.193 1069.4467 145.0278 C 1069.4467 147.0122 1070.868 149.5635 1073.7107 149.5635 C 1075.7006 149.5635 1078.2589 147.8626 1078.2589 145.0278 ZM 1089.6294 152.9652 C 1089.6294 150.9809 1087.9238 148.713 1085.0812 148.713 C 1083.0914 148.713 1080.8173 150.1304 1080.8173 152.9652 C 1080.8173 154.9496 1082.2385 157.5009 1085.0812 157.5009 C 1087.071 157.5009 1089.6294 155.8 1089.6294 152.9652 ZM 1101 160.9026 C 1101 158.9183 1099.2944 156.6504 1096.4518 156.6504 C 1094.4619 156.6504 1092.1879 158.0678 1092.1879 160.9026 C 1092.1879 162.887 1093.6091 165.4383 1096.4518 165.4383 C 1098.4417 165.4383 1101 163.7374 1101 160.9026 ZM 975.9238 96.2696 C 975.9238 94.2852 974.2183 92.0174 971.3756 92.0174 C 969.3858 92.0174 967.1117 93.4348 967.1117 96.2696 C 967.1117 98.2539 968.533 100.8052 971.3756 100.8052 C 973.3655 100.8052 975.9238 99.1043 975.9238 96.2696 ZM 987.2944 104.207 C 987.2944 102.2226 985.5888 99.9548 982.7462 99.9548 C 980.7563 99.9548 978.4822 101.3722 978.4822 104.207 C 978.4822 106.1913 979.9036 108.7426 982.7462 108.7426 C 984.736 108.7426 987.2944 107.0417 987.2944 104.207 ZM 998.665 112.1443 C 998.665 110.16 996.9594 107.8922 994.1168 107.8922 C 992.1269 107.8922 989.8528 109.3096 989.8528 112.1443 C 989.8528 114.1287 991.2741 116.68 994.1168 116.68 C 996.1066 116.68 998.665 114.9791 998.665 112.1443 ZM 1010.0355 120.0817 C 1010.0355 118.0974 1008.33 115.8296 1005.4873 115.8296 C 1003.4974 115.8296 1001.2233 117.2469 1001.2233 120.0817 C 1001.2233 122.0661 1002.6447 124.6174 1005.4873 124.6174 C 1007.4772 124.6174 1010.0355 122.9165 1010.0355 120.0817 ZM 1021.4061 128.0191 C 1021.4061 126.0348 1019.7005 123.767 1016.8578 123.767 C 1014.868 123.767 1012.5939 125.1844 1012.5939 128.0191 C 1012.5939 130.0035 1014.0153 132.5548 1016.8578 132.5548 C 1018.8477 132.5548 1021.4061 130.8539 1021.4061 128.0191 ZM 1032.7766 135.9565 C 1032.7766 133.9722 1031.071 131.7043 1028.2284 131.7043 C 1026.2385 131.7043 1023.9645 133.1217 1023.9645 135.9565 C 1023.9645 137.9409 1025.3857 140.4922 1028.2284 140.4922 C 1030.2183 140.4922 1032.7766 138.7913 1032.7766 135.9565 ZM 1044.1472 143.8939 C 1044.1472 141.9096 1042.4417 139.6417 1039.599 139.6417 C 1037.6091 139.6417 1035.3351 141.0591 1035.3351 143.8939 C 1035.3351 145.8783 1036.7563 148.4296 1039.599 148.4296 C 1041.5889 148.4296 1044.1472 146.7287 1044.1472 143.8939 ZM 1055.5178 151.8313 C 1055.5178 149.847 1053.8121 147.5791 1050.9695 147.5791 C 1048.9797 147.5791 1046.7056 148.9965 1046.7056 151.8313 C 1046.7056 153.8157 1048.127 156.367 1050.9695 156.367 C 1052.9594 156.367 1055.5178 154.6661 1055.5178 151.8313 ZM 1066.8883 159.7687 C 1066.8883 157.7843 1065.1827 155.5165 1062.3401 155.5165 C 1060.3502 155.5165 1058.0762 156.9339 1058.0762 159.7687 C 1058.0762 161.753 1059.4974 164.3044 1062.3401 164.3044 C 1064.33 164.3044 1066.8883 162.6035 1066.8883 159.7687 ZM 1078.2589 167.7061 C 1078.2589 165.7217 1076.5533 163.4539 1073.7107 163.4539 C 1071.7208 163.4539 1069.4467 164.8713 1069.4467 167.7061 C 1069.4467 169.6904 1070.868 172.2417 1073.7107 172.2417 C 1075.7006 172.2417 1078.2589 170.5409 1078.2589 167.7061 ZM 1089.6294 175.6435 C 1089.6294 173.6591 1087.9238 171.3913 1085.0812 171.3913 C 1083.0914 171.3913 1080.8173 172.8087 1080.8173 175.6435 C 1080.8173 177.6278 1082.2385 180.1791 1085.0812 180.1791 C 1087.071 180.1791 1089.6294 178.4783 1089.6294 175.6435 ZM 953.1827 103.073 C 953.1827 101.0887 951.4772 98.8209 948.6345 98.8209 C 946.6447 98.8209 944.3705 100.2383 944.3705 103.073 C 944.3705 105.0574 945.7919 107.6087 948.6345 107.6087 C 950.6244 107.6087 953.1827 105.9078 953.1827 103.073 ZM 964.5533 111.0104 C 964.5533 109.0261 962.8477 106.7583 960.0051 106.7583 C 958.0153 106.7583 955.7411 108.1757 955.7411 111.0104 C 955.7411 112.9948 957.1624 115.5461 960.0051 115.5461 C 961.9949 115.5461 964.5533 113.8452 964.5533 111.0104 ZM 975.9238 118.9478 C 975.9238 116.9635 974.2183 114.6956 971.3756 114.6956 C 969.3858 114.6956 967.1117 116.113 967.1117 118.9478 C 967.1117 120.9322 968.533 123.4835 971.3756 123.4835 C 973.3655 123.4835 975.9238 121.7826 975.9238 118.9478 ZM 987.2944 126.8852 C 987.2944 124.9009 985.5888 122.633 982.7462 122.633 C 980.7563 122.633 978.4822 124.0504 978.4822 126.8852 C 978.4822 128.8696 979.9036 131.4209 982.7462 131.4209 C 984.736 131.4209 987.2944 129.72 987.2944 126.8852 ZM 998.665 134.8226 C 998.665 132.8383 996.9594 130.5704 994.1168 130.5704 C 992.1269 130.5704 989.8528 131.9878 989.8528 134.8226 C 989.8528 136.807 991.2741 139.3583 994.1168 139.3583 C 996.1066 139.3583 998.665 137.6574 998.665 134.8226 ZM 1010.0355 142.76 C 1010.0355 140.7757 1008.33 138.5078 1005.4873 138.5078 C 1003.4974 138.5078 1001.2233 139.9252 1001.2233 142.76 C 1001.2233 144.7444 1002.6447 147.2957 1005.4873 147.2957 C 1007.4772 147.2957 1010.0355 145.5948 1010.0355 142.76 ZM 1021.4061 150.6974 C 1021.4061 148.713 1019.7005 146.4452 1016.8578 146.4452 C 1014.868 146.4452 1012.5939 147.8626 1012.5939 150.6974 C 1012.5939 152.6817 1014.0153 155.233 1016.8578 155.233 C 1018.8477 155.233 1021.4061 153.5322 1021.4061 150.6974 ZM 1032.7766 158.6348 C 1032.7766 156.6504 1031.071 154.3826 1028.2284 154.3826 C 1026.2385 154.3826 1023.9645 155.8 1023.9645 158.6348 C 1023.9645 160.6191 1025.3857 163.1704 1028.2284 163.1704 C 1030.2183 163.1704 1032.7766 161.4696 1032.7766 158.6348 ZM 1044.1472 166.5722 C 1044.1472 164.5878 1042.4417 162.32 1039.599 162.32 C 1037.6091 162.32 1035.3351 163.7374 1035.3351 166.5722 C 1035.3351 168.5565 1036.7563 171.1078 1039.599 171.1078 C 1041.5889 171.1078 1044.1472 169.407 1044.1472 166.5722 ZM 1055.5178 174.5096 C 1055.5178 172.5252 1053.8121 170.2574 1050.9695 170.2574 C 1048.9797 170.2574 1046.7056 171.6748 1046.7056 174.5096 C 1046.7056 176.4939 1048.127 179.0452 1050.9695 179.0452 C 1052.9594 179.0452 1055.5178 177.3443 1055.5178 174.5096 ZM 1066.8883 182.447 C 1066.8883 180.4626 1065.1827 178.1948 1062.3401 178.1948 C 1060.3502 178.1948 1058.0762 179.6122 1058.0762 182.447 C 1058.0762 184.4313 1059.4974 186.9826 1062.3401 186.9826 C 1064.33 186.9826 1066.8883 185.2817 1066.8883 182.447 ZM 941.8122 117.8139 C 941.8122 115.8296 940.1066 113.5617 937.264 113.5617 C 935.2741 113.5617 933 114.9791 933 117.8139 C 933 119.7983 934.4213 122.3496 937.264 122.3496 C 939.2538 122.3496 941.8122 120.6487 941.8122 117.8139 ZM 953.1827 125.7513 C 953.1827 123.767 951.4772 121.4991 948.6345 121.4991 C 946.6447 121.4991 944.3705 122.9165 944.3705 125.7513 C 944.3705 127.7357 945.7919 130.287 948.6345 130.287 C 950.6244 130.287 953.1827 128.5861 953.1827 125.7513 ZM 964.5533 133.6887 C 964.5533 131.7043 962.8477 129.4365 960.0051 129.4365 C 958.0153 129.4365 955.7411 130.8539 955.7411 133.6887 C 955.7411 135.673 957.1624 138.2243 960.0051 138.2243 C 961.9949 138.2243 964.5533 136.5235 964.5533 133.6887 ZM 975.9238 141.6261 C 975.9238 139.6417 974.2183 137.3739 971.3756 137.3739 C 969.3858 137.3739 967.1117 138.7913 967.1117 141.6261 C 967.1117 143.6104 968.533 146.1617 971.3756 146.1617 C 973.3655 146.1617 975.9238 144.4609 975.9238 141.6261 ZM 987.2944 149.5635 C 987.2944 147.5791 985.5888 145.3113 982.7462 145.3113 C 980.7563 145.3113 978.4822 146.7287 978.4822 149.5635 C 978.4822 151.5478 979.9036 154.0991 982.7462 154.0991 C 984.736 154.0991 987.2944 152.3983 987.2944 149.5635 ZM 998.665 157.5009 C 998.665 155.5165 996.9594 153.2487 994.1168 153.2487 C 992.1269 153.2487 989.8528 154.6661 989.8528 157.5009 C 989.8528 159.4852 991.2741 162.0365 994.1168 162.0365 C 996.1066 162.0365 998.665 160.3356 998.665 157.5009 ZM 1010.0355 165.4383 C 1010.0355 163.4539 1008.33 161.1861 1005.4873 161.1861 C 1003.4974 161.1861 1001.2233 162.6035 1001.2233 165.4383 C 1001.2233 167.4226 1002.6447 169.9739 1005.4873 169.9739 C 1007.4772 169.9739 1010.0355 168.273 1010.0355 165.4383 ZM 1021.4061 173.3757 C 1021.4061 171.3913 1019.7005 169.1235 1016.8578 169.1235 C 1014.868 169.1235 1012.5939 170.5409 1012.5939 173.3757 C 1012.5939 175.36 1014.0153 177.9113 1016.8578 177.9113 C 1018.8477 177.9113 1021.4061 176.2104 1021.4061 173.3757 ZM 1032.7766 181.313 C 1032.7766 179.3287 1031.071 177.0609 1028.2284 177.0609 C 1026.2385 177.0609 1023.9645 178.4783 1023.9645 181.313 C 1023.9645 183.2974 1025.3857 185.8487 1028.2284 185.8487 C 1030.2183 185.8487 1032.7766 184.1478 1032.7766 181.313 ZM 1044.1472 189.2504 C 1044.1472 187.2661 1042.4417 184.9983 1039.599 184.9983 C 1037.6091 184.9983 1035.3351 186.4156 1035.3351 189.2504 C 1035.3351 191.2348 1036.7563 193.7861 1039.599 193.7861 C 1041.5889 193.7861 1044.1472 192.0852 1044.1472 189.2504 ZM 941.8122 140.4922 C 941.8122 138.5078 940.1066 136.24 937.264 136.24 C 935.2741 136.24 933 137.6574 933 140.4922 C 933 142.4765 934.4213 145.0278 937.264 145.0278 C 939.2538 145.0278 941.8122 143.327 941.8122 140.4922 ZM 953.1827 148.4296 C 953.1827 146.4452 951.4772 144.1774 948.6345 144.1774 C 946.6447 144.1774 944.3705 145.5948 944.3705 148.4296 C 944.3705 150.4139 945.7919 152.9652 948.6345 152.9652 C 950.6244 152.9652 953.1827 151.2643 953.1827 148.4296 ZM 964.5533 156.367 C 964.5533 154.3826 962.8477 152.1148 960.0051 152.1148 C 958.0153 152.1148 955.7411 153.5322 955.7411 156.367 C 955.7411 158.3513 957.1624 160.9026 960.0051 160.9026 C 961.9949 160.9026 964.5533 159.2017 964.5533 156.367 ZM 975.9238 164.3044 C 975.9238 162.32 974.2183 160.0522 971.3756 160.0522 C 969.3858 160.0522 967.1117 161.4696 967.1117 164.3044 C 967.1117 166.2887 968.533 168.84 971.3756 168.84 C 973.3655 168.84 975.9238 167.1391 975.9238 164.3044 ZM 987.2944 172.2417 C 987.2944 170.2574 985.5888 167.9896 982.7462 167.9896 C 980.7563 167.9896 978.4822 169.407 978.4822 172.2417 C 978.4822 174.2261 979.9036 176.7774 982.7462 176.7774 C 984.736 176.7774 987.2944 175.0765 987.2944 172.2417 ZM 998.665 180.1791 C 998.665 178.1948 996.9594 175.927 994.1168 175.927 C 992.1269 175.927 989.8528 177.3443 989.8528 180.1791 C 989.8528 182.1635 991.2741 184.7148 994.1168 184.7148 C 996.1066 184.7148 998.665 183.0139 998.665 180.1791 ZM 1010.0355 188.1165 C 1010.0355 186.1322 1008.33 183.8643 1005.4873 183.8643 C 1003.4974 183.8643 1001.2233 185.2817 1001.2233 188.1165 C 1001.2233 190.1009 1002.6447 192.6522 1005.4873 192.6522 C 1007.4772 192.6522 1010.0355 190.9513 1010.0355 188.1165 ZM 1021.4061 196.0539 C 1021.4061 194.0696 1019.7005 191.8017 1016.8578 191.8017 C 1014.868 191.8017 1012.5939 193.2191 1012.5939 196.0539 C 1012.5939 198.0383 1014.0153 200.5896 1016.8578 200.5896 C 1018.8477 200.5896 1021.4061 198.8887 1021.4061 196.0539 ZM 941.8122 163.1704 C 941.8122 161.1861 940.1066 158.9183 937.264 158.9183 C 935.2741 158.9183 933 160.3356 933 163.1704 C 933 165.1548 934.4213 167.7061 937.264 167.7061 C 939.2538 167.7061 941.8122 166.0052 941.8122 163.1704 ZM 953.1827 171.1078 C 953.1827 169.1235 951.4772 166.8557 948.6345 166.8557 C 946.6447 166.8557 944.3705 168.273 944.3705 171.1078 C 944.3705 173.0922 945.7919 175.6435 948.6345 175.6435 C 950.6244 175.6435 953.1827 173.9426 953.1827 171.1078 ZM 964.5533 179.0452 C 964.5533 177.0609 962.8477 174.793 960.0051 174.793 C 958.0153 174.793 955.7411 176.2104 955.7411 179.0452 C 955.7411 181.0296 957.1624 183.5809 960.0051 183.5809 C 961.9949 183.5809 964.5533 181.88 964.5533 179.0452 ZM 975.9238 186.9826 C 975.9238 184.9983 974.2183 182.7304 971.3756 182.7304 C 969.3858 182.7304 967.1117 184.1478 967.1117 186.9826 C 967.1117 188.9669 968.533 191.5183 971.3756 191.5183 C 973.3655 191.5183 975.9238 189.8174 975.9238 186.9826 ZM 987.2944 194.92 C 987.2944 192.9357 985.5888 190.6678 982.7462 190.6678 C 980.7563 190.6678 978.4822 192.0852 978.4822 194.92 C 978.4822 196.9043 979.9036 199.4557 982.7462 199.4557 C 984.736 199.4557 987.2944 197.7548 987.2944 194.92 ZM 998.665 202.8574 C 998.665 200.873 996.9594 198.6052 994.1168 198.6052 C 992.1269 198.6052 989.8528 200.0226 989.8528 202.8574 C 989.8528 204.8417 991.2741 207.393 994.1168 207.393 C 996.1066 207.393 998.665 205.6922 998.665 202.8574 ZM 941.8122 185.8487 C 941.8122 183.8643 940.1066 181.5965 937.264 181.5965 C 935.2741 181.5965 933 183.0139 933 185.8487 C 933 187.833 934.4213 190.3844 937.264 190.3844 C 939.2538 190.3844 941.8122 188.6835 941.8122 185.8487 ZM 953.1827 193.7861 C 953.1827 191.8017 951.4772 189.5339 948.6345 189.5339 C 946.6447 189.5339 944.3705 190.9513 944.3705 193.7861 C 944.3705 195.7704 945.7919 198.3217 948.6345 198.3217 C 950.6244 198.3217 953.1827 196.6209 953.1827 193.7861 ZM 964.5533 201.7235 C 964.5533 199.7391 962.8477 197.4713 960.0051 197.4713 C 958.0153 197.4713 955.7411 198.8887 955.7411 201.7235 C 955.7411 203.7078 957.1624 206.2591 960.0051 206.2591 C 961.9949 206.2591 964.5533 204.5583 964.5533 201.7235 ZM 975.9238 209.6609 C 975.9238 207.6765 974.2183 205.4087 971.3756 205.4087 C 969.3858 205.4087 967.1117 206.8261 967.1117 209.6609 C 967.1117 211.6452 968.533 214.1965 971.3756 214.1965 C 973.3655 214.1965 975.9238 212.4957 975.9238 209.6609 ZM 941.8122 208.527 C 941.8122 206.5426 940.1066 204.2748 937.264 204.2748 C 935.2741 204.2748 933 205.6922 933 208.527 C 933 210.5113 934.4213 213.0626 937.264 213.0626 C 939.2538 213.0626 941.8122 211.3618 941.8122 208.527 ZM 953.1827 216.4644 C 953.1827 214.48 951.4772 212.2122 948.6345 212.2122 C 946.6447 212.2122 944.3705 213.6296 944.3705 216.4644 C 944.3705 218.4487 945.7919 221 948.6345 221 C 950.6244 221 953.1827 219.2991 953.1827 216.4644 Z" fill="#131304"/>
			<path d="M 44.3706 62.2522 C 44.3706 60.2678 46.0762 58 48.9188 58 C 50.9086 58 53.1827 59.4174 53.1827 62.2522 C 53.1827 64.2365 51.7615 66.7878 48.9188 66.7878 C 46.929 66.7878 44.3706 65.087 44.3706 62.2522 ZM 33 70.1896 C 33 68.2052 34.7056 65.9374 37.5482 65.9374 C 39.5381 65.9374 41.8121 67.3548 41.8121 70.1896 C 41.8121 72.1739 40.3909 74.7252 37.5482 74.7252 C 35.5583 74.7252 33 73.0243 33 70.1896 ZM 67.1117 69.0556 C 67.1117 67.0713 68.8173 64.8035 71.6599 64.8035 C 73.6498 64.8035 75.9238 66.2209 75.9238 69.0556 C 75.9238 71.04 74.5026 73.5913 71.6599 73.5913 C 69.67 73.5913 67.1117 71.8904 67.1117 69.0556 ZM 55.7411 76.993 C 55.7411 75.0087 57.4467 72.7409 60.2893 72.7409 C 62.2792 72.7409 64.5533 74.1583 64.5533 76.993 C 64.5533 78.9774 63.132 81.5287 60.2893 81.5287 C 58.2994 81.5287 55.7411 79.8278 55.7411 76.993 ZM 44.3706 84.9304 C 44.3706 82.9461 46.0762 80.6783 48.9188 80.6783 C 50.9086 80.6783 53.1827 82.0956 53.1827 84.9304 C 53.1827 86.9148 51.7615 89.4661 48.9188 89.4661 C 46.929 89.4661 44.3706 87.7652 44.3706 84.9304 ZM 33 92.8678 C 33 90.8835 34.7056 88.6157 37.5482 88.6157 C 39.5381 88.6157 41.8121 90.0331 41.8121 92.8678 C 41.8121 94.8522 40.3909 97.4035 37.5482 97.4035 C 35.5583 97.4035 33 95.7026 33 92.8678 ZM 89.8528 75.8591 C 89.8528 73.8748 91.5583 71.607 94.401 71.607 C 96.3909 71.607 98.6649 73.0243 98.6649 75.8591 C 98.6649 77.8435 97.2437 80.3948 94.401 80.3948 C 92.4111 80.3948 89.8528 78.6939 89.8528 75.8591 ZM 78.4822 83.7965 C 78.4822 81.8122 80.1879 79.5443 83.0305 79.5443 C 85.0203 79.5443 87.2944 80.9617 87.2944 83.7965 C 87.2944 85.7809 85.873 88.3322 83.0305 88.3322 C 81.0406 88.3322 78.4822 86.6313 78.4822 83.7965 ZM 67.1117 91.7339 C 67.1117 89.7496 68.8173 87.4818 71.6599 87.4818 C 73.6498 87.4818 75.9238 88.8991 75.9238 91.7339 C 75.9238 93.7183 74.5026 96.2696 71.6599 96.2696 C 69.67 96.2696 67.1117 94.5687 67.1117 91.7339 ZM 55.7411 99.6713 C 55.7411 97.687 57.4467 95.4191 60.2893 95.4191 C 62.2792 95.4191 64.5533 96.8365 64.5533 99.6713 C 64.5533 101.6557 63.132 104.207 60.2893 104.207 C 58.2994 104.207 55.7411 102.5061 55.7411 99.6713 ZM 44.3706 107.6087 C 44.3706 105.6244 46.0762 103.3565 48.9188 103.3565 C 50.9086 103.3565 53.1827 104.7739 53.1827 107.6087 C 53.1827 109.593 51.7615 112.1443 48.9188 112.1443 C 46.929 112.1443 44.3706 110.4435 44.3706 107.6087 ZM 33 115.5461 C 33 113.5617 34.7056 111.2939 37.5482 111.2939 C 39.5381 111.2939 41.8121 112.7113 41.8121 115.5461 C 41.8121 117.5304 40.3909 120.0817 37.5482 120.0817 C 35.5583 120.0817 33 118.3809 33 115.5461 ZM 112.5939 82.6626 C 112.5939 80.6783 114.2995 78.4104 117.1422 78.4104 C 119.132 78.4104 121.4061 79.8278 121.4061 82.6626 C 121.4061 84.647 119.9847 87.1983 117.1422 87.1983 C 115.1523 87.1983 112.5939 85.4974 112.5939 82.6626 ZM 101.2234 90.6 C 101.2234 88.6157 102.929 86.3478 105.7716 86.3478 C 107.7615 86.3478 110.0355 87.7652 110.0355 90.6 C 110.0355 92.5844 108.6143 95.1357 105.7716 95.1357 C 103.7817 95.1357 101.2234 93.4348 101.2234 90.6 ZM 89.8528 98.5374 C 89.8528 96.553 91.5583 94.2852 94.401 94.2852 C 96.3909 94.2852 98.6649 95.7026 98.6649 98.5374 C 98.6649 100.5217 97.2437 103.073 94.401 103.073 C 92.4111 103.073 89.8528 101.3722 89.8528 98.5374 ZM 78.4822 106.4748 C 78.4822 104.4904 80.1879 102.2226 83.0305 102.2226 C 85.0203 102.2226 87.2944 103.64 87.2944 106.4748 C 87.2944 108.4591 85.873 111.0104 83.0305 111.0104 C 81.0406 111.0104 78.4822 109.3096 78.4822 106.4748 ZM 67.1117 114.4122 C 67.1117 112.4278 68.8173 110.16 71.6599 110.16 C 73.6498 110.16 75.9238 111.5774 75.9238 114.4122 C 75.9238 116.3965 74.5026 118.9478 71.6599 118.9478 C 69.67 118.9478 67.1117 117.2469 67.1117 114.4122 ZM 55.7411 122.3496 C 55.7411 120.3652 57.4467 118.0974 60.2893 118.0974 C 62.2792 118.0974 64.5533 119.5148 64.5533 122.3496 C 64.5533 124.3339 63.132 126.8852 60.2893 126.8852 C 58.2994 126.8852 55.7411 125.1844 55.7411 122.3496 ZM 44.3706 130.287 C 44.3706 128.3026 46.0762 126.0348 48.9188 126.0348 C 50.9086 126.0348 53.1827 127.4522 53.1827 130.287 C 53.1827 132.2713 51.7615 134.8226 48.9188 134.8226 C 46.929 134.8226 44.3706 133.1217 44.3706 130.287 ZM 33 138.2243 C 33 136.24 34.7056 133.9722 37.5482 133.9722 C 39.5381 133.9722 41.8121 135.3896 41.8121 138.2243 C 41.8121 140.2087 40.3909 142.76 37.5482 142.76 C 35.5583 142.76 33 141.0591 33 138.2243 ZM 135.335 89.4661 C 135.335 87.4818 137.0405 85.2139 139.8833 85.2139 C 141.873 85.2139 144.1472 86.6313 144.1472 89.4661 C 144.1472 91.4504 142.7258 94.0017 139.8833 94.0017 C 137.8933 94.0017 135.335 92.3009 135.335 89.4661 ZM 123.9645 97.4035 C 123.9645 95.4191 125.67 93.1513 128.5127 93.1513 C 130.5026 93.1513 132.7766 94.5687 132.7766 97.4035 C 132.7766 99.3878 131.3553 101.9391 128.5127 101.9391 C 126.5228 101.9391 123.9645 100.2383 123.9645 97.4035 ZM 112.5939 105.3409 C 112.5939 103.3565 114.2995 101.0887 117.1422 101.0887 C 119.132 101.0887 121.4061 102.5061 121.4061 105.3409 C 121.4061 107.3252 119.9847 109.8765 117.1422 109.8765 C 115.1523 109.8765 112.5939 108.1757 112.5939 105.3409 ZM 101.2234 113.2783 C 101.2234 111.2939 102.929 109.0261 105.7716 109.0261 C 107.7615 109.0261 110.0355 110.4435 110.0355 113.2783 C 110.0355 115.2626 108.6143 117.8139 105.7716 117.8139 C 103.7817 117.8139 101.2234 116.113 101.2234 113.2783 ZM 89.8528 121.2157 C 89.8528 119.2313 91.5583 116.9635 94.401 116.9635 C 96.3909 116.9635 98.6649 118.3809 98.6649 121.2157 C 98.6649 123.2 97.2437 125.7513 94.401 125.7513 C 92.4111 125.7513 89.8528 124.0504 89.8528 121.2157 ZM 78.4822 129.153 C 78.4822 127.1687 80.1879 124.9009 83.0305 124.9009 C 85.0203 124.9009 87.2944 126.3183 87.2944 129.153 C 87.2944 131.1374 85.873 133.6887 83.0305 133.6887 C 81.0406 133.6887 78.4822 131.9878 78.4822 129.153 ZM 67.1117 137.0904 C 67.1117 135.1061 68.8173 132.8383 71.6599 132.8383 C 73.6498 132.8383 75.9238 134.2556 75.9238 137.0904 C 75.9238 139.0748 74.5026 141.6261 71.6599 141.6261 C 69.67 141.6261 67.1117 139.9252 67.1117 137.0904 ZM 55.7411 145.0278 C 55.7411 143.0435 57.4467 140.7757 60.2893 140.7757 C 62.2792 140.7757 64.5533 142.193 64.5533 145.0278 C 64.5533 147.0122 63.132 149.5635 60.2893 149.5635 C 58.2994 149.5635 55.7411 147.8626 55.7411 145.0278 ZM 44.3706 152.9652 C 44.3706 150.9809 46.0762 148.713 48.9188 148.713 C 50.9086 148.713 53.1827 150.1304 53.1827 152.9652 C 53.1827 154.9496 51.7615 157.5009 48.9188 157.5009 C 46.929 157.5009 44.3706 155.8 44.3706 152.9652 ZM 33 160.9026 C 33 158.9183 34.7056 156.6504 37.5482 156.6504 C 39.5381 156.6504 41.8121 158.0678 41.8121 160.9026 C 41.8121 162.887 40.3909 165.4383 37.5482 165.4383 C 35.5583 165.4383 33 163.7374 33 160.9026 ZM 158.0762 96.2696 C 158.0762 94.2852 159.7817 92.0174 162.6244 92.0174 C 164.6143 92.0174 166.8883 93.4348 166.8883 96.2696 C 166.8883 98.2539 165.467 100.8052 162.6244 100.8052 C 160.6345 100.8052 158.0762 99.1043 158.0762 96.2696 ZM 146.7056 104.207 C 146.7056 102.2226 148.4111 99.9548 151.2538 99.9548 C 153.2437 99.9548 155.5178 101.3722 155.5178 104.207 C 155.5178 106.1913 154.0964 108.7426 151.2538 108.7426 C 149.2639 108.7426 146.7056 107.0417 146.7056 104.207 ZM 135.335 112.1443 C 135.335 110.16 137.0405 107.8922 139.8833 107.8922 C 141.873 107.8922 144.1472 109.3096 144.1472 112.1443 C 144.1472 114.1287 142.7258 116.68 139.8833 116.68 C 137.8933 116.68 135.335 114.9791 135.335 112.1443 ZM 123.9645 120.0817 C 123.9645 118.0974 125.67 115.8296 128.5127 115.8296 C 130.5026 115.8296 132.7766 117.2469 132.7766 120.0817 C 132.7766 122.0661 131.3553 124.6174 128.5127 124.6174 C 126.5228 124.6174 123.9645 122.9165 123.9645 120.0817 ZM 112.5939 128.0191 C 112.5939 126.0348 114.2995 123.767 117.1422 123.767 C 119.132 123.767 121.4061 125.1844 121.4061 128.0191 C 121.4061 130.0035 119.9847 132.5548 117.1422 132.5548 C 115.1523 132.5548 112.5939 130.8539 112.5939 128.0191 ZM 101.2234 135.9565 C 101.2234 133.9722 102.929 131.7043 105.7716 131.7043 C 107.7615 131.7043 110.0355 133.1217 110.0355 135.9565 C 110.0355 137.9409 108.6143 140.4922 105.7716 140.4922 C 103.7817 140.4922 101.2234 138.7913 101.2234 135.9565 ZM 89.8528 143.8939 C 89.8528 141.9096 91.5583 139.6417 94.401 139.6417 C 96.3909 139.6417 98.6649 141.0591 98.6649 143.8939 C 98.6649 145.8783 97.2437 148.4296 94.401 148.4296 C 92.4111 148.4296 89.8528 146.7287 89.8528 143.8939 ZM 78.4822 151.8313 C 78.4822 149.847 80.1879 147.5791 83.0305 147.5791 C 85.0203 147.5791 87.2944 148.9965 87.2944 151.8313 C 87.2944 153.8157 85.873 156.367 83.0305 156.367 C 81.0406 156.367 78.4822 154.6661 78.4822 151.8313 ZM 67.1117 159.7687 C 67.1117 157.7843 68.8173 155.5165 71.6599 155.5165 C 73.6498 155.5165 75.9238 156.9339 75.9238 159.7687 C 75.9238 161.753 74.5026 164.3044 71.6599 164.3044 C 69.67 164.3044 67.1117 162.6035 67.1117 159.7687 ZM 55.7411 167.7061 C 55.7411 165.7217 57.4467 163.4539 60.2893 163.4539 C 62.2792 163.4539 64.5533 164.8713 64.5533 167.7061 C 64.5533 169.6904 63.132 172.2417 60.2893 172.2417 C 58.2994 172.2417 55.7411 170.5409 55.7411 167.7061 ZM 44.3706 175.6435 C 44.3706 173.6591 46.0762 171.3913 48.9188 171.3913 C 50.9086 171.3913 53.1827 172.8087 53.1827 175.6435 C 53.1827 177.6278 51.7615 180.1791 48.9188 180.1791 C 46.929 180.1791 44.3706 178.4783 44.3706 175.6435 ZM 180.8173 103.073 C 180.8173 101.0887 182.5228 98.8209 185.3655 98.8209 C 187.3553 98.8209 189.6294 100.2383 189.6294 103.073 C 189.6294 105.0574 188.2081 107.6087 185.3655 107.6087 C 183.3756 107.6087 180.8173 105.9078 180.8173 103.073 ZM 169.4468 111.0104 C 169.4468 109.0261 171.1523 106.7583 173.9949 106.7583 C 175.9847 106.7583 178.2589 108.1757 178.2589 111.0104 C 178.2589 112.9948 176.8376 115.5461 173.9949 115.5461 C 172.0051 115.5461 169.4468 113.8452 169.4468 111.0104 ZM 158.0762 118.9478 C 158.0762 116.9635 159.7817 114.6956 162.6244 114.6956 C 164.6143 114.6956 166.8883 116.113 166.8883 118.9478 C 166.8883 120.9322 165.467 123.4835 162.6244 123.4835 C 160.6345 123.4835 158.0762 121.7826 158.0762 118.9478 ZM 146.7056 126.8852 C 146.7056 124.9009 148.4111 122.633 151.2538 122.633 C 153.2437 122.633 155.5178 124.0504 155.5178 126.8852 C 155.5178 128.8696 154.0964 131.4209 151.2538 131.4209 C 149.2639 131.4209 146.7056 129.72 146.7056 126.8852 ZM 135.335 134.8226 C 135.335 132.8383 137.0405 130.5704 139.8833 130.5704 C 141.873 130.5704 144.1472 131.9878 144.1472 134.8226 C 144.1472 136.807 142.7258 139.3583 139.8833 139.3583 C 137.8933 139.3583 135.335 137.6574 135.335 134.8226 ZM 123.9645 142.76 C 123.9645 140.7757 125.67 138.5078 128.5127 138.5078 C 130.5026 138.5078 132.7766 139.9252 132.7766 142.76 C 132.7766 144.7444 131.3553 147.2957 128.5127 147.2957 C 126.5228 147.2957 123.9645 145.5948 123.9645 142.76 ZM 112.5939 150.6974 C 112.5939 148.713 114.2995 146.4452 117.1422 146.4452 C 119.132 146.4452 121.4061 147.8626 121.4061 150.6974 C 121.4061 152.6817 119.9847 155.233 117.1422 155.233 C 115.1523 155.233 112.5939 153.5322 112.5939 150.6974 ZM 101.2234 158.6348 C 101.2234 156.6504 102.929 154.3826 105.7716 154.3826 C 107.7615 154.3826 110.0355 155.8 110.0355 158.6348 C 110.0355 160.6191 108.6143 163.1704 105.7716 163.1704 C 103.7817 163.1704 101.2234 161.4696 101.2234 158.6348 ZM 89.8528 166.5722 C 89.8528 164.5878 91.5583 162.32 94.401 162.32 C 96.3909 162.32 98.6649 163.7374 98.6649 166.5722 C 98.6649 168.5565 97.2437 171.1078 94.401 171.1078 C 92.4111 171.1078 89.8528 169.407 89.8528 166.5722 ZM 78.4822 174.5096 C 78.4822 172.5252 80.1879 170.2574 83.0305 170.2574 C 85.0203 170.2574 87.2944 171.6748 87.2944 174.5096 C 87.2944 176.4939 85.873 179.0452 83.0305 179.0452 C 81.0406 179.0452 78.4822 177.3443 78.4822 174.5096 ZM 67.1117 182.447 C 67.1117 180.4626 68.8173 178.1948 71.6599 178.1948 C 73.6498 178.1948 75.9238 179.6122 75.9238 182.447 C 75.9238 184.4313 74.5026 186.9826 71.6599 186.9826 C 69.67 186.9826 67.1117 185.2817 67.1117 182.447 ZM 192.1877 117.8139 C 192.1877 115.8296 193.8933 113.5617 196.7361 113.5617 C 198.7258 113.5617 201 114.9791 201 117.8139 C 201 119.7983 199.5786 122.3496 196.7361 122.3496 C 194.7462 122.3496 192.1877 120.6487 192.1877 117.8139 ZM 180.8173 125.7513 C 180.8173 123.767 182.5228 121.4991 185.3655 121.4991 C 187.3553 121.4991 189.6294 122.9165 189.6294 125.7513 C 189.6294 127.7357 188.2081 130.287 185.3655 130.287 C 183.3756 130.287 180.8173 128.5861 180.8173 125.7513 ZM 169.4468 133.6887 C 169.4468 131.7043 171.1523 129.4365 173.9949 129.4365 C 175.9847 129.4365 178.2589 130.8539 178.2589 133.6887 C 178.2589 135.673 176.8376 138.2243 173.9949 138.2243 C 172.0051 138.2243 169.4468 136.5235 169.4468 133.6887 ZM 158.0762 141.6261 C 158.0762 139.6417 159.7817 137.3739 162.6244 137.3739 C 164.6143 137.3739 166.8883 138.7913 166.8883 141.6261 C 166.8883 143.6104 165.467 146.1617 162.6244 146.1617 C 160.6345 146.1617 158.0762 144.4609 158.0762 141.6261 ZM 146.7056 149.5635 C 146.7056 147.5791 148.4111 145.3113 151.2538 145.3113 C 153.2437 145.3113 155.5178 146.7287 155.5178 149.5635 C 155.5178 151.5478 154.0964 154.0991 151.2538 154.0991 C 149.2639 154.0991 146.7056 152.3983 146.7056 149.5635 ZM 135.335 157.5009 C 135.335 155.5165 137.0405 153.2487 139.8833 153.2487 C 141.873 153.2487 144.1472 154.6661 144.1472 157.5009 C 144.1472 159.4852 142.7258 162.0365 139.8833 162.0365 C 137.8933 162.0365 135.335 160.3356 135.335 157.5009 ZM 123.9645 165.4383 C 123.9645 163.4539 125.67 161.1861 128.5127 161.1861 C 130.5026 161.1861 132.7766 162.6035 132.7766 165.4383 C 132.7766 167.4226 131.3553 169.9739 128.5127 169.9739 C 126.5228 169.9739 123.9645 168.273 123.9645 165.4383 ZM 112.5939 173.3757 C 112.5939 171.3913 114.2995 169.1235 117.1422 169.1235 C 119.132 169.1235 121.4061 170.5409 121.4061 173.3757 C 121.4061 175.36 119.9847 177.9113 117.1422 177.9113 C 115.1523 177.9113 112.5939 176.2104 112.5939 173.3757 ZM 101.2234 181.313 C 101.2234 179.3287 102.929 177.0609 105.7716 177.0609 C 107.7615 177.0609 110.0355 178.4783 110.0355 181.313 C 110.0355 183.2974 108.6143 185.8487 105.7716 185.8487 C 103.7817 185.8487 101.2234 184.1478 101.2234 181.313 ZM 89.8528 189.2504 C 89.8528 187.2661 91.5583 184.9983 94.401 184.9983 C 96.3909 184.9983 98.6649 186.4156 98.6649 189.2504 C 98.6649 191.2348 97.2437 193.7861 94.401 193.7861 C 92.4111 193.7861 89.8528 192.0852 89.8528 189.2504 ZM 192.1877 140.4922 C 192.1877 138.5078 193.8933 136.24 196.7361 136.24 C 198.7258 136.24 201 137.6574 201 140.4922 C 201 142.4765 199.5786 145.0278 196.7361 145.0278 C 194.7462 145.0278 192.1877 143.327 192.1877 140.4922 ZM 180.8173 148.4296 C 180.8173 146.4452 182.5228 144.1774 185.3655 144.1774 C 187.3553 144.1774 189.6294 145.5948 189.6294 148.4296 C 189.6294 150.4139 188.2081 152.9652 185.3655 152.9652 C 183.3756 152.9652 180.8173 151.2643 180.8173 148.4296 ZM 169.4468 156.367 C 169.4468 154.3826 171.1523 152.1148 173.9949 152.1148 C 175.9847 152.1148 178.2589 153.5322 178.2589 156.367 C 178.2589 158.3513 176.8376 160.9026 173.9949 160.9026 C 172.0051 160.9026 169.4468 159.2017 169.4468 156.367 ZM 158.0762 164.3044 C 158.0762 162.32 159.7817 160.0522 162.6244 160.0522 C 164.6143 160.0522 166.8883 161.4696 166.8883 164.3044 C 166.8883 166.2887 165.467 168.84 162.6244 168.84 C 160.6345 168.84 158.0762 167.1391 158.0762 164.3044 ZM 146.7056 172.2417 C 146.7056 170.2574 148.4111 167.9896 151.2538 167.9896 C 153.2437 167.9896 155.5178 169.407 155.5178 172.2417 C 155.5178 174.2261 154.0964 176.7774 151.2538 176.7774 C 149.2639 176.7774 146.7056 175.0765 146.7056 172.2417 ZM 135.335 180.1791 C 135.335 178.1948 137.0405 175.927 139.8833 175.927 C 141.873 175.927 144.1472 177.3443 144.1472 180.1791 C 144.1472 182.1635 142.7258 184.7148 139.8833 184.7148 C 137.8933 184.7148 135.335 183.0139 135.335 180.1791 ZM 123.9645 188.1165 C 123.9645 186.1322 125.67 183.8643 128.5127 183.8643 C 130.5026 183.8643 132.7766 185.2817 132.7766 188.1165 C 132.7766 190.1009 131.3553 192.6522 128.5127 192.6522 C 126.5228 192.6522 123.9645 190.9513 123.9645 188.1165 ZM 112.5939 196.0539 C 112.5939 194.0696 114.2995 191.8017 117.1422 191.8017 C 119.132 191.8017 121.4061 193.2191 121.4061 196.0539 C 121.4061 198.0383 119.9847 200.5896 117.1422 200.5896 C 115.1523 200.5896 112.5939 198.8887 112.5939 196.0539 ZM 192.1877 163.1704 C 192.1877 161.1861 193.8933 158.9183 196.7361 158.9183 C 198.7258 158.9183 201 160.3356 201 163.1704 C 201 165.1548 199.5786 167.7061 196.7361 167.7061 C 194.7462 167.7061 192.1877 166.0052 192.1877 163.1704 ZM 180.8173 171.1078 C 180.8173 169.1235 182.5228 166.8557 185.3655 166.8557 C 187.3553 166.8557 189.6294 168.273 189.6294 171.1078 C 189.6294 173.0922 188.2081 175.6435 185.3655 175.6435 C 183.3756 175.6435 180.8173 173.9426 180.8173 171.1078 ZM 169.4468 179.0452 C 169.4468 177.0609 171.1523 174.793 173.9949 174.793 C 175.9847 174.793 178.2589 176.2104 178.2589 179.0452 C 178.2589 181.0296 176.8376 183.5809 173.9949 183.5809 C 172.0051 183.5809 169.4468 181.88 169.4468 179.0452 ZM 158.0762 186.9826 C 158.0762 184.9983 159.7817 182.7304 162.6244 182.7304 C 164.6143 182.7304 166.8883 184.1478 166.8883 186.9826 C 166.8883 188.9669 165.467 191.5183 162.6244 191.5183 C 160.6345 191.5183 158.0762 189.8174 158.0762 186.9826 ZM 146.7056 194.92 C 146.7056 192.9357 148.4111 190.6678 151.2538 190.6678 C 153.2437 190.6678 155.5178 192.0852 155.5178 194.92 C 155.5178 196.9043 154.0964 199.4557 151.2538 199.4557 C 149.2639 199.4557 146.7056 197.7548 146.7056 194.92 ZM 135.335 202.8574 C 135.335 200.873 137.0405 198.6052 139.8833 198.6052 C 141.873 198.6052 144.1472 200.0226 144.1472 202.8574 C 144.1472 204.8417 142.7258 207.393 139.8833 207.393 C 137.8933 207.393 135.335 205.6922 135.335 202.8574 ZM 192.1877 185.8487 C 192.1877 183.8643 193.8933 181.5965 196.7361 181.5965 C 198.7258 181.5965 201 183.0139 201 185.8487 C 201 187.833 199.5786 190.3844 196.7361 190.3844 C 194.7462 190.3844 192.1877 188.6835 192.1877 185.8487 ZM 180.8173 193.7861 C 180.8173 191.8017 182.5228 189.5339 185.3655 189.5339 C 187.3553 189.5339 189.6294 190.9513 189.6294 193.7861 C 189.6294 195.7704 188.2081 198.3217 185.3655 198.3217 C 183.3756 198.3217 180.8173 196.6209 180.8173 193.7861 ZM 169.4468 201.7235 C 169.4468 199.7391 171.1523 197.4713 173.9949 197.4713 C 175.9847 197.4713 178.2589 198.8887 178.2589 201.7235 C 178.2589 203.7078 176.8376 206.2591 173.9949 206.2591 C 172.0051 206.2591 169.4468 204.5583 169.4468 201.7235 ZM 158.0762 209.6609 C 158.0762 207.6765 159.7817 205.4087 162.6244 205.4087 C 164.6143 205.4087 166.8883 206.8261 166.8883 209.6609 C 166.8883 211.6452 165.467 214.1965 162.6244 214.1965 C 160.6345 214.1965 158.0762 212.4957 158.0762 209.6609 ZM 192.1877 208.527 C 192.1877 206.5426 193.8933 204.2748 196.7361 204.2748 C 198.7258 204.2748 201 205.6922 201 208.527 C 201 210.5113 199.5786 213.0626 196.7361 213.0626 C 194.7462 213.0626 192.1877 211.3618 192.1877 208.527 ZM 180.8173 216.4644 C 180.8173 214.48 182.5228 212.2122 185.3655 212.2122 C 187.3553 212.2122 189.6294 213.6296 189.6294 216.4644 C 189.6294 218.4487 188.2081 221 185.3655 221 C 183.3756 221 180.8173 219.2991 180.8173 216.4644 Z" fill="#131304"/>
		</g>
	</g>
</svg>