<?xml version="1.0" standalone="no"?>
<!-- Generator: Adobe Fireworks 10, Export SVG Extension by Aaron Beall (http://fireworks.abeall.com) . Version: 0.6.1  -->
<!DOCTYPE svg PUBLIC "-//W3C//DTD SVG 1.1//EN" "http://www.w3.org/Graphics/SVG/1.1/DTD/svg11.dtd">
<svg id="Untitled-Page%201%20Copy" viewBox="0 0 640 1136" style="background-color:#353526" version="1.1"
	xmlns="http://www.w3.org/2000/svg" xmlns:xlink="http://www.w3.org/1999/xlink" xml:space="preserve"
	x="0px" y="0px" width="640px" height="1136px"
>
	<defs>
		<linearGradient id="gradient1" x1="-395%" y1="0%" x2="-395%" y2="100%">
			<stop stop-color="#ff1218" stop-opacity="1" offset="0%"/>
			<stop stop-color="#fff812" stop-opacity="1" offset="100%"/>
		</linearGradient>
		<linearGradient id="gradient2" x1="495%" y1="0%" x2="495%" y2="100%">
			<stop stop-color="#ff1218" stop-opacity="1" offset="0%"/>
			<stop stop-color="#fff812" stop-opacity="1" offset="100%"/>
		</linearGradient>
		<linearGradient id="gradient3" x1="50%" y1="0%" x2="50%" y2="100%">
			<stop stop-color="#b9ff73" stop-opacity="1" offset="0%"/>
			<stop stop-color="#72ffb8" stop-opacity="1" offset="100%"/>
		</linearGradient>
		<linearGradient id="gradient4" x1="50%" y1="0%" x2="50%" y2="100%">
			<stop stop-color="#b9ff73" stop-opacity="1" offset="0%"/>
			<stop stop-color="#72ffb8" stop-opacity="1" offset="100%"/>
		</linearGradient>
		<linearGradient id="gradient5" x1="50%" y1="0%" x2="50%" y2="100%">
			<stop stop-color="#b9ff73" stop-opacity="1" offset="0%"/>
			<stop stop-color="#72ffb8" stop-opacity="1" offset="100%"/>
		</linearGradient>
	</defs>
	<g id="Layer%201">
		<path opacity="0.3412" d="M 590.875 751.9426 C 590.875 721.9426 567.125 696.9426 535.875 696.9426 C 511.125 696.9426 485.125 713.9426 481.125 747.1926 L 481.125 756.6926 C 481.125 757.9426 483.375 767.9426 483.875 769.9426 C 493.125 796.4426 516.875 806.9426 535.875 806.9426 C 566.375 806.9426 590.875 782.4426 590.875 751.9426 ZM 580.875 751.9426 C 580.875 776.9426 560.375 796.6926 535.875 796.6926 C 510.625 796.6926 491.125 776.1926 491.125 751.9426 C 491.125 726.9426 511.375 707.1926 535.875 707.1926 C 561.125 707.1926 580.875 727.4426 580.875 751.9426 ZM 544.375 728.4426 C 542.375 723.1926 539.375 723.9426 536.375 723.9426 C 533.375 723.9426 530.625 723.1926 528.875 727.1926 C 526.875 731.4426 525.125 736.1926 523.375 740.6926 C 521.375 745.6926 519.125 751.4426 516.875 756.6926 C 516.125 758.1926 512.125 767.6926 512.125 769.6926 C 512.125 774.9426 516.625 774.9426 520.125 774.9426 C 528.375 774.9426 527.125 772.9426 531.875 762.9426 L 541.125 762.9426 C 546.375 772.9426 544.125 774.9426 552.625 774.9426 C 554.875 774.9426 560.875 775.4426 560.875 769.6926 C 560.875 767.4426 547.875 736.6926 544.375 728.4426 ZM 490.875 849.9426 C 490.875 819.1926 466.375 794.9426 435.875 794.9426 C 411.125 794.9426 385.125 811.9426 381.125 845.1926 L 381.125 854.6926 C 381.125 856.4426 383.375 866.4426 383.625 867.1926 C 392.875 893.9426 416.375 904.9426 435.875 904.9426 C 466.375 904.9426 490.875 880.4426 490.875 849.9426 ZM 480.875 849.9426 C 480.875 874.9426 460.375 894.6926 435.875 894.6926 C 410.625 894.6926 391.125 874.1926 391.125 849.9426 C 391.125 824.9426 411.375 805.1926 435.875 805.1926 C 461.125 805.1926 480.875 825.4426 480.875 849.9426 ZM 439.625 825.1926 C 436.875 824.9426 431.625 824.9426 430.875 824.9426 C 428.625 824.9426 419.875 824.1926 420.125 829.1926 L 420.125 870.6926 C 420.125 872.6926 423.375 874.6926 424.625 874.9426 L 439.375 874.9426 C 447.875 874.9426 455.875 868.1926 455.875 858.9426 C 455.875 855.6926 455.875 855.1926 453.875 851.4426 C 453.125 849.9426 451.125 847.9426 451.125 847.4426 C 451.125 846.6926 452.125 845.1926 452.125 844.6926 C 452.375 843.1926 452.875 840.6926 452.875 839.9426 C 452.875 833.6926 448.875 826.1926 439.625 825.1926 ZM 436.625 841.1926 C 436.625 841.4426 436.375 841.4426 436.125 841.4426 L 436.125 840.1926 C 436.625 840.4426 436.625 841.1926 436.625 841.1926 ZM 438.125 857.1926 C 439.125 857.6926 439.625 857.9426 439.625 858.4426 C 439.625 858.9426 439.125 859.6926 438.375 859.6926 L 436.125 859.6926 L 436.125 857.1926 L 438.125 857.1926 Z" fill="#000000"/>
		<path opacity="0.3412" d="M 432.875 983.9426 L 350.875 983.9426 C 345.125 983.6926 337.125 990.6926 337.125 996.6926 L 337.125 1001.1926 C 337.125 1006.4426 344.875 1013.9426 350.625 1013.9426 L 356.61 1013.9451 C 354.9795 1015.4011 353.875 1017.4579 353.875 1020.0957 C 353.875 1020.8457 354.375 1022.3457 354.375 1022.8457 C 354.375 1022.8457 352.875 1027.8457 352.875 1028.8457 C 352.875 1033.0957 358.875 1035.3457 362.125 1035.3457 C 365.625 1035.3457 367.125 1033.3457 368.375 1033.3457 C 369.125 1033.3457 370.875 1034.8457 371.875 1035.0957 C 372.375 1035.3457 373.125 1035.3457 373.875 1035.3457 C 374.375 1035.3457 375.375 1035.3457 375.875 1035.0957 C 376.625 1035.0957 377.625 1034.0957 378.375 1034.0957 C 378.875 1034.0957 380.125 1035.0957 380.875 1035.0957 C 381.625 1035.3457 382.375 1035.3457 382.875 1035.3457 C 385.375 1035.3457 384.875 1035.0957 388.625 1033.3457 C 389.875 1035.5957 394.375 1035.3457 396.375 1035.3457 C 396.875 1035.3457 399.375 1035.3457 400.875 1035.0957 C 401.875 1034.8457 403.125 1033.8457 403.625 1033.8457 C 404.375 1033.8457 404.625 1034.5957 405.125 1034.5957 C 406.125 1035.0957 408.125 1035.3457 408.625 1035.3457 C 409.375 1035.3457 411.625 1034.8457 412.375 1034.8457 C 412.875 1034.8457 415.125 1035.3457 415.875 1035.3457 C 423.375 1035.3457 421.375 1029.3457 422.875 1023.3457 C 427.625 1023.3457 428.625 1019.8457 428.625 1016.5957 C 428.625 1015.7689 428.5375 1014.8162 428.1899 1013.9451 L 433.125 1013.9426 C 433.875 1013.9426 435.375 1013.4426 436.125 1013.1926 C 444.375 1010.1926 446.875 1004.4426 446.875 998.9426 C 446.875 991.6926 442.625 985.4426 432.875 983.9426 ZM 432.375 994.1926 C 434.875 993.9426 436.875 997.1926 436.875 998.9426 C 436.875 1000.4426 434.875 1003.6926 432.625 1003.6926 L 351.125 1003.6926 C 348.875 1003.1926 347.125 1000.6926 347.125 998.9426 C 347.125 996.9426 348.875 994.6926 351.375 994.1926 L 432.375 994.1926 Z" fill="#000000"/>
		<path opacity="0.0784" d="M 645 555.0001 L -20 -109.9999 L -18 -158.9999 L 697 556.0001 L 645 555.0001 ZM 645 455.0001 L -20 -210 L -18 -258.9999 L 697 456.0001 L 645 455.0001 ZM 645 1255.0002 L -20 590.0001 L -18 541.0001 L 697 1256.0002 L 645 1255.0002 ZM 645 1455.0002 L -20 790.0001 L -18 741.0001 L 697 1456.0002 L 645 1455.0002 ZM 645 1355.0002 L -20 690.0001 L -18 641.0001 L 697 1356.0002 L 645 1355.0002 ZM 645 1755.0002 L -20 1090.0002 L -18 1041.0002 L 697 1756.0002 L 645 1755.0002 ZM 645 1655.0002 L -20 990.0002 L -18 941.0002 L 697 1656.0002 L 645 1655.0002 ZM 645 1555.0002 L -20 890.0002 L -18 841.0001 L 697 1556.0002 L 645 1555.0002 ZM 645 755.0001 L -20 90.0001 L -18 41.0001 L 697 756.0001 L 645 755.0001 ZM 645 655.0001 L -20 -9.9999 L -18 -58.9999 L 697 656.0001 L 645 655.0001 ZM 645 155.0001 L -20 -510 L -18 -559 L 697 156.0001 L 645 155.0001 ZM 645 55.0001 L -20 -610 L -18 -659 L 697 56.0001 L 645 55.0001 ZM 645 355.0001 L -20 -309.9999 L -18 -359 L 697 356.0001 L 645 355.0001 ZM 645 255.0001 L -20 -410 L -18 -459 L 697 256.0001 L 645 255.0001 ZM 645 955.0002 L -20 290.0001 L -18 241.0001 L 697 956.0002 L 645 955.0002 ZM 645 855.0002 L -20 190.0001 L -18 141.0001 L 697 856.0002 L 645 855.0002 ZM 645 1155.0002 L -20 490.0001 L -18 441.0001 L 697 1156.0002 L 645 1155.0002 ZM 645 1055.0002 L -20 390.0001 L -18 341.0001 L 697 1056.0002 L 645 1055.0002 Z" fill="#000000"/>
		<path opacity="0.3412" d="M 245.955 1013.9451 L 246.77 1013.9451 C 246.6027 1014.2844 246.4706 1014.6655 246.375 1015.0957 C 246.26 1014.6644 246.1187 1014.2827 245.955 1013.9451 ZM 292.875 983.9426 L 210.875 983.9426 C 205.125 983.6926 197.125 990.6926 197.125 996.6926 L 197.125 1001.1926 C 197.125 1005.4426 203.625 1012.6926 207.875 1013.1926 C 208.875 1013.1926 209.875 1013.6926 210.625 1013.9426 L 211.11 1013.9451 C 209.4795 1015.4011 208.375 1017.4579 208.375 1020.0957 C 208.375 1020.8457 208.875 1022.3457 208.875 1022.8457 C 208.875 1022.8457 207.375 1027.8457 207.375 1028.8457 C 207.375 1033.0957 213.375 1035.3457 216.625 1035.3457 C 217.375 1035.3457 220.625 1034.3457 221.125 1034.3457 C 221.875 1034.3457 222.625 1035.0957 223.375 1035.3457 L 259.625 1035.3457 C 260.375 1035.3457 262.125 1033.8457 262.875 1033.8457 C 263.375 1033.8457 267.375 1035.3457 268.875 1035.3457 C 269.625 1035.3457 271.875 1035.0957 273.125 1034.5957 C 274.125 1034.3457 275.625 1033.5957 276.125 1033.5957 C 276.875 1033.5957 278.375 1034.8457 279.375 1035.0957 C 279.875 1035.3457 280.625 1035.3457 281.375 1035.3457 C 289.125 1035.3457 286.875 1029.3457 288.375 1023.3457 C 293.125 1023.3457 294.125 1019.8457 294.125 1016.5957 C 294.125 1015.5972 294.0254 1014.6965 293.61 1013.895 C 294.4054 1013.7648 295.5143 1013.3962 296.125 1013.1926 C 304.375 1010.1926 306.875 1004.4426 306.875 998.9426 C 306.875 991.6926 302.625 985.4426 292.875 983.9426 ZM 292.375 994.1926 C 294.875 994.4426 296.875 996.9426 296.875 998.6926 C 296.875 1000.4426 294.875 1003.6926 292.625 1003.6926 L 211.125 1003.6926 C 208.875 1003.1926 207.125 1000.6926 207.125 998.9426 C 207.125 997.1926 208.875 993.9426 211.375 994.1926 L 292.375 994.1926 Z" fill="#000000"/>
		<path opacity="0.3412" d="M 193.875 694.9426 L 133.875 694.9426 C 130.375 694.4426 124.875 699.4426 125.125 702.6926 L 125.125 760.9426 L 67.375 760.9426 C 64.125 760.9426 59.125 764.9426 59.125 768.6926 L 59.125 831.1926 C 59.125 834.4426 64.375 838.9426 67.375 838.9426 L 125.125 838.9426 L 125.125 897.1926 C 125.125 900.4426 130.375 904.9426 133.375 904.9426 L 194.375 904.9426 C 197.625 904.9426 202.625 900.6926 202.875 896.9426 L 202.875 838.9426 L 260.375 838.9426 C 263.625 838.9426 268.625 834.6926 268.875 830.9426 L 268.875 768.6926 C 268.875 765.1926 263.875 760.6926 260.375 760.9426 L 202.875 760.9426 L 202.875 702.6926 C 202.875 698.9426 197.125 694.4426 193.875 694.9426 ZM 192.875 705.1926 L 192.875 766.4426 C 192.375 768.1926 195.875 771.1926 197.625 771.1926 L 258.875 771.1926 L 258.875 828.6926 L 197.625 828.6926 C 196.125 828.6926 192.875 831.1926 192.875 833.1926 L 192.875 894.6926 L 135.125 894.6926 L 135.125 832.9426 C 134.875 832.1926 132.125 828.6926 130.125 828.6926 L 69.125 828.6926 L 69.125 771.1926 L 130.375 771.1926 C 131.875 771.1926 134.875 768.4426 135.125 766.6926 L 135.125 705.1926 L 192.875 705.1926 ZM 168.125 714.4426 C 167.125 712.6926 165.125 712.1926 163.875 712.1926 C 162.625 712.1926 160.625 712.6926 159.625 714.4426 C 157.125 718.6926 154.875 723.6926 152.625 728.1926 C 150.125 733.1926 147.125 738.6926 144.625 744.1926 C 143.375 746.9426 142.125 748.1926 142.125 750.9426 C 142.125 752.9426 142.875 754.9426 146.125 755.9426 L 181.375 755.9426 C 183.875 755.9426 185.875 752.9426 185.875 750.6926 C 185.875 748.1926 169.875 716.6926 168.125 714.4426 ZM 172.625 745.6926 L 155.375 745.6926 L 163.875 728.6926 L 172.625 745.6926 ZM 189.875 800.9426 C 189.875 786.4426 179.125 775.1926 163.625 775.1926 C 152.375 775.1926 140.625 781.4426 138.125 797.4426 L 138.125 804.6926 C 138.125 805.1926 139.125 809.1926 139.875 811.1926 C 144.875 823.1926 155.375 826.6926 163.875 826.6926 C 177.875 826.6926 189.875 816.4426 189.875 800.9426 ZM 174.625 800.9426 C 174.625 807.1926 169.375 811.6926 163.875 811.6926 C 162.125 811.6926 159.125 810.4426 157.625 809.4426 C 156.375 808.6926 153.375 804.6926 153.375 803.4426 L 153.375 798.6926 C 154.875 792.6926 159.625 790.1926 163.875 790.1926 C 170.125 790.1926 174.625 795.1926 174.625 800.9426 ZM 220.875 781.6926 C 219.125 780.9426 215.875 778.9426 213.875 778.9426 C 212.125 778.9426 209.875 779.6926 209.125 782.9426 L 209.125 818.6926 C 209.125 820.9426 211.875 822.6926 214.125 822.6926 C 214.875 822.6926 215.625 822.4426 216.375 822.1926 C 227.875 816.6926 239.375 810.9426 250.625 804.9426 C 251.875 804.1926 252.875 801.4426 252.875 800.9426 C 252.875 798.9426 252.375 797.6926 250.625 796.6926 C 240.875 790.9426 230.375 786.4426 220.875 781.6926 ZM 236.375 800.9426 L 219.125 809.4426 L 219.125 792.4426 L 236.375 800.9426 ZM 118.875 783.1926 C 118.875 780.6926 115.875 779.1926 113.625 779.1926 C 113.125 779.1926 112.125 779.1926 111.625 779.4426 C 99.875 784.9426 88.625 790.9426 77.375 796.6926 C 75.875 797.4426 75.125 800.1926 75.125 800.9426 C 75.125 802.6926 75.375 803.9426 77.375 804.9426 C 86.875 810.6926 97.125 815.1926 107.125 819.9426 C 108.375 820.6926 111.875 822.9426 113.875 822.9426 C 115.625 822.9426 117.875 821.9426 118.875 818.6926 L 118.875 783.1926 ZM 108.875 809.4426 L 91.625 800.9426 L 108.875 792.4426 L 108.875 809.4426 ZM 181.125 845.9426 L 146.875 845.9426 C 143.875 846.4426 142.125 848.1926 142.125 850.9426 C 142.125 853.4426 158.125 884.9426 159.625 887.4426 C 160.625 888.9426 162.625 889.6926 163.875 889.6926 C 165.125 889.6926 167.125 888.9426 168.125 887.4426 C 170.875 882.6926 173.125 877.6926 175.375 873.1926 C 177.875 867.9426 180.625 862.6926 183.125 857.6926 C 184.625 854.6926 185.875 853.4426 185.875 850.9426 C 185.875 848.4426 184.625 846.4426 181.125 845.9426 ZM 172.625 856.1926 L 164.125 873.1926 L 155.375 856.1926 L 172.625 856.1926 Z" fill="#000000"/>
		<rect opacity="0.2784" x="-10" y="39" width="660" height="592" fill="#000000" rx="5.92" ry="5.92"/>
		<image x="0" y="39" width="640" height="592" xlink:href="portrait.svg.images/image1.png"/>
		<rect x="0" y="47" width="640" height="576" fill="#000000"/>
		<path d="M 411.8438 1013 L 411.5 1016 L 416.2656 1016 L 414.5 1028 L 417.5469 1028 L 419.3125 1016 L 424.1563 1016 L 424.5 1013 L 411.8438 1013 ZM 397.5 1028 L 400.5469 1028 L 401.3906 1022 L 402.1563 1022 C 403.0313 1022 403.6719 1022.1719 404.0781 1022.4844 C 404.4688 1022.8125 405.0313 1023.625 405.75 1024.9063 L 407.25 1028 L 410.5 1028 L 408.1875 1023.2813 C 407.7344 1022.2813 407.2031 1021.6563 406.6094 1021.4063 L 406.6094 1021.3438 C 407.6719 1021.1406 408.4219 1020.6875 408.8594 1019.9844 C 409.2813 1019.2969 409.5 1018.4531 409.5 1017.4688 C 409.5 1016.25 409.0625 1015.2031 408.2031 1014.3281 C 407.3438 1013.4531 406.1406 1013 404.5938 1013 L 399.5938 1013 L 397.5 1028 ZM 403.8594 1016 C 404.6719 1016 405.3281 1016.125 405.7969 1016.375 C 406.2656 1016.625 406.5 1016.9688 406.5 1017.4063 C 406.5 1017.875 406.2188 1018.25 405.6875 1018.5469 C 405.1406 1018.8594 404.375 1019 403.4063 1019 L 401.8125 1019 L 402.2188 1016 L 403.8594 1016 ZM 389.3438 1013 L 381.5 1028 L 384.7969 1028 L 385.8438 1026 L 392.1875 1026 L 392.4375 1028 L 395.5 1028 L 393.6719 1013 L 389.3438 1013 ZM 391 1016.1563 L 391.8281 1023 L 387.4063 1023 L 391 1016.1563 ZM 369.8438 1013 L 369.5 1016 L 374.2656 1016 L 372.5 1028 L 375.5469 1028 L 377.3125 1016 L 382.1563 1016 L 382.5 1013 L 369.8438 1013 ZM 364.0156 1013 C 362.4219 1013 361.1094 1013.4375 360.0625 1014.2813 C 359.0156 1015.125 358.5 1016.1875 358.5 1017.4375 C 358.5 1018.0938 358.6875 1018.7344 359.0781 1019.3438 C 359.4531 1019.9688 360.2656 1020.5938 361.5 1021.2344 C 362.7344 1021.8906 363.5469 1022.3594 363.9219 1022.6563 C 364.2969 1022.9688 364.5 1023.2656 364.5 1023.5625 C 364.5 1024 364.2969 1024.3438 363.8906 1024.6094 C 363.4844 1024.875 362.9688 1025 362.3125 1025 C 361.6875 1025 360.9844 1024.8281 360.1719 1024.4531 C 359.3594 1024.0781 358.6406 1023.5938 357.9844 1023 L 357.5 1026.2344 C 358.9063 1027.4219 360.5781 1028 362.5156 1028 C 364.0313 1028 365.2344 1027.5781 366.1406 1026.7344 C 367.0469 1025.8906 367.5 1024.8125 367.5 1023.5313 C 367.5 1022.8125 367.2813 1022.1094 366.8594 1021.4375 C 366.4375 1020.7656 365.625 1020.1094 364.4063 1019.4688 C 363.1875 1018.8281 362.4063 1018.3906 362.0469 1018.1406 C 361.6719 1017.8906 361.5 1017.6563 361.5 1017.4063 C 361.5 1017 361.7188 1016.6719 362.1719 1016.4063 C 362.6094 1016.1406 363.1719 1016 363.8594 1016 C 364.4375 1016 365.125 1016.0938 365.9219 1016.2813 C 366.7031 1016.4688 367.4063 1016.7188 368 1017 L 368.5 1014.2344 C 367.0938 1013.4219 365.5938 1013 364.0156 1013 ZM 352 986 C 346.4771 986 342 990.4771 342 996 C 342 1001.5229 346.4771 1006 352 1006 L 432 1006 C 437.5229 1006 442 1001.5229 442 996 C 442 990.4771 437.5229 986 432 986 L 352 986 Z" fill="url(#gradient1)"/>
		<path d="M 277.3438 1013 L 277 1016 L 281.7656 1016 L 280 1028 L 283.0469 1028 L 284.8125 1016 L 289.6563 1016 L 290 1013 L 277.3438 1013 ZM 271.8906 1013 C 268.9688 1013 266.5938 1013.7813 264.75 1015.3281 C 262.9063 1016.8906 262 1018.875 262 1021.3125 C 262 1023.3125 262.6719 1024.9219 264.0156 1026.1563 C 265.3594 1027.3906 267.1094 1028 269.2813 1028 C 271 1028 272.7656 1027.5625 274.5469 1026.6875 L 275 1023 C 272.9063 1024.3438 271.0469 1025 269.4063 1025 C 268.0469 1025 266.9688 1024.6719 266.1875 1024 C 265.3906 1023.3438 265 1022.4531 265 1021.3281 C 265 1019.9063 265.5781 1018.6563 266.75 1017.5938 C 267.9063 1016.5313 269.5469 1016 271.6719 1016 C 272.9531 1016 274.2031 1016.3438 275.4531 1017 L 276 1013.6563 C 274.5313 1013.2188 273.1563 1013 271.8906 1013 ZM 251.125 1013 L 249 1028 L 259.6563 1028 L 260 1025 L 252.4688 1025 L 252.8906 1022 L 258.625 1022 L 259 1019 L 253.3281 1019 L 253.75 1016 L 259.6563 1016 L 260 1013 L 251.125 1013 ZM 239.125 1013 L 237 1028 L 246.6563 1028 L 247 1025 L 240.4688 1025 L 242.1719 1013 L 239.125 1013 ZM 226.125 1013 L 224 1028 L 234.6563 1028 L 235 1025 L 227.4688 1025 L 227.8906 1022 L 233.625 1022 L 234 1019 L 228.3281 1019 L 228.75 1016 L 234.6563 1016 L 235 1013 L 226.125 1013 ZM 218.5156 1013 C 216.9219 1013 215.6094 1013.4375 214.5625 1014.2813 C 213.5156 1015.125 213 1016.1875 213 1017.4375 C 213 1018.0938 213.1875 1018.7344 213.5781 1019.3438 C 213.9531 1019.9688 214.7656 1020.5938 216 1021.2344 C 217.2344 1021.8906 218.0469 1022.3594 218.4219 1022.6563 C 218.7969 1022.9688 219 1023.2656 219 1023.5625 C 219 1024 218.7969 1024.3438 218.3906 1024.6094 C 217.9844 1024.875 217.4688 1025 216.8125 1025 C 216.1875 1025 215.4844 1024.8281 214.6719 1024.4531 C 213.8594 1024.0781 213.1406 1023.5938 212.4844 1023 L 212 1026.2344 C 213.4063 1027.4219 215.0781 1028 217.0156 1028 C 218.5313 1028 219.7344 1027.5781 220.6406 1026.7344 C 221.5469 1025.8906 222 1024.8125 222 1023.5313 C 222 1022.8125 221.7813 1022.1094 221.3594 1021.4375 C 220.9375 1020.7656 220.125 1020.1094 218.9063 1019.4688 C 217.6875 1018.8281 216.9063 1018.3906 216.5469 1018.1406 C 216.1719 1017.8906 216 1017.6563 216 1017.4063 C 216 1017 216.2188 1016.6719 216.6719 1016.4063 C 217.1094 1016.1406 217.6719 1016 218.3594 1016 C 218.9375 1016 219.625 1016.0938 220.4219 1016.2813 C 221.2031 1016.4688 221.9063 1016.7188 222.5 1017 L 223 1014.2344 C 221.5938 1013.4219 220.0938 1013 218.5156 1013 ZM 212 986 C 206.4771 986 202 990.4771 202 996 C 202 1001.5229 206.4771 1006 212 1006 L 292 1006 C 297.5229 1006 302 1001.5229 302 996 C 302 990.4771 297.5229 986 292 986 L 212 986 Z" fill="url(#gradient2)"/>
		<path d="M 578.875 748.875 C 578.875 773.375 559.125 791.875 535.875 791.875 C 521.375 791.875 503.625 784.125 495.875 764.625 C 495.625 763.875 493.125 755.125 493.125 752.875 L 493.125 745.125 C 496.875 718.875 516.625 706.125 535.875 706.125 C 560.375 706.125 578.875 725.875 578.875 748.875 ZM 486 749 C 486 776.6146 508.3855 799 536 799 C 563.6145 799 586 776.6146 586 749 C 586 721.3854 563.6145 699 536 699 C 508.3855 699 486 721.3854 486 749 ZM 576.875 748.875 C 576.875 726.375 558.375 708.125 535.875 708.125 C 517.625 708.125 496.625 721.375 495.125 746.625 L 495.125 751.375 C 495.125 754.875 496.625 760.125 497.625 763.375 C 504.625 782.125 522.125 789.875 536.125 789.875 C 558.375 789.875 576.875 771.375 576.875 748.875 ZM 517 767 L 533.6719 726 L 539.3125 726 L 556 767 L 549.5938 767 L 544.7344 755 L 528.2969 755 L 523.4219 767 L 517 767 ZM 530.3438 750 L 542.6406 750 L 536.5 734.8438 L 530.3438 750 Z" fill="url(#gradient3)"/>
		<path d="M 478.875 846.875 C 478.875 871.375 459.125 889.875 435.875 889.875 C 421.875 889.875 404.875 882.875 396.375 863.875 C 396.125 862.875 393.125 853.125 393.125 850.875 L 393.125 843.125 C 396.875 816.875 416.625 804.125 435.875 804.125 C 460.375 804.125 478.875 823.625 478.875 846.875 ZM 386 847 C 386 874.6146 408.3855 897 436 897 C 463.6145 897 486 874.6146 486 847 C 486 819.3854 463.6145 797 436 797 C 408.3855 797 386 819.3854 386 847 ZM 476.875 846.875 C 476.875 824.375 458.375 806.125 435.875 806.125 C 417.625 806.125 396.625 819.375 395.125 844.625 L 395.125 849.375 C 395.125 852.875 396.625 858.125 397.625 861.375 C 404.625 880.125 422.125 887.875 436.125 887.875 C 458.375 887.875 476.875 869.375 476.875 846.875 ZM 445.1094 865.4688 C 443.1719 866.5 440.7656 867 437.8594 867 L 425 867 L 425 827 L 435.0781 827 C 438.25 827 440.7344 827.4531 442.5156 828.3281 C 444.2969 829.2031 445.6563 830.4219 446.5938 831.9531 C 447.5313 833.5 448 835.2813 448 837.3125 C 448 841.2188 445.9688 844 441.9219 845.6875 C 444.6875 846.25 446.8906 847.4688 448.5313 849.3281 C 450.1719 851.2031 451 853.4219 451 856.0156 C 451 858.0781 450.5 859.9063 449.5 861.5156 C 448.5 863.1406 447.0469 864.4531 445.1094 865.4688 ZM 442 837.75 C 442 833.9219 439.7969 832 435.4219 832 L 431 832 L 431 844 L 434.4219 844 C 437.1563 844 439.1094 843.4219 440.2656 842.2656 C 441.4219 841.1094 442 839.5938 442 837.75 ZM 441.3281 849.7656 C 440.1406 849.2656 438.2969 849 435.7656 849 L 431 849 L 431 862 L 436.0313 862 C 438.8125 862 440.6875 861.75 441.6875 861.25 C 442.6875 860.75 443.4844 859.9844 444.0938 858.9219 C 444.6875 857.8594 445 856.7344 445 855.5156 C 445 854.2656 444.6719 853.125 444.0469 852.0938 C 443.4063 851.0625 442.5 850.2813 441.3281 849.7656 Z" fill="url(#gradient4)"/>
		<path d="M 184.875 798.125 C 184.875 810.375 175.125 818.875 163.875 818.875 C 156.375 818.875 147.875 815.125 144.125 805.125 C 143.625 803.875 143.125 801.375 143.125 800.875 L 143.125 795.125 C 145.375 782.125 154.875 777.125 163.875 777.125 C 176.375 777.125 184.875 786.625 184.875 798.125 ZM 181 848 L 164 882 L 147 848 L 181 848 ZM 114 815 L 80 798 L 114 781 L 114 815 ZM 147 748 L 164 714 L 181 748 L 147 748 ZM 214 781 L 248 798 L 214 815 L 214 781 ZM 134.42 697 C 131.9789 697 130 698.9789 130 701.42 L 130 763 L 68.42 763 C 65.9789 763 64 764.9789 64 767.42 L 64 826.58 C 64 829.0211 65.9789 831 68.42 831 L 130 831 L 130 892.58 C 130 895.0211 131.9789 897 134.42 897 L 193.58 897 C 196.0211 897 198 895.0211 198 892.58 L 198 831 L 259.58 831 C 262.0211 831 264 829.0211 264 826.58 L 264 767.42 C 264 764.9789 262.0211 763 259.58 763 L 198 763 L 198 701.42 C 198 698.9789 196.0211 697 193.58 697 L 134.42 697 ZM 179.875 797.875 C 179.875 789.375 173.125 782.125 163.875 782.125 C 157.375 782.125 149.875 786.125 148.125 795.625 L 148.125 800.375 C 148.125 800.875 148.375 801.875 148.625 802.625 C 151.125 810.625 158.375 813.875 163.875 813.875 C 172.375 813.875 179.875 807.125 179.875 797.875 Z" fill="url(#gradient5)"/>
	</g>
</svg>