<?xml version="1.0" standalone="no"?>
<!-- Generator: Adobe Fireworks 10, Export SVG Extension by Aaron Beall (http://fireworks.abeall.com) . Version: 0.6.1  -->
<!DOCTYPE svg PUBLIC "-//W3C//DTD SVG 1.1//EN" "http://www.w3.org/Graphics/SVG/1.1/DTD/svg11.dtd">
<svg id="Untitled-Page%201" viewBox="0 0 110 110" style="background-color:#ffffff00" version="1.1"
	xmlns="http://www.w3.org/2000/svg" xmlns:xlink="http://www.w3.org/1999/xlink" xml:space="preserve"
	x="0px" y="0px" width="110px" height="110px"
>
	<defs>
		<linearGradient id="gradient1" x1="50%" y1="0%" x2="53.4862%" y2="99.9392%">
			<stop stop-color="#b9ff73" stop-opacity="1" offset="0%"/>
			<stop stop-color="#72ffb8" stop-opacity="1" offset="100%"/>
		</linearGradient>
	</defs>
	<g id="Layer%201">
		<path opacity="0.3412" d="M -857.125 -2.0574 L -917.125 -2.0574 C -920.625 -2.5574 -926.125 2.4426 -925.875 5.6926 L -925.875 63.9426 L -983.625 63.9426 C -986.875 63.9426 -991.875 67.9426 -991.875 71.6926 L -991.875 134.1926 C -991.875 137.4426 -986.625 141.9426 -983.625 141.9426 L -925.875 141.9426 L -925.875 200.1926 C -925.875 203.4426 -920.625 207.9426 -917.625 207.9426 L -856.625 207.9426 C -853.375 207.9426 -848.375 203.6926 -848.125 199.9426 L -848.125 141.9426 L -790.625 141.9426 C -787.375 141.9426 -782.375 137.6926 -782.125 133.9426 L -782.125 71.6926 C -782.125 68.1926 -787.125 63.6926 -790.625 63.9426 L -848.125 63.9426 L -848.125 5.6926 C -848.125 1.9426 -853.875 -2.5574 -857.125 -2.0574 ZM -858.125 8.1926 L -858.125 69.4426 C -858.625 71.1926 -855.125 74.1926 -853.375 74.1926 L -792.125 74.1926 L -792.125 131.6926 L -853.375 131.6926 C -854.875 131.6926 -858.125 134.1926 -858.125 136.1926 L -858.125 197.6926 L -915.875 197.6926 L -915.875 135.9426 C -916.125 135.1926 -918.875 131.6926 -920.875 131.6926 L -981.875 131.6926 L -981.875 74.1926 L -920.625 74.1926 C -919.125 74.1926 -916.125 71.4426 -915.875 69.6926 L -915.875 8.1926 L -858.125 8.1926 ZM -882.875 17.4426 C -883.875 15.6926 -885.875 15.1926 -887.125 15.1926 C -888.375 15.1926 -890.375 15.6926 -891.375 17.4426 C -893.875 21.6926 -896.125 26.6926 -898.375 31.1926 C -900.875 36.1926 -903.875 41.6926 -906.375 47.1926 C -907.625 49.9426 -908.875 51.1926 -908.875 53.9426 C -908.875 55.9426 -908.125 57.9426 -904.875 58.9426 L -869.625 58.9426 C -867.125 58.9426 -865.125 55.9426 -865.125 53.6926 C -865.125 51.1926 -881.125 19.6926 -882.875 17.4426 ZM -878.375 48.6926 L -895.625 48.6926 L -887.125 31.6926 L -878.375 48.6926 ZM -861.125 103.9426 C -861.125 89.4426 -871.875 78.1926 -887.375 78.1926 C -898.625 78.1926 -910.375 84.4426 -912.875 100.4426 L -912.875 107.6926 C -912.875 108.1926 -911.875 112.1926 -911.125 114.1926 C -906.125 126.1926 -895.625 129.6926 -887.125 129.6926 C -873.125 129.6926 -861.125 119.4426 -861.125 103.9426 ZM -876.375 103.9426 C -876.375 110.1926 -881.625 114.6926 -887.125 114.6926 C -888.875 114.6926 -891.875 113.4426 -893.375 112.4426 C -894.625 111.6926 -897.625 107.6926 -897.625 106.4426 L -897.625 101.6926 C -896.125 95.6926 -891.375 93.1926 -887.125 93.1926 C -880.875 93.1926 -876.375 98.1926 -876.375 103.9426 ZM -830.125 84.6926 C -831.875 83.9426 -835.125 81.9426 -837.125 81.9426 C -838.875 81.9426 -841.125 82.6926 -841.875 85.9426 L -841.875 121.6926 C -841.875 123.9426 -839.125 125.6926 -836.875 125.6926 C -836.125 125.6926 -835.375 125.4426 -834.625 125.1926 C -823.125 119.6926 -811.625 113.9426 -800.375 107.9426 C -799.125 107.1926 -798.125 104.4426 -798.125 103.9426 C -798.125 101.9426 -798.625 100.6926 -800.375 99.6926 C -810.125 93.9426 -820.625 89.4426 -830.125 84.6926 ZM -814.625 103.9426 L -831.875 112.4426 L -831.875 95.4426 L -814.625 103.9426 ZM -932.125 86.1926 C -932.125 83.6926 -935.125 82.1926 -937.375 82.1926 C -937.875 82.1926 -938.875 82.1926 -939.375 82.4426 C -951.125 87.9426 -962.375 93.9426 -973.625 99.6926 C -975.125 100.4426 -975.875 103.1926 -975.875 103.9426 C -975.875 105.6926 -975.625 106.9426 -973.625 107.9426 C -964.125 113.6926 -953.875 118.1926 -943.875 122.9426 C -942.625 123.6926 -939.125 125.9426 -937.125 125.9426 C -935.375 125.9426 -933.125 124.9426 -932.125 121.6926 L -932.125 86.1926 ZM -942.125 112.4426 L -959.375 103.9426 L -942.125 95.4426 L -942.125 112.4426 ZM -869.875 148.9426 L -904.125 148.9426 C -907.125 149.4426 -908.875 151.1926 -908.875 153.9426 C -908.875 156.4426 -892.875 187.9426 -891.375 190.4426 C -890.375 191.9426 -888.375 192.6926 -887.125 192.6926 C -885.875 192.6926 -883.875 191.9426 -882.875 190.4426 C -880.125 185.6926 -877.875 180.6926 -875.625 176.1926 C -873.125 170.9426 -870.375 165.6926 -867.875 160.6926 C -866.375 157.6926 -865.125 156.4426 -865.125 153.9426 C -865.125 151.4426 -866.375 149.4426 -869.875 148.9426 ZM -878.375 159.1926 L -886.875 176.1926 L -895.625 159.1926 L -878.375 159.1926 ZM 109.875 54.9426 C 109.875 24.9426 86.125 -0.0574 54.875 -0.0574 C 30.125 -0.0574 4.125 16.9426 0.125 50.1926 L 0.125 59.6926 C 0.125 60.9426 2.375 70.9426 2.875 72.9426 C 12.125 99.4426 35.875 109.9426 54.875 109.9426 C 85.375 109.9426 109.875 85.4426 109.875 54.9426 ZM 99.875 54.9426 C 99.875 79.9426 79.375 99.6926 54.875 99.6926 C 29.625 99.6926 10.125 79.1926 10.125 54.9426 C 10.125 29.9426 30.375 10.1926 54.875 10.1926 C 80.125 10.1926 99.875 30.4426 99.875 54.9426 ZM 63.375 31.4426 C 61.375 26.1926 58.375 26.9426 55.375 26.9426 C 52.375 26.9426 49.625 26.1926 47.875 30.1926 C 45.875 34.4426 44.125 39.1926 42.375 43.6926 C 40.375 48.6926 38.125 54.4426 35.875 59.6926 C 35.125 61.1926 31.125 70.6926 31.125 72.6926 C 31.125 77.9426 35.625 77.9426 39.125 77.9426 C 47.375 77.9426 46.125 75.9426 50.875 65.9426 L 60.125 65.9426 C 65.375 75.9426 63.125 77.9426 71.625 77.9426 C 73.875 77.9426 79.875 78.4426 79.875 72.6926 C 79.875 70.4426 66.875 39.6926 63.375 31.4426 ZM 9.875 152.9426 C 9.875 122.1926 -14.625 97.9426 -45.125 97.9426 C -69.875 97.9426 -95.875 114.9426 -99.875 148.1926 L -99.875 157.6926 C -99.875 159.4426 -97.625 169.4426 -97.375 170.1926 C -88.125 196.9426 -64.625 207.9426 -45.125 207.9426 C -14.625 207.9426 9.875 183.4426 9.875 152.9426 ZM -0.125 152.9426 C -0.125 177.9426 -20.625 197.6926 -45.125 197.6926 C -70.375 197.6926 -89.875 177.1926 -89.875 152.9426 C -89.875 127.9426 -69.625 108.1926 -45.125 108.1926 C -19.875 108.1926 -0.125 128.4426 -0.125 152.9426 ZM -41.375 128.1926 C -44.125 127.9426 -49.375 127.9426 -50.125 127.9426 C -52.375 127.9426 -61.125 127.1926 -60.875 132.1926 L -60.875 173.6926 C -60.875 175.6926 -57.625 177.6926 -56.375 177.9426 L -41.625 177.9426 C -33.125 177.9426 -25.125 171.1926 -25.125 161.9426 C -25.125 158.6926 -25.125 158.1926 -27.125 154.4426 C -27.875 152.9426 -29.875 150.9426 -29.875 150.4426 C -29.875 149.6926 -28.875 148.1926 -28.875 147.6926 C -28.625 146.1926 -28.125 143.6926 -28.125 142.9426 C -28.125 136.6926 -32.125 129.1926 -41.375 128.1926 ZM -44.375 144.1926 C -44.375 144.4426 -44.625 144.4426 -44.875 144.4426 L -44.875 143.1926 C -44.375 143.4426 -44.375 144.1926 -44.375 144.1926 ZM -42.875 160.1926 C -41.875 160.6926 -41.375 160.9426 -41.375 161.4426 C -41.375 161.9426 -41.875 162.6926 -42.625 162.6926 L -44.875 162.6926 L -44.875 160.1926 L -42.875 160.1926 ZM -895.045 346.945 L -894.23 346.945 C -894.3973 347.2844 -894.5294 347.6656 -894.625 348.0957 C -894.74 347.6644 -894.8813 347.2828 -895.045 346.945 ZM -848.125 316.9426 L -930.125 316.9426 C -935.875 316.6926 -943.875 323.6926 -943.875 329.6926 L -943.875 334.1926 C -943.875 338.4426 -937.375 345.6926 -933.125 346.1926 C -932.125 346.1926 -931.125 346.6926 -930.375 346.9426 L -929.89 346.945 C -931.5205 348.4012 -932.625 350.4579 -932.625 353.0957 C -932.625 353.8457 -932.125 355.3457 -932.125 355.8457 C -932.125 355.8457 -933.625 360.8457 -933.625 361.8457 C -933.625 366.0957 -927.625 368.3457 -924.375 368.3457 C -923.625 368.3457 -920.375 367.3457 -919.875 367.3457 C -919.125 367.3457 -918.375 368.0957 -917.625 368.3457 L -881.375 368.3457 C -880.625 368.3457 -878.875 366.8457 -878.125 366.8457 C -877.625 366.8457 -873.625 368.3457 -872.125 368.3457 C -871.375 368.3457 -869.125 368.0957 -867.875 367.5957 C -866.875 367.3457 -865.375 366.5957 -864.875 366.5957 C -864.125 366.5957 -862.625 367.8457 -861.625 368.0957 C -861.125 368.3457 -860.375 368.3457 -859.625 368.3457 C -851.875 368.3457 -854.125 362.3457 -852.625 356.3457 C -847.875 356.3457 -846.875 352.8457 -846.875 349.5957 C -846.875 348.5972 -846.9746 347.6965 -847.39 346.895 C -846.5946 346.7648 -845.4857 346.3962 -844.875 346.1926 C -836.625 343.1926 -834.125 337.4426 -834.125 331.9426 C -834.125 324.6926 -838.375 318.4426 -848.125 316.9426 ZM -848.625 327.1926 C -846.125 327.4426 -844.125 329.9426 -844.125 331.6926 C -844.125 333.4426 -846.125 336.6926 -848.375 336.6926 L -929.875 336.6926 C -932.125 336.1926 -933.875 333.6926 -933.875 331.9426 C -933.875 330.1926 -932.125 326.9426 -929.625 327.1926 L -848.625 327.1926 ZM 41.875 316.9426 L -40.125 316.9426 C -45.875 316.6926 -53.875 323.6926 -53.875 329.6926 L -53.875 334.1926 C -53.875 339.4426 -46.125 346.9426 -40.375 346.9426 L -34.39 346.945 C -36.0205 348.4012 -37.125 350.4579 -37.125 353.0957 C -37.125 353.8457 -36.625 355.3457 -36.625 355.8457 C -36.625 355.8457 -38.125 360.8457 -38.125 361.8457 C -38.125 366.0957 -32.125 368.3457 -28.875 368.3457 C -25.375 368.3457 -23.875 366.3457 -22.625 366.3457 C -21.875 366.3457 -20.125 367.8457 -19.125 368.0957 C -18.625 368.3457 -17.875 368.3457 -17.125 368.3457 C -16.625 368.3457 -15.625 368.3457 -15.125 368.0957 C -14.375 368.0957 -13.375 367.0957 -12.625 367.0957 C -12.125 367.0957 -10.875 368.0957 -10.125 368.0957 C -9.375 368.3457 -8.625 368.3457 -8.125 368.3457 C -5.625 368.3457 -6.125 368.0957 -2.375 366.3457 C -1.125 368.5957 3.375 368.3457 5.375 368.3457 C 5.875 368.3457 8.375 368.3457 9.875 368.0957 C 10.875 367.8457 12.125 366.8457 12.625 366.8457 C 13.375 366.8457 13.625 367.5957 14.125 367.5957 C 15.125 368.0957 17.125 368.3457 17.625 368.3457 C 18.375 368.3457 20.625 367.8457 21.375 367.8457 C 21.875 367.8457 24.125 368.3457 24.875 368.3457 C 32.375 368.3457 30.375 362.3457 31.875 356.3457 C 36.625 356.3457 37.625 352.8457 37.625 349.5957 C 37.625 348.7689 37.5375 347.8162 37.1899 346.945 L 42.125 346.9426 C 42.875 346.9426 44.375 346.4426 45.125 346.1926 C 53.375 343.1926 55.875 337.4426 55.875 331.9426 C 55.875 324.6926 51.625 318.4426 41.875 316.9426 ZM 41.375 327.1926 C 43.875 326.9426 45.875 330.1926 45.875 331.9426 C 45.875 333.4426 43.875 336.6926 41.625 336.6926 L -39.875 336.6926 C -42.125 336.1926 -43.875 333.6926 -43.875 331.9426 C -43.875 329.9426 -42.125 327.6926 -39.625 327.1926 L 41.375 327.1926 Z" fill="#000000"/>
		<path d="M 97.875 51.875 C 97.875 76.375 78.125 94.875 54.875 94.875 C 40.375 94.875 22.625 87.125 14.875 67.625 C 14.625 66.875 12.125 58.125 12.125 55.875 L 12.125 48.125 C 15.875 21.875 35.625 9.125 54.875 9.125 C 79.375 9.125 97.875 28.875 97.875 51.875 ZM 5 52 C 5 79.6146 27.3855 102 55 102 C 82.6145 102 105 79.6146 105 52 C 105 24.3854 82.6145 2 55 2 C 27.3855 2 5 24.3854 5 52 ZM 95.875 51.875 C 95.875 29.375 77.375 11.125 54.875 11.125 C 36.625 11.125 15.625 24.375 14.125 49.625 L 14.125 54.375 C 14.125 57.875 15.625 63.125 16.625 66.375 C 23.625 85.125 41.125 92.875 55.125 92.875 C 77.375 92.875 95.875 74.375 95.875 51.875 ZM 36 70 L 52.6719 29 L 58.3125 29 L 75 70 L 68.5938 70 L 63.7344 58 L 47.2969 58 L 42.4219 70 L 36 70 ZM 49.3438 53 L 61.6406 53 L 55.5 37.8438 L 49.3438 53 Z" fill="url(#gradient1)"/>
	</g>
</svg>