<?xml version="1.0" standalone="no"?>
<!-- Generator: Adobe Fireworks 10, Export SVG Extension by Aaron Beall (http://fireworks.abeall.com) . Version: 0.6.1  -->
<!DOCTYPE svg PUBLIC "-//W3C//DTD SVG 1.1//EN" "http://www.w3.org/Graphics/SVG/1.1/DTD/svg11.dtd">
<svg id="Untitled-Page%201" viewBox="0 0 110 110" style="background-color:#ffffff00" version="1.1"
	xmlns="http://www.w3.org/2000/svg" xmlns:xlink="http://www.w3.org/1999/xlink" xml:space="preserve"
	x="0px" y="0px" width="110px" height="110px"
>
	<defs>
		<linearGradient id="gradient1" x1="50%" y1="0%" x2="53.4862%" y2="99.9392%">
			<stop stop-color="#b9ff73" stop-opacity="1" offset="0%"/>
			<stop stop-color="#72ffb8" stop-opacity="1" offset="100%"/>
		</linearGradient>
		<linearGradient id="gradient2" x1="50%" y1="0%" x2="50%" y2="100%">
			<stop stop-color="#b9ff73" stop-opacity="1" offset="0%"/>
			<stop stop-color="#72ffb8" stop-opacity="1" offset="100%"/>
		</linearGradient>
	</defs>
	<g id="Layer%201">
		<path opacity="0.3412" d="M -757.125 -100.0574 L -817.125 -100.0574 C -820.625 -100.5574 -826.125 -95.5574 -825.875 -92.3074 L -825.875 -34.0574 L -883.625 -34.0574 C -886.875 -34.0574 -891.875 -30.0574 -891.875 -26.3074 L -891.875 36.1926 C -891.875 39.4426 -886.625 43.9426 -883.625 43.9426 L -825.875 43.9426 L -825.875 102.1926 C -825.875 105.4426 -820.625 109.9426 -817.625 109.9426 L -756.625 109.9426 C -753.375 109.9426 -748.375 105.6926 -748.125 101.9426 L -748.125 43.9426 L -690.625 43.9426 C -687.375 43.9426 -682.375 39.6926 -682.125 35.9426 L -682.125 -26.3074 C -682.125 -29.8074 -687.125 -34.3074 -690.625 -34.0574 L -748.125 -34.0574 L -748.125 -92.3074 C -748.125 -96.0574 -753.875 -100.5574 -757.125 -100.0574 ZM -758.125 -89.8074 L -758.125 -28.5574 C -758.625 -26.8074 -755.125 -23.8074 -753.375 -23.8074 L -692.125 -23.8074 L -692.125 33.6926 L -753.375 33.6926 C -754.875 33.6926 -758.125 36.1926 -758.125 38.1926 L -758.125 99.6926 L -815.875 99.6926 L -815.875 37.9426 C -816.125 37.1926 -818.875 33.6926 -820.875 33.6926 L -881.875 33.6926 L -881.875 -23.8074 L -820.625 -23.8074 C -819.125 -23.8074 -816.125 -26.5574 -815.875 -28.3074 L -815.875 -89.8074 L -758.125 -89.8074 ZM -782.875 -80.5574 C -783.875 -82.3074 -785.875 -82.8074 -787.125 -82.8074 C -788.375 -82.8074 -790.375 -82.3074 -791.375 -80.5574 C -793.875 -76.3074 -796.125 -71.3074 -798.375 -66.8074 C -800.875 -61.8074 -803.875 -56.3074 -806.375 -50.8074 C -807.625 -48.0574 -808.875 -46.8074 -808.875 -44.0574 C -808.875 -42.0574 -808.125 -40.0574 -804.875 -39.0574 L -769.625 -39.0574 C -767.125 -39.0574 -765.125 -42.0574 -765.125 -44.3074 C -765.125 -46.8074 -781.125 -78.3074 -782.875 -80.5574 ZM -778.375 -49.3074 L -795.625 -49.3074 L -787.125 -66.3074 L -778.375 -49.3074 ZM -761.125 5.9426 C -761.125 -8.5574 -771.875 -19.8074 -787.375 -19.8074 C -798.625 -19.8074 -810.375 -13.5574 -812.875 2.4426 L -812.875 9.6926 C -812.875 10.1926 -811.875 14.1926 -811.125 16.1926 C -806.125 28.1926 -795.625 31.6926 -787.125 31.6926 C -773.125 31.6926 -761.125 21.4426 -761.125 5.9426 ZM -776.375 5.9426 C -776.375 12.1926 -781.625 16.6926 -787.125 16.6926 C -788.875 16.6926 -791.875 15.4426 -793.375 14.4426 C -794.625 13.6926 -797.625 9.6926 -797.625 8.4426 L -797.625 3.6926 C -796.125 -2.3074 -791.375 -4.8074 -787.125 -4.8074 C -780.875 -4.8074 -776.375 0.1926 -776.375 5.9426 ZM -730.125 -13.3074 C -731.875 -14.0574 -735.125 -16.0574 -737.125 -16.0574 C -738.875 -16.0574 -741.125 -15.3074 -741.875 -12.0574 L -741.875 23.6926 C -741.875 25.9426 -739.125 27.6926 -736.875 27.6926 C -736.125 27.6926 -735.375 27.4426 -734.625 27.1926 C -723.125 21.6926 -711.625 15.9426 -700.375 9.9426 C -699.125 9.1926 -698.125 6.4426 -698.125 5.9426 C -698.125 3.9426 -698.625 2.6926 -700.375 1.6926 C -710.125 -4.0574 -720.625 -8.5574 -730.125 -13.3074 ZM -714.625 5.9426 L -731.875 14.4426 L -731.875 -2.5574 L -714.625 5.9426 ZM -832.125 -11.8074 C -832.125 -14.3074 -835.125 -15.8074 -837.375 -15.8074 C -837.875 -15.8074 -838.875 -15.8074 -839.375 -15.5574 C -851.125 -10.0574 -862.375 -4.0574 -873.625 1.6926 C -875.125 2.4426 -875.875 5.1926 -875.875 5.9426 C -875.875 7.6926 -875.625 8.9426 -873.625 9.9426 C -864.125 15.6926 -853.875 20.1926 -843.875 24.9426 C -842.625 25.6926 -839.125 27.9426 -837.125 27.9426 C -835.375 27.9426 -833.125 26.9426 -832.125 23.6926 L -832.125 -11.8074 ZM -842.125 14.4426 L -859.375 5.9426 L -842.125 -2.5574 L -842.125 14.4426 ZM -769.875 50.9426 L -804.125 50.9426 C -807.125 51.4426 -808.875 53.1926 -808.875 55.9426 C -808.875 58.4426 -792.875 89.9426 -791.375 92.4426 C -790.375 93.9426 -788.375 94.6926 -787.125 94.6926 C -785.875 94.6926 -783.875 93.9426 -782.875 92.4426 C -780.125 87.6926 -777.875 82.6926 -775.625 78.1926 C -773.125 72.9426 -770.375 67.6926 -767.875 62.6926 C -766.375 59.6926 -765.125 58.4426 -765.125 55.9426 C -765.125 53.4426 -766.375 51.4426 -769.875 50.9426 ZM -778.375 61.1926 L -786.875 78.1926 L -795.625 61.1926 L -778.375 61.1926 ZM 209.875 -43.0574 C 209.875 -73.0574 186.125 -98.0574 154.875 -98.0574 C 130.125 -98.0574 104.125 -81.0574 100.125 -47.8074 L 100.125 -38.3074 C 100.125 -37.0574 102.375 -27.0574 102.875 -25.0574 C 112.125 1.4426 135.875 11.9426 154.875 11.9426 C 185.375 11.9426 209.875 -12.5574 209.875 -43.0574 ZM 199.875 -43.0574 C 199.875 -18.0574 179.375 1.6926 154.875 1.6926 C 129.625 1.6926 110.125 -18.8074 110.125 -43.0574 C 110.125 -68.0574 130.375 -87.8074 154.875 -87.8074 C 180.125 -87.8074 199.875 -67.5574 199.875 -43.0574 ZM 163.375 -66.5574 C 161.375 -71.8074 158.375 -71.0574 155.375 -71.0574 C 152.375 -71.0574 149.625 -71.8074 147.875 -67.8074 C 145.875 -63.5574 144.125 -58.8074 142.375 -54.3074 C 140.375 -49.3074 138.125 -43.5574 135.875 -38.3074 C 135.125 -36.8074 131.125 -27.3074 131.125 -25.3074 C 131.125 -20.0574 135.625 -20.0574 139.125 -20.0574 C 147.375 -20.0574 146.125 -22.0574 150.875 -32.0574 L 160.125 -32.0574 C 165.375 -22.0574 163.125 -20.0574 171.625 -20.0574 C 173.875 -20.0574 179.875 -19.5574 179.875 -25.3074 C 179.875 -27.5574 166.875 -58.3074 163.375 -66.5574 ZM 109.875 54.9426 C 109.875 24.1926 85.375 -0.0574 54.875 -0.0574 C 30.125 -0.0574 4.125 16.9426 0.125 50.1926 L 0.125 59.6926 C 0.125 61.4426 2.375 71.4426 2.625 72.1926 C 11.875 98.9426 35.375 109.9426 54.875 109.9426 C 85.375 109.9426 109.875 85.4426 109.875 54.9426 ZM 99.875 54.9426 C 99.875 79.9426 79.375 99.6926 54.875 99.6926 C 29.625 99.6926 10.125 79.1926 10.125 54.9426 C 10.125 29.9426 30.375 10.1926 54.875 10.1926 C 80.125 10.1926 99.875 30.4426 99.875 54.9426 ZM 58.625 30.1926 C 55.875 29.9426 50.625 29.9426 49.875 29.9426 C 47.625 29.9426 38.875 29.1926 39.125 34.1926 L 39.125 75.6926 C 39.125 77.6926 42.375 79.6926 43.625 79.9426 L 58.375 79.9426 C 66.875 79.9426 74.875 73.1926 74.875 63.9426 C 74.875 60.6926 74.875 60.1926 72.875 56.4426 C 72.125 54.9426 70.125 52.9426 70.125 52.4426 C 70.125 51.6926 71.125 50.1926 71.125 49.6926 C 71.375 48.1926 71.875 45.6926 71.875 44.9426 C 71.875 38.6926 67.875 31.1926 58.625 30.1926 ZM 55.625 46.1926 C 55.625 46.4426 55.375 46.4426 55.125 46.4426 L 55.125 45.1926 C 55.625 45.4426 55.625 46.1926 55.625 46.1926 ZM 57.125 62.1926 C 58.125 62.6926 58.625 62.9426 58.625 63.4426 C 58.625 63.9426 58.125 64.6926 57.375 64.6926 L 55.125 64.6926 L 55.125 62.1926 L 57.125 62.1926 ZM -795.045 248.945 L -794.23 248.945 C -794.3973 249.2844 -794.5294 249.6656 -794.625 250.0957 C -794.74 249.6644 -794.8813 249.2828 -795.045 248.945 ZM -748.125 218.9426 L -830.125 218.9426 C -835.875 218.6926 -843.875 225.6926 -843.875 231.6926 L -843.875 236.1926 C -843.875 240.4426 -837.375 247.6926 -833.125 248.1926 C -832.125 248.1926 -831.125 248.6926 -830.375 248.9426 L -829.89 248.945 C -831.5205 250.4012 -832.625 252.4579 -832.625 255.0957 C -832.625 255.8457 -832.125 257.3457 -832.125 257.8457 C -832.125 257.8457 -833.625 262.8457 -833.625 263.8457 C -833.625 268.0957 -827.625 270.3457 -824.375 270.3457 C -823.625 270.3457 -820.375 269.3457 -819.875 269.3457 C -819.125 269.3457 -818.375 270.0957 -817.625 270.3457 L -781.375 270.3457 C -780.625 270.3457 -778.875 268.8457 -778.125 268.8457 C -777.625 268.8457 -773.625 270.3457 -772.125 270.3457 C -771.375 270.3457 -769.125 270.0957 -767.875 269.5957 C -766.875 269.3457 -765.375 268.5957 -764.875 268.5957 C -764.125 268.5957 -762.625 269.8457 -761.625 270.0957 C -761.125 270.3457 -760.375 270.3457 -759.625 270.3457 C -751.875 270.3457 -754.125 264.3457 -752.625 258.3457 C -747.875 258.3457 -746.875 254.8457 -746.875 251.5957 C -746.875 250.5972 -746.9746 249.6965 -747.39 248.895 C -746.5946 248.7648 -745.4857 248.3962 -744.875 248.1926 C -736.625 245.1926 -734.125 239.4426 -734.125 233.9426 C -734.125 226.6926 -738.375 220.4426 -748.125 218.9426 ZM -748.625 229.1926 C -746.125 229.4426 -744.125 231.9426 -744.125 233.6926 C -744.125 235.4426 -746.125 238.6926 -748.375 238.6926 L -829.875 238.6926 C -832.125 238.1926 -833.875 235.6926 -833.875 233.9426 C -833.875 232.1926 -832.125 228.9426 -829.625 229.1926 L -748.625 229.1926 ZM 141.875 218.9426 L 59.875 218.9426 C 54.125 218.6926 46.125 225.6926 46.125 231.6926 L 46.125 236.1926 C 46.125 241.4426 53.875 248.9426 59.625 248.9426 L 65.61 248.945 C 63.9795 250.4012 62.875 252.4579 62.875 255.0957 C 62.875 255.8457 63.375 257.3457 63.375 257.8457 C 63.375 257.8457 61.875 262.8457 61.875 263.8457 C 61.875 268.0957 67.875 270.3457 71.125 270.3457 C 74.625 270.3457 76.125 268.3457 77.375 268.3457 C 78.125 268.3457 79.875 269.8457 80.875 270.0957 C 81.375 270.3457 82.125 270.3457 82.875 270.3457 C 83.375 270.3457 84.375 270.3457 84.875 270.0957 C 85.625 270.0957 86.625 269.0957 87.375 269.0957 C 87.875 269.0957 89.125 270.0957 89.875 270.0957 C 90.625 270.3457 91.375 270.3457 91.875 270.3457 C 94.375 270.3457 93.875 270.0957 97.625 268.3457 C 98.875 270.5957 103.375 270.3457 105.375 270.3457 C 105.875 270.3457 108.375 270.3457 109.875 270.0957 C 110.875 269.8457 112.125 268.8457 112.625 268.8457 C 113.375 268.8457 113.625 269.5957 114.125 269.5957 C 115.125 270.0957 117.125 270.3457 117.625 270.3457 C 118.375 270.3457 120.625 269.8457 121.375 269.8457 C 121.875 269.8457 124.125 270.3457 124.875 270.3457 C 132.375 270.3457 130.375 264.3457 131.875 258.3457 C 136.625 258.3457 137.625 254.8457 137.625 251.5957 C 137.625 250.7689 137.5375 249.8162 137.1899 248.945 L 142.125 248.9426 C 142.875 248.9426 144.375 248.4426 145.125 248.1926 C 153.375 245.1926 155.875 239.4426 155.875 233.9426 C 155.875 226.6926 151.625 220.4426 141.875 218.9426 ZM 141.375 229.1926 C 143.875 228.9426 145.875 232.1926 145.875 233.9426 C 145.875 235.4426 143.875 238.6926 141.625 238.6926 L 60.125 238.6926 C 57.875 238.1926 56.125 235.6926 56.125 233.9426 C 56.125 231.9426 57.875 229.6926 60.375 229.1926 L 141.375 229.1926 Z" fill="#000000"/>
		<path d="M 197.875 -46.125 C 197.875 -21.625 178.125 -3.125 154.875 -3.125 C 140.375 -3.125 122.625 -10.875 114.875 -30.375 C 114.625 -31.125 112.125 -39.875 112.125 -42.125 L 112.125 -49.875 C 115.875 -76.125 135.625 -88.875 154.875 -88.875 C 179.375 -88.875 197.875 -69.125 197.875 -46.125 ZM 105 -46 C 105 -18.3854 127.3855 4 155 4 C 182.6145 4 205 -18.3854 205 -46 C 205 -73.6146 182.6145 -96 155 -96 C 127.3855 -96 105 -73.6146 105 -46 ZM 195.875 -46.125 C 195.875 -68.625 177.375 -86.875 154.875 -86.875 C 136.625 -86.875 115.625 -73.625 114.125 -48.375 L 114.125 -43.625 C 114.125 -40.125 115.625 -34.875 116.625 -31.625 C 123.625 -12.875 141.125 -5.125 155.125 -5.125 C 177.375 -5.125 195.875 -23.625 195.875 -46.125 ZM 136 -28 L 152.6719 -69 L 158.3125 -69 L 175 -28 L 168.5938 -28 L 163.7344 -40 L 147.2969 -40 L 142.4219 -28 L 136 -28 ZM 149.3438 -45 L 161.6406 -45 L 155.5 -60.1563 L 149.3438 -45 Z" fill="url(#gradient1)"/>
		<path d="M 97.875 51.875 C 97.875 76.375 78.125 94.875 54.875 94.875 C 40.875 94.875 23.875 87.875 15.375 68.875 C 15.125 67.875 12.125 58.125 12.125 55.875 L 12.125 48.125 C 15.875 21.875 35.625 9.125 54.875 9.125 C 79.375 9.125 97.875 28.625 97.875 51.875 ZM 5 52 C 5 79.6146 27.3855 102 55 102 C 82.6145 102 105 79.6146 105 52 C 105 24.3854 82.6145 2 55 2 C 27.3855 2 5 24.3854 5 52 ZM 95.875 51.875 C 95.875 29.375 77.375 11.125 54.875 11.125 C 36.625 11.125 15.625 24.375 14.125 49.625 L 14.125 54.375 C 14.125 57.875 15.625 63.125 16.625 66.375 C 23.625 85.125 41.125 92.875 55.125 92.875 C 77.375 92.875 95.875 74.375 95.875 51.875 ZM 64.1094 70.4688 C 62.1719 71.5 59.7656 72 56.8594 72 L 44 72 L 44 32 L 54.0781 32 C 57.25 32 59.7344 32.4531 61.5156 33.3281 C 63.2969 34.2031 64.6563 35.4219 65.5938 36.9531 C 66.5313 38.5 67 40.2813 67 42.3125 C 67 46.2188 64.9688 49 60.9219 50.6875 C 63.6875 51.25 65.8906 52.4688 67.5313 54.3281 C 69.1719 56.2031 70 58.4219 70 61.0156 C 70 63.0781 69.5 64.9063 68.5 66.5156 C 67.5 68.1406 66.0469 69.4531 64.1094 70.4688 ZM 61 42.75 C 61 38.9219 58.7969 37 54.4219 37 L 50 37 L 50 49 L 53.4219 49 C 56.1563 49 58.1094 48.4219 59.2656 47.2656 C 60.4219 46.1094 61 44.5938 61 42.75 ZM 60.3281 54.7656 C 59.1406 54.2656 57.2969 54 54.7656 54 L 50 54 L 50 67 L 55.0313 67 C 57.8125 67 59.6875 66.75 60.6875 66.25 C 61.6875 65.75 62.4844 64.9844 63.0938 63.9219 C 63.6875 62.8594 64 61.7344 64 60.5156 C 64 59.2656 63.6719 58.125 63.0469 57.0938 C 62.4063 56.0625 61.5 55.2813 60.3281 54.7656 Z" fill="url(#gradient2)"/>
	</g>
</svg>