<?xml version="1.0" standalone="no"?>
<!-- Generator: Adobe Fireworks 10, Export SVG Extension by Aaron Beall (http://fireworks.abeall.com) . Version: 0.6.1  -->
<!DOCTYPE svg PUBLIC "-//W3C//DTD SVG 1.1//EN" "http://www.w3.org/Graphics/SVG/1.1/DTD/svg11.dtd">
<svg id="Untitled-Page%201" viewBox="0 0 50 50" style="background-color:#ffffff00" version="1.1"
	xmlns="http://www.w3.org/2000/svg" xmlns:xlink="http://www.w3.org/1999/xlink" xml:space="preserve"
	x="0px" y="0px" width="50px" height="50px"
>
	<g id="Layer%201">
		<rect x="0" y="0" width="50" height="50" fill="#353526"/>
		<path opacity="0.0784" d="M 291 -9 L 623.5 323.5 L 648 322.5 L 290.5 -35 L 291 -9 ZM 341 -9 L 673.5 323.5 L 698 322.5 L 340.5 -35 L 341 -9 ZM -59 -9 L 273.5 323.5 L 298 322.5 L -59.5 -35 L -59 -9 ZM -159 -9 L 173.5 323.5 L 198 322.5 L -159.5 -35 L -159 -9 ZM -109 -9 L 223.5 323.5 L 248 322.5 L -109.5 -35 L -109 -9 ZM -309 -9 L 23.5 323.5 L 48 322.5 L -309.5 -35 L -309 -9 ZM -259 -9 L 73.5 323.5 L 98 322.5 L -259.5 -35 L -259 -9 ZM -209 -9 L 123.5 323.5 L 148 322.5 L -209.5 -35 L -209 -9 ZM 191 -9 L 523.5 323.5 L 548 322.5 L 190.5 -35 L 191 -9 ZM 241 -9 L 573.5 323.5 L 598 322.5 L 240.5 -35 L 241 -9 ZM 491 -9 L 823.5 323.5 L 848 322.5 L 490.5 -35 L 491 -9 ZM 541 -9 L 873.5 323.5 L 898 322.5 L 540.5 -35 L 541 -9 ZM 391 -9 L 723.5 323.5 L 748 322.5 L 390.5 -35 L 391 -9 ZM 441 -9 L 773.5 323.5 L 798 322.5 L 440.5 -35 L 441 -9 ZM 91 -9 L 423.5 323.5 L 448 322.5 L 90.5 -35 L 91 -9 ZM 141 -9 L 473.5 323.5 L 498 322.5 L 140.5 -35 L 141 -9 ZM -9 -9 L 323.5 323.5 L 348 322.5 L -9.5 -35 L -9 -9 ZM 41 -9 L 373.5 323.5 L 398 322.5 L 40.5 -35 L 41 -9 Z" fill="#000000"/>
	</g>
</svg>