<?xml version="1.0" standalone="no"?>
<!-- Generator: Adobe Fireworks 10, Export SVG Extension by Aaron Beall (http://fireworks.abeall.com) . Version: 0.6.1  -->
<!DOCTYPE svg PUBLIC "-//W3C//DTD SVG 1.1//EN" "http://www.w3.org/Graphics/SVG/1.1/DTD/svg11.dtd">
<svg id="Untitled-Page%201" viewBox="0 0 210 210" style="background-color:#ffffff00" version="1.1"
	xmlns="http://www.w3.org/2000/svg" xmlns:xlink="http://www.w3.org/1999/xlink" xml:space="preserve"
	x="0px" y="0px" width="210px" height="210px"
>
	<defs>
		<linearGradient id="gradient1" x1="50%" y1="0%" x2="50%" y2="100%">
			<stop stop-color="#b9ff73" stop-opacity="1" offset="0%"/>
			<stop stop-color="#72ffb8" stop-opacity="1" offset="100%"/>
		</linearGradient>
	</defs>
	<g id="Layer%201">
		<path opacity="0.3412" d="M 134.875 -0.0574 L 74.875 -0.0574 C 71.375 -0.5574 65.875 4.4426 66.125 7.6926 L 66.125 65.9426 L 8.375 65.9426 C 5.125 65.9426 0.125 69.9426 0.125 73.6926 L 0.125 136.1926 C 0.125 139.4426 5.375 143.9426 8.375 143.9426 L 66.125 143.9426 L 66.125 202.1926 C 66.125 205.4426 71.375 209.9426 74.375 209.9426 L 135.375 209.9426 C 138.625 209.9426 143.625 205.6926 143.875 201.9426 L 143.875 143.9426 L 201.375 143.9426 C 204.625 143.9426 209.625 139.6926 209.875 135.9426 L 209.875 73.6926 C 209.875 70.1926 204.875 65.6926 201.375 65.9426 L 143.875 65.9426 L 143.875 7.6926 C 143.875 3.9426 138.125 -0.5574 134.875 -0.0574 ZM 133.875 10.1926 L 133.875 71.4426 C 133.375 73.1926 136.875 76.1926 138.625 76.1926 L 199.875 76.1926 L 199.875 133.6926 L 138.625 133.6926 C 137.125 133.6926 133.875 136.1926 133.875 138.1926 L 133.875 199.6926 L 76.125 199.6926 L 76.125 137.9426 C 75.875 137.1926 73.125 133.6926 71.125 133.6926 L 10.125 133.6926 L 10.125 76.1926 L 71.375 76.1926 C 72.875 76.1926 75.875 73.4426 76.125 71.6926 L 76.125 10.1926 L 133.875 10.1926 ZM 109.125 19.4426 C 108.125 17.6926 106.125 17.1926 104.875 17.1926 C 103.625 17.1926 101.625 17.6926 100.625 19.4426 C 98.125 23.6926 95.875 28.6926 93.625 33.1926 C 91.125 38.1926 88.125 43.6926 85.625 49.1926 C 84.375 51.9426 83.125 53.1926 83.125 55.9426 C 83.125 57.9426 83.875 59.9426 87.125 60.9426 L 122.375 60.9426 C 124.875 60.9426 126.875 57.9426 126.875 55.6926 C 126.875 53.1926 110.875 21.6926 109.125 19.4426 ZM 113.625 50.6926 L 96.375 50.6926 L 104.875 33.6926 L 113.625 50.6926 ZM 130.875 105.9426 C 130.875 91.4426 120.125 80.1926 104.625 80.1926 C 93.375 80.1926 81.625 86.4426 79.125 102.4426 L 79.125 109.6926 C 79.125 110.1926 80.125 114.1926 80.875 116.1926 C 85.875 128.1926 96.375 131.6926 104.875 131.6926 C 118.875 131.6926 130.875 121.4426 130.875 105.9426 ZM 115.625 105.9426 C 115.625 112.1926 110.375 116.6926 104.875 116.6926 C 103.125 116.6926 100.125 115.4426 98.625 114.4426 C 97.375 113.6926 94.375 109.6926 94.375 108.4426 L 94.375 103.6926 C 95.875 97.6926 100.625 95.1926 104.875 95.1926 C 111.125 95.1926 115.625 100.1926 115.625 105.9426 ZM 161.875 86.6926 C 160.125 85.9426 156.875 83.9426 154.875 83.9426 C 153.125 83.9426 150.875 84.6926 150.125 87.9426 L 150.125 123.6926 C 150.125 125.9426 152.875 127.6926 155.125 127.6926 C 155.875 127.6926 156.625 127.4426 157.375 127.1926 C 168.875 121.6926 180.375 115.9426 191.625 109.9426 C 192.875 109.1926 193.875 106.4426 193.875 105.9426 C 193.875 103.9426 193.375 102.6926 191.625 101.6926 C 181.875 95.9426 171.375 91.4426 161.875 86.6926 ZM 177.375 105.9426 L 160.125 114.4426 L 160.125 97.4426 L 177.375 105.9426 ZM 59.875 88.1926 C 59.875 85.6926 56.875 84.1926 54.625 84.1926 C 54.125 84.1926 53.125 84.1926 52.625 84.4426 C 40.875 89.9426 29.625 95.9426 18.375 101.6926 C 16.875 102.4426 16.125 105.1926 16.125 105.9426 C 16.125 107.6926 16.375 108.9426 18.375 109.9426 C 27.875 115.6926 38.125 120.1926 48.125 124.9426 C 49.375 125.6926 52.875 127.9426 54.875 127.9426 C 56.625 127.9426 58.875 126.9426 59.875 123.6926 L 59.875 88.1926 ZM 49.875 114.4426 L 32.625 105.9426 L 49.875 97.4426 L 49.875 114.4426 ZM 122.125 150.9426 L 87.875 150.9426 C 84.875 151.4426 83.125 153.1926 83.125 155.9426 C 83.125 158.4426 99.125 189.9426 100.625 192.4426 C 101.625 193.9426 103.625 194.6926 104.875 194.6926 C 106.125 194.6926 108.125 193.9426 109.125 192.4426 C 111.875 187.6926 114.125 182.6926 116.375 178.1926 C 118.875 172.9426 121.625 167.6926 124.125 162.6926 C 125.625 159.6926 126.875 158.4426 126.875 155.9426 C 126.875 153.4426 125.625 151.4426 122.125 150.9426 ZM 113.625 161.1926 L 105.125 178.1926 L 96.375 161.1926 L 113.625 161.1926 ZM 1101.875 56.9426 C 1101.875 26.9426 1078.125 1.9426 1046.875 1.9426 C 1022.125 1.9426 996.125 18.9426 992.125 52.1926 L 992.125 61.6926 C 992.125 62.9426 994.375 72.9426 994.875 74.9426 C 1004.125 101.4426 1027.875 111.9426 1046.875 111.9426 C 1077.375 111.9426 1101.875 87.4426 1101.875 56.9426 ZM 1091.875 56.9426 C 1091.875 81.9426 1071.375 101.6926 1046.875 101.6926 C 1021.625 101.6926 1002.125 81.1926 1002.125 56.9426 C 1002.125 31.9426 1022.375 12.1926 1046.875 12.1926 C 1072.125 12.1926 1091.875 32.4426 1091.875 56.9426 ZM 1055.375 33.4426 C 1053.375 28.1926 1050.375 28.9426 1047.375 28.9426 C 1044.375 28.9426 1041.625 28.1926 1039.875 32.1926 C 1037.875 36.4426 1036.125 41.1926 1034.375 45.6926 C 1032.375 50.6926 1030.125 56.4426 1027.875 61.6926 C 1027.125 63.1926 1023.125 72.6926 1023.125 74.6926 C 1023.125 79.9426 1027.625 79.9426 1031.125 79.9426 C 1039.375 79.9426 1038.125 77.9426 1042.875 67.9426 L 1052.125 67.9426 C 1057.375 77.9426 1055.125 79.9426 1063.625 79.9426 C 1065.875 79.9426 1071.875 80.4426 1071.875 74.6926 C 1071.875 72.4426 1058.875 41.6926 1055.375 33.4426 ZM 1001.875 154.9426 C 1001.875 124.1926 977.375 99.9426 946.875 99.9426 C 922.125 99.9426 896.125 116.9426 892.125 150.1926 L 892.125 159.6926 C 892.125 161.4426 894.375 171.4426 894.625 172.1926 C 903.875 198.9426 927.375 209.9426 946.875 209.9426 C 977.375 209.9426 1001.875 185.4426 1001.875 154.9426 ZM 991.875 154.9426 C 991.875 179.9426 971.375 199.6926 946.875 199.6926 C 921.625 199.6926 902.125 179.1926 902.125 154.9426 C 902.125 129.9426 922.375 110.1926 946.875 110.1926 C 972.125 110.1926 991.875 130.4426 991.875 154.9426 ZM 950.625 130.1926 C 947.875 129.9426 942.625 129.9426 941.875 129.9426 C 939.625 129.9426 930.875 129.1926 931.125 134.1926 L 931.125 175.6926 C 931.125 177.6926 934.375 179.6926 935.625 179.9426 L 950.375 179.9426 C 958.875 179.9426 966.875 173.1926 966.875 163.9426 C 966.875 160.6926 966.875 160.1926 964.875 156.4426 C 964.125 154.9426 962.125 152.9426 962.125 152.4426 C 962.125 151.6926 963.125 150.1926 963.125 149.6926 C 963.375 148.1926 963.875 145.6926 963.875 144.9426 C 963.875 138.6926 959.875 131.1926 950.625 130.1926 ZM 947.625 146.1926 C 947.625 146.4426 947.375 146.4426 947.125 146.4426 L 947.125 145.1926 C 947.625 145.4426 947.625 146.1926 947.625 146.1926 ZM 949.125 162.1926 C 950.125 162.6926 950.625 162.9426 950.625 163.4426 C 950.625 163.9426 950.125 164.6926 949.375 164.6926 L 947.125 164.6926 L 947.125 162.1926 L 949.125 162.1926 ZM 96.955 348.945 L 97.77 348.945 C 97.6026 349.2844 97.4706 349.6656 97.375 350.0957 C 97.26 349.6644 97.1187 349.2828 96.955 348.945 ZM 143.875 318.9426 L 61.875 318.9426 C 56.125 318.6926 48.125 325.6926 48.125 331.6926 L 48.125 336.1926 C 48.125 340.4426 54.625 347.6926 58.875 348.1926 C 59.875 348.1926 60.875 348.6926 61.625 348.9426 L 62.11 348.945 C 60.4795 350.4012 59.375 352.4579 59.375 355.0957 C 59.375 355.8457 59.875 357.3457 59.875 357.8457 C 59.875 357.8457 58.375 362.8457 58.375 363.8457 C 58.375 368.0957 64.375 370.3457 67.625 370.3457 C 68.375 370.3457 71.625 369.3457 72.125 369.3457 C 72.875 369.3457 73.625 370.0957 74.375 370.3457 L 110.625 370.3457 C 111.375 370.3457 113.125 368.8457 113.875 368.8457 C 114.375 368.8457 118.375 370.3457 119.875 370.3457 C 120.625 370.3457 122.875 370.0957 124.125 369.5957 C 125.125 369.3457 126.625 368.5957 127.125 368.5957 C 127.875 368.5957 129.375 369.8457 130.375 370.0957 C 130.875 370.3457 131.625 370.3457 132.375 370.3457 C 140.125 370.3457 137.875 364.3457 139.375 358.3457 C 144.125 358.3457 145.125 354.8457 145.125 351.5957 C 145.125 350.5972 145.0254 349.6965 144.61 348.895 C 145.4054 348.7648 146.5144 348.3962 147.125 348.1926 C 155.375 345.1926 157.875 339.4426 157.875 333.9426 C 157.875 326.6926 153.625 320.4426 143.875 318.9426 ZM 143.375 329.1926 C 145.875 329.4426 147.875 331.9426 147.875 333.6926 C 147.875 335.4426 145.875 338.6926 143.625 338.6926 L 62.125 338.6926 C 59.875 338.1926 58.125 335.6926 58.125 333.9426 C 58.125 332.1926 59.875 328.9426 62.375 329.1926 L 143.375 329.1926 ZM 1033.875 318.9426 L 951.875 318.9426 C 946.125 318.6926 938.125 325.6926 938.125 331.6926 L 938.125 336.1926 C 938.125 341.4426 945.875 348.9426 951.625 348.9426 L 957.61 348.945 C 955.9795 350.4012 954.875 352.4579 954.875 355.0957 C 954.875 355.8457 955.375 357.3457 955.375 357.8457 C 955.375 357.8457 953.875 362.8457 953.875 363.8457 C 953.875 368.0957 959.875 370.3457 963.125 370.3457 C 966.625 370.3457 968.125 368.3457 969.375 368.3457 C 970.125 368.3457 971.875 369.8457 972.875 370.0957 C 973.375 370.3457 974.125 370.3457 974.875 370.3457 C 975.375 370.3457 976.375 370.3457 976.875 370.0957 C 977.625 370.0957 978.625 369.0957 979.375 369.0957 C 979.875 369.0957 981.125 370.0957 981.875 370.0957 C 982.625 370.3457 983.375 370.3457 983.875 370.3457 C 986.375 370.3457 985.875 370.0957 989.625 368.3457 C 990.875 370.5957 995.375 370.3457 997.375 370.3457 C 997.875 370.3457 1000.375 370.3457 1001.875 370.0957 C 1002.875 369.8457 1004.125 368.8457 1004.625 368.8457 C 1005.375 368.8457 1005.625 369.5957 1006.125 369.5957 C 1007.125 370.0957 1009.125 370.3457 1009.625 370.3457 C 1010.375 370.3457 1012.625 369.8457 1013.375 369.8457 C 1013.875 369.8457 1016.125 370.3457 1016.875 370.3457 C 1024.375 370.3457 1022.375 364.3457 1023.875 358.3457 C 1028.625 358.3457 1029.625 354.8457 1029.625 351.5957 C 1029.625 350.7689 1029.5375 349.8162 1029.1899 348.945 L 1034.125 348.9426 C 1034.875 348.9426 1036.375 348.4426 1037.125 348.1926 C 1045.375 345.1926 1047.875 339.4426 1047.875 333.9426 C 1047.875 326.6926 1043.625 320.4426 1033.875 318.9426 ZM 1033.375 329.1926 C 1035.875 328.9426 1037.875 332.1926 1037.875 333.9426 C 1037.875 335.4426 1035.875 338.6926 1033.625 338.6926 L 952.125 338.6926 C 949.875 338.1926 948.125 335.6926 948.125 333.9426 C 948.125 331.9426 949.875 329.6926 952.375 329.1926 L 1033.375 329.1926 Z" fill="#000000"/>
		<path d="M 125.875 103.125 C 125.875 115.375 116.125 123.875 104.875 123.875 C 97.375 123.875 88.875 120.125 85.125 110.125 C 84.625 108.875 84.125 106.375 84.125 105.875 L 84.125 100.125 C 86.375 87.125 95.875 82.125 104.875 82.125 C 117.375 82.125 125.875 91.625 125.875 103.125 ZM 122 153 L 105 187 L 88 153 L 122 153 ZM 55 120 L 21 103 L 55 86 L 55 120 ZM 88 53 L 105 19 L 122 53 L 88 53 ZM 155 86 L 189 103 L 155 120 L 155 86 ZM 75.42 2 C 72.9789 2 71 3.9789 71 6.42 L 71 68 L 9.42 68 C 6.9789 68 5 69.9789 5 72.42 L 5 131.58 C 5 134.0211 6.9789 136 9.42 136 L 71 136 L 71 197.58 C 71 200.0211 72.9789 202 75.42 202 L 134.58 202 C 137.0211 202 139 200.0211 139 197.58 L 139 136 L 200.58 136 C 203.0211 136 205 134.0211 205 131.58 L 205 72.42 C 205 69.9789 203.0211 68 200.58 68 L 139 68 L 139 6.42 C 139 3.9789 137.0211 2 134.58 2 L 75.42 2 ZM 120.875 102.875 C 120.875 94.375 114.125 87.125 104.875 87.125 C 98.375 87.125 90.875 91.125 89.125 100.625 L 89.125 105.375 C 89.125 105.875 89.375 106.875 89.625 107.625 C 92.125 115.625 99.375 118.875 104.875 118.875 C 113.375 118.875 120.875 112.125 120.875 102.875 Z" fill="url(#gradient1)"/>
	</g>
</svg>