<?xml version="1.0" standalone="no"?>
<!-- Generator: Adobe Fireworks 10, Export SVG Extension by Aaron Beall (http://fireworks.abeall.com) . Version: 0.6.1  -->
<!DOCTYPE svg PUBLIC "-//W3C//DTD SVG 1.1//EN" "http://www.w3.org/Graphics/SVG/1.1/DTD/svg11.dtd">
<svg id="Untitled-Page%201" viewBox="0 0 100 100" style="background-color:#ffffff00" version="1.1"
	xmlns="http://www.w3.org/2000/svg" xmlns:xlink="http://www.w3.org/1999/xlink" xml:space="preserve"
	x="0px" y="0px" width="100px" height="100px"
>
	<g id="Layer%201">
		<g opacity="0.149">
			<path d="M 22.0577 50.0056 C 22.0577 34.6623 34.5203 22.2247 49.8943 22.2247 C 65.2682 22.2247 77.7308 34.6623 77.7308 50.0056 C 77.7308 65.3488 65.2682 77.7864 49.8943 77.7864 C 34.5203 77.7864 22.0577 65.3488 22.0577 50.0056 ZM 8.8854 78.7531 C 10.9757 81.7173 13.3849 84.4454 16.0562 86.8874 L 24.1064 79.1644 C 26.5102 81.2834 29.1805 83.1066 32.0566 84.587 L 26.3891 94.1771 C 30.2306 96.217 34.3713 97.7773 38.7262 98.7664 L 41.6324 88.0209 C 44.2952 88.5947 47.059 88.8988 49.8943 88.8988 L 51.0077 88.8876 L 51.0077 100 C 55.012 99.9129 58.902 99.3611 62.6211 98.3888 L 59.8485 87.6207 C 62.8571 86.8299 65.723 85.6863 68.4001 84.2428 L 73.9674 93.8771 C 77.759 91.7973 81.252 89.2363 84.3669 86.2873 L 76.4504 78.4753 C 78.7437 76.3431 80.782 73.9343 82.5076 71.3078 L 92.1835 76.8195 C 94.6375 72.9763 96.5846 68.7807 97.9177 64.3181 L 87.1952 61.2956 C 88.108 58.2875 88.6664 55.1271 88.8208 51.8612 L 99.9666 51.9613 C 99.9916 51.3116 100 50.6613 100 50.0056 C 100 46.193 99.5737 42.483 98.7642 38.9155 L 87.9746 41.6713 C 87.2743 38.4635 86.1742 35.4054 84.7345 32.5481 L 94.4884 27.1808 C 92.3689 23.0657 89.6915 19.2776 86.5604 15.9238 L 78.655 23.7581 C 76.2743 21.1623 73.5417 18.8891 70.5378 17.0131 L 76.0718 7.3562 C 72.0906 4.9165 67.7363 3.0125 63.1221 1.7556 L 60.3052 12.5125 C 56.9921 11.598 53.4989 11.1124 49.8943 11.1124 L 49.8943 0 C 44.9158 0 40.1036 0.7292 35.5638 2.0779 L 38.3367 12.8459 C 34.826 13.9319 31.5236 15.496 28.5159 17.4686 L 22.9485 7.8343 C 18.9095 10.4078 15.2647 13.5453 12.1256 17.1352 L 20.0535 24.9694 C 17.8176 27.623 15.931 30.582 14.4639 33.7703 L 4.7656 28.2364 C 2.7814 32.3292 1.3407 36.738 0.5344 41.3601 L 11.324 44.3938 C 11.0594 46.225 10.9231 48.1008 10.9231 50.0056 C 10.9231 51.6276 11.0192 53.225 11.2126 54.795 L 0 54.6949 C 0.4252 59.2758 1.4719 63.6819 3.0508 67.8187 L 13.9406 65.0295 C 15.1918 68.0045 16.8018 70.7967 18.7173 73.3415 L 8.8854 78.7531 Z" fill="#b7ff75"/>
			<path id="Ellipse" d="M 33.1924 50.0056 C 33.1924 40.7996 40.6699 33.337 49.8943 33.337 C 59.1187 33.337 66.5962 40.7996 66.5962 50.0056 C 66.5962 59.2115 59.1187 66.6741 49.8943 66.6741 C 40.6699 66.6741 33.1924 59.2115 33.1924 50.0056 Z" fill="#b7ff75"/>
		</g>
	</g>
</svg>