<?xml version="1.0" standalone="no"?>
<!-- Generator: Adobe Fireworks 10, Export SVG Extension by Aaron Beall (http://fireworks.abeall.com) . Version: 0.6.1  -->
<!DOCTYPE svg PUBLIC "-//W3C//DTD SVG 1.1//EN" "http://www.w3.org/Graphics/SVG/1.1/DTD/svg11.dtd">
<svg id="Untitled-Page%201" viewBox="0 0 110 52" style="background-color:#ffffff00" version="1.1"
	xmlns="http://www.w3.org/2000/svg" xmlns:xlink="http://www.w3.org/1999/xlink" xml:space="preserve"
	x="0px" y="0px" width="110px" height="52px"
>
	<defs>
		<linearGradient id="gradient1" x1="50%" y1="0%" x2="50%" y2="100%">
			<stop stop-color="#ff1218" stop-opacity="1" offset="0%"/>
			<stop stop-color="#fff812" stop-opacity="1" offset="100%"/>
		</linearGradient>
	</defs>
	<g id="Layer%201">
		<path opacity="0.3412" d="M 86.875 -319.0574 L 26.875 -319.0574 C 23.375 -319.5574 17.875 -314.5574 18.125 -311.3074 L 18.125 -253.0574 L -39.625 -253.0574 C -42.875 -253.0574 -47.875 -249.0574 -47.875 -245.3074 L -47.875 -182.8074 C -47.875 -179.5574 -42.625 -175.0574 -39.625 -175.0574 L 18.125 -175.0574 L 18.125 -116.8074 C 18.125 -113.5574 23.375 -109.0574 26.375 -109.0574 L 87.375 -109.0574 C 90.625 -109.0574 95.625 -113.3074 95.875 -117.0574 L 95.875 -175.0574 L 153.375 -175.0574 C 156.625 -175.0574 161.625 -179.3074 161.875 -183.0574 L 161.875 -245.3074 C 161.875 -248.8074 156.875 -253.3074 153.375 -253.0574 L 95.875 -253.0574 L 95.875 -311.3074 C 95.875 -315.0574 90.125 -319.5574 86.875 -319.0574 ZM 85.875 -308.8074 L 85.875 -247.5574 C 85.375 -245.8074 88.875 -242.8074 90.625 -242.8074 L 151.875 -242.8074 L 151.875 -185.3074 L 90.625 -185.3074 C 89.125 -185.3074 85.875 -182.8074 85.875 -180.8074 L 85.875 -119.3074 L 28.125 -119.3074 L 28.125 -181.0574 C 27.875 -181.8074 25.125 -185.3074 23.125 -185.3074 L -37.875 -185.3074 L -37.875 -242.8074 L 23.375 -242.8074 C 24.875 -242.8074 27.875 -245.5574 28.125 -247.3074 L 28.125 -308.8074 L 85.875 -308.8074 ZM 61.125 -299.5574 C 60.125 -301.3074 58.125 -301.8074 56.875 -301.8074 C 55.625 -301.8074 53.625 -301.3074 52.625 -299.5574 C 50.125 -295.3074 47.875 -290.3074 45.625 -285.8074 C 43.125 -280.8074 40.125 -275.3074 37.625 -269.8074 C 36.375 -267.0574 35.125 -265.8074 35.125 -263.0574 C 35.125 -261.0574 35.875 -259.0574 39.125 -258.0574 L 74.375 -258.0574 C 76.875 -258.0574 78.875 -261.0574 78.875 -263.3074 C 78.875 -265.8074 62.875 -297.3074 61.125 -299.5574 ZM 65.625 -268.3074 L 48.375 -268.3074 L 56.875 -285.3074 L 65.625 -268.3074 ZM 82.875 -213.0574 C 82.875 -227.5574 72.125 -238.8074 56.625 -238.8074 C 45.375 -238.8074 33.625 -232.5574 31.125 -216.5574 L 31.125 -209.3074 C 31.125 -208.8074 32.125 -204.8074 32.875 -202.8074 C 37.875 -190.8074 48.375 -187.3074 56.875 -187.3074 C 70.875 -187.3074 82.875 -197.5574 82.875 -213.0574 ZM 67.625 -213.0574 C 67.625 -206.8074 62.375 -202.3074 56.875 -202.3074 C 55.125 -202.3074 52.125 -203.5574 50.625 -204.5574 C 49.375 -205.3074 46.375 -209.3074 46.375 -210.5574 L 46.375 -215.3074 C 47.875 -221.3074 52.625 -223.8074 56.875 -223.8074 C 63.125 -223.8074 67.625 -218.8074 67.625 -213.0574 ZM 113.875 -232.3074 C 112.125 -233.0574 108.875 -235.0574 106.875 -235.0574 C 105.125 -235.0574 102.875 -234.3074 102.125 -231.0574 L 102.125 -195.3074 C 102.125 -193.0574 104.875 -191.3074 107.125 -191.3074 C 107.875 -191.3074 108.625 -191.5574 109.375 -191.8074 C 120.875 -197.3074 132.375 -203.0574 143.625 -209.0574 C 144.875 -209.8074 145.875 -212.5574 145.875 -213.0574 C 145.875 -215.0574 145.375 -216.3074 143.625 -217.3074 C 133.875 -223.0574 123.375 -227.5574 113.875 -232.3074 ZM 129.375 -213.0574 L 112.125 -204.5574 L 112.125 -221.5574 L 129.375 -213.0574 ZM 11.875 -230.8074 C 11.875 -233.3074 8.875 -234.8074 6.625 -234.8074 C 6.125 -234.8074 5.125 -234.8074 4.625 -234.5574 C -7.125 -229.0574 -18.375 -223.0574 -29.625 -217.3074 C -31.125 -216.5574 -31.875 -213.8074 -31.875 -213.0574 C -31.875 -211.3074 -31.625 -210.0574 -29.625 -209.0574 C -20.125 -203.3074 -9.875 -198.8074 0.125 -194.0574 C 1.375 -193.3074 4.875 -191.0574 6.875 -191.0574 C 8.625 -191.0574 10.875 -192.0574 11.875 -195.3074 L 11.875 -230.8074 ZM 1.875 -204.5574 L -15.375 -213.0574 L 1.875 -221.5574 L 1.875 -204.5574 ZM 74.125 -168.0574 L 39.875 -168.0574 C 36.875 -167.5574 35.125 -165.8074 35.125 -163.0574 C 35.125 -160.5574 51.125 -129.0574 52.625 -126.5574 C 53.625 -125.0574 55.625 -124.3074 56.875 -124.3074 C 58.125 -124.3074 60.125 -125.0574 61.125 -126.5574 C 63.875 -131.3074 66.125 -136.3074 68.375 -140.8074 C 70.875 -146.0574 73.625 -151.3074 76.125 -156.3074 C 77.625 -159.3074 78.875 -160.5574 78.875 -163.0574 C 78.875 -165.5574 77.625 -167.5574 74.125 -168.0574 ZM 65.625 -157.8074 L 57.125 -140.8074 L 48.375 -157.8074 L 65.625 -157.8074 ZM 1053.875 -262.0574 C 1053.875 -292.0574 1030.125 -317.0574 998.875 -317.0574 C 974.125 -317.0574 948.125 -300.0574 944.125 -266.8074 L 944.125 -257.3074 C 944.125 -256.0574 946.375 -246.0574 946.875 -244.0574 C 956.125 -217.5574 979.875 -207.0574 998.875 -207.0574 C 1029.375 -207.0574 1053.875 -231.5574 1053.875 -262.0574 ZM 1043.875 -262.0574 C 1043.875 -237.0574 1023.375 -217.3074 998.875 -217.3074 C 973.625 -217.3074 954.125 -237.8074 954.125 -262.0574 C 954.125 -287.0574 974.375 -306.8074 998.875 -306.8074 C 1024.125 -306.8074 1043.875 -286.5574 1043.875 -262.0574 ZM 1007.375 -285.5574 C 1005.375 -290.8074 1002.375 -290.0574 999.375 -290.0574 C 996.375 -290.0574 993.625 -290.8074 991.875 -286.8074 C 989.875 -282.5574 988.125 -277.8074 986.375 -273.3074 C 984.375 -268.3074 982.125 -262.5574 979.875 -257.3074 C 979.125 -255.8074 975.125 -246.3074 975.125 -244.3074 C 975.125 -239.0574 979.625 -239.0574 983.125 -239.0574 C 991.375 -239.0574 990.125 -241.0574 994.875 -251.0574 L 1004.125 -251.0574 C 1009.375 -241.0574 1007.125 -239.0574 1015.625 -239.0574 C 1017.875 -239.0574 1023.875 -238.5574 1023.875 -244.3074 C 1023.875 -246.5574 1010.875 -277.3074 1007.375 -285.5574 ZM 953.875 -164.0574 C 953.875 -194.8074 929.375 -219.0574 898.875 -219.0574 C 874.125 -219.0574 848.125 -202.0574 844.125 -168.8074 L 844.125 -159.3074 C 844.125 -157.5574 846.375 -147.5574 846.625 -146.8074 C 855.875 -120.0574 879.375 -109.0574 898.875 -109.0574 C 929.375 -109.0574 953.875 -133.5574 953.875 -164.0574 ZM 943.875 -164.0574 C 943.875 -139.0574 923.375 -119.3074 898.875 -119.3074 C 873.625 -119.3074 854.125 -139.8074 854.125 -164.0574 C 854.125 -189.0574 874.375 -208.8074 898.875 -208.8074 C 924.125 -208.8074 943.875 -188.5574 943.875 -164.0574 ZM 902.625 -188.8074 C 899.875 -189.0574 894.625 -189.0574 893.875 -189.0574 C 891.625 -189.0574 882.875 -189.8074 883.125 -184.8074 L 883.125 -143.3074 C 883.125 -141.3074 886.375 -139.3074 887.625 -139.0574 L 902.375 -139.0574 C 910.875 -139.0574 918.875 -145.8074 918.875 -155.0574 C 918.875 -158.3074 918.875 -158.8074 916.875 -162.5574 C 916.125 -164.0574 914.125 -166.0574 914.125 -166.5574 C 914.125 -167.3074 915.125 -168.8074 915.125 -169.3074 C 915.375 -170.8074 915.875 -173.3074 915.875 -174.0574 C 915.875 -180.3074 911.875 -187.8074 902.625 -188.8074 ZM 899.625 -172.8074 C 899.625 -172.5574 899.375 -172.5574 899.125 -172.5574 L 899.125 -173.8074 C 899.625 -173.5574 899.625 -172.8074 899.625 -172.8074 ZM 901.125 -156.8074 C 902.125 -156.3074 902.625 -156.0574 902.625 -155.5574 C 902.625 -155.0574 902.125 -154.3074 901.375 -154.3074 L 899.125 -154.3074 L 899.125 -156.8074 L 901.125 -156.8074 ZM 48.955 29.945 L 49.77 29.945 C 49.6026 30.2844 49.4706 30.6656 49.375 31.0957 C 49.26 30.6644 49.1187 30.2828 48.955 29.945 ZM 95.875 -0.0574 L 13.875 -0.0574 C 8.125 -0.3074 0.125 6.6926 0.125 12.6926 L 0.125 17.1926 C 0.125 21.4426 6.625 28.6926 10.875 29.1926 C 11.875 29.1926 12.875 29.6926 13.625 29.9426 L 14.11 29.945 C 12.4795 31.4012 11.375 33.4579 11.375 36.0957 C 11.375 36.8457 11.875 38.3457 11.875 38.8457 C 11.875 38.8457 10.375 43.8457 10.375 44.8457 C 10.375 49.0957 16.375 51.3457 19.625 51.3457 C 20.375 51.3457 23.625 50.3457 24.125 50.3457 C 24.875 50.3457 25.625 51.0957 26.375 51.3457 L 62.625 51.3457 C 63.375 51.3457 65.125 49.8457 65.875 49.8457 C 66.375 49.8457 70.375 51.3457 71.875 51.3457 C 72.625 51.3457 74.875 51.0957 76.125 50.5957 C 77.125 50.3457 78.625 49.5957 79.125 49.5957 C 79.875 49.5957 81.375 50.8457 82.375 51.0957 C 82.875 51.3457 83.625 51.3457 84.375 51.3457 C 92.125 51.3457 89.875 45.3457 91.375 39.3457 C 96.125 39.3457 97.125 35.8457 97.125 32.5957 C 97.125 31.5972 97.0254 30.6965 96.61 29.895 C 97.4054 29.7648 98.5144 29.3962 99.125 29.1926 C 107.375 26.1926 109.875 20.4426 109.875 14.9426 C 109.875 7.6926 105.625 1.4426 95.875 -0.0574 ZM 95.375 10.1926 C 97.875 10.4426 99.875 12.9426 99.875 14.6926 C 99.875 16.4426 97.875 19.6926 95.625 19.6926 L 14.125 19.6926 C 11.875 19.1926 10.125 16.6926 10.125 14.9426 C 10.125 13.1926 11.875 9.9426 14.375 10.1926 L 95.375 10.1926 ZM 985.875 -0.0574 L 903.875 -0.0574 C 898.125 -0.3074 890.125 6.6926 890.125 12.6926 L 890.125 17.1926 C 890.125 22.4426 897.875 29.9426 903.625 29.9426 L 909.61 29.945 C 907.9795 31.4012 906.875 33.4579 906.875 36.0957 C 906.875 36.8457 907.375 38.3457 907.375 38.8457 C 907.375 38.8457 905.875 43.8457 905.875 44.8457 C 905.875 49.0957 911.875 51.3457 915.125 51.3457 C 918.625 51.3457 920.125 49.3457 921.375 49.3457 C 922.125 49.3457 923.875 50.8457 924.875 51.0957 C 925.375 51.3457 926.125 51.3457 926.875 51.3457 C 927.375 51.3457 928.375 51.3457 928.875 51.0957 C 929.625 51.0957 930.625 50.0957 931.375 50.0957 C 931.875 50.0957 933.125 51.0957 933.875 51.0957 C 934.625 51.3457 935.375 51.3457 935.875 51.3457 C 938.375 51.3457 937.875 51.0957 941.625 49.3457 C 942.875 51.5957 947.375 51.3457 949.375 51.3457 C 949.875 51.3457 952.375 51.3457 953.875 51.0957 C 954.875 50.8457 956.125 49.8457 956.625 49.8457 C 957.375 49.8457 957.625 50.5957 958.125 50.5957 C 959.125 51.0957 961.125 51.3457 961.625 51.3457 C 962.375 51.3457 964.625 50.8457 965.375 50.8457 C 965.875 50.8457 968.125 51.3457 968.875 51.3457 C 976.375 51.3457 974.375 45.3457 975.875 39.3457 C 980.625 39.3457 981.625 35.8457 981.625 32.5957 C 981.625 31.7689 981.5375 30.8162 981.1899 29.945 L 986.125 29.9426 C 986.875 29.9426 988.375 29.4426 989.125 29.1926 C 997.375 26.1926 999.875 20.4426 999.875 14.9426 C 999.875 7.6926 995.625 1.4426 985.875 -0.0574 ZM 985.375 10.1926 C 987.875 9.9426 989.875 13.1926 989.875 14.9426 C 989.875 16.4426 987.875 19.6926 985.625 19.6926 L 904.125 19.6926 C 901.875 19.1926 900.125 16.6926 900.125 14.9426 C 900.125 12.9426 901.875 10.6926 904.375 10.1926 L 985.375 10.1926 Z" fill="#000000"/>
		<g>
			<path d="M 80.3438 29 L 80 32 L 84.7656 32 L 83 44 L 86.0469 44 L 87.8125 32 L 92.6563 32 L 93 29 L 80.3438 29 ZM 74.8906 29 C 71.9688 29 69.5938 29.7813 67.75 31.3281 C 65.9063 32.8906 65 34.875 65 37.3125 C 65 39.3125 65.6719 40.9219 67.0156 42.1563 C 68.3594 43.3906 70.1094 44 72.2813 44 C 74 44 75.7656 43.5625 77.5469 42.6875 L 78 39 C 75.9063 40.3438 74.0469 41 72.4063 41 C 71.0469 41 69.9688 40.6719 69.1875 40 C 68.3906 39.3438 68 38.4531 68 37.3281 C 68 35.9063 68.5781 34.6563 69.75 33.5938 C 70.9063 32.5313 72.5469 32 74.6719 32 C 75.9531 32 77.2031 32.3438 78.4531 33 L 79 29.6563 C 77.5313 29.2188 76.1563 29 74.8906 29 ZM 54.125 29 L 52 44 L 62.6563 44 L 63 41 L 55.4688 41 L 55.8906 38 L 61.625 38 L 62 35 L 56.3281 35 L 56.75 32 L 62.6563 32 L 63 29 L 54.125 29 ZM 42.125 29 L 40 44 L 49.6563 44 L 50 41 L 43.4688 41 L 45.1719 29 L 42.125 29 ZM 29.125 29 L 27 44 L 37.6563 44 L 38 41 L 30.4688 41 L 30.8906 38 L 36.625 38 L 37 35 L 31.3281 35 L 31.75 32 L 37.6563 32 L 38 29 L 29.125 29 ZM 21.5156 29 C 19.9219 29 18.6094 29.4375 17.5625 30.2813 C 16.5156 31.125 16 32.1875 16 33.4375 C 16 34.0938 16.1875 34.7344 16.5781 35.3438 C 16.9531 35.9688 17.7656 36.5938 19 37.2344 C 20.2344 37.8906 21.0469 38.3594 21.4219 38.6563 C 21.7969 38.9688 22 39.2656 22 39.5625 C 22 40 21.7969 40.3438 21.3906 40.6094 C 20.9844 40.875 20.4688 41 19.8125 41 C 19.1875 41 18.4844 40.8281 17.6719 40.4531 C 16.8594 40.0781 16.1406 39.5938 15.4844 39 L 15 42.2344 C 16.4063 43.4219 18.0781 44 20.0156 44 C 21.5313 44 22.7344 43.5781 23.6406 42.7344 C 24.5469 41.8906 25 40.8125 25 39.5313 C 25 38.8125 24.7813 38.1094 24.3594 37.4375 C 23.9375 36.7656 23.125 36.1094 21.9063 35.4688 C 20.6875 34.8281 19.9063 34.3906 19.5469 34.1406 C 19.1719 33.8906 19 33.6563 19 33.4063 C 19 33 19.2188 32.6719 19.6719 32.4063 C 20.1094 32.1406 20.6719 32 21.3594 32 C 21.9375 32 22.625 32.0938 23.4219 32.2813 C 24.2031 32.4688 24.9063 32.7188 25.5 33 L 26 30.2344 C 24.5938 29.4219 23.0938 29 21.5156 29 ZM 964.8438 29 L 964.5 32 L 969.2656 32 L 967.5 44 L 970.5469 44 L 972.3125 32 L 977.1563 32 L 977.5 29 L 964.8438 29 ZM 950.5 44 L 953.5469 44 L 954.3906 38 L 955.1563 38 C 956.0313 38 956.6719 38.1719 957.0781 38.4844 C 957.4688 38.8125 958.0313 39.625 958.75 40.9063 L 960.25 44 L 963.5 44 L 961.1875 39.2813 C 960.7344 38.2813 960.2031 37.6563 959.6094 37.4063 L 959.6094 37.3438 C 960.6719 37.1406 961.4219 36.6875 961.8594 35.9844 C 962.2813 35.2969 962.5 34.4531 962.5 33.4688 C 962.5 32.25 962.0625 31.2031 961.2031 30.3281 C 960.3438 29.4531 959.1406 29 957.5938 29 L 952.5938 29 L 950.5 44 ZM 956.8594 32 C 957.6719 32 958.3281 32.125 958.7969 32.375 C 959.2656 32.625 959.5 32.9688 959.5 33.4063 C 959.5 33.875 959.2188 34.25 958.6875 34.5469 C 958.1406 34.8594 957.375 35 956.4063 35 L 954.8125 35 L 955.2188 32 L 956.8594 32 ZM 942.3438 29 L 934.5 44 L 937.7969 44 L 938.8438 42 L 945.1875 42 L 945.4375 44 L 948.5 44 L 946.6719 29 L 942.3438 29 ZM 944 32.1563 L 944.8281 39 L 940.4063 39 L 944 32.1563 ZM 922.8438 29 L 922.5 32 L 927.2656 32 L 925.5 44 L 928.5469 44 L 930.3125 32 L 935.1563 32 L 935.5 29 L 922.8438 29 ZM 917.0156 29 C 915.4219 29 914.1094 29.4375 913.0625 30.2813 C 912.0156 31.125 911.5 32.1875 911.5 33.4375 C 911.5 34.0938 911.6875 34.7344 912.0781 35.3438 C 912.4531 35.9688 913.2656 36.5938 914.5 37.2344 C 915.7344 37.8906 916.5469 38.3594 916.9219 38.6563 C 917.2969 38.9688 917.5 39.2656 917.5 39.5625 C 917.5 40 917.2969 40.3438 916.8906 40.6094 C 916.4844 40.875 915.9688 41 915.3125 41 C 914.6875 41 913.9844 40.8281 913.1719 40.4531 C 912.3594 40.0781 911.6406 39.5938 910.9844 39 L 910.5 42.2344 C 911.9063 43.4219 913.5781 44 915.5156 44 C 917.0313 44 918.2344 43.5781 919.1406 42.7344 C 920.0469 41.8906 920.5 40.8125 920.5 39.5313 C 920.5 38.8125 920.2813 38.1094 919.8594 37.4375 C 919.4375 36.7656 918.625 36.1094 917.4063 35.4688 C 916.1875 34.8281 915.4063 34.3906 915.0469 34.1406 C 914.6719 33.8906 914.5 33.6563 914.5 33.4063 C 914.5 33 914.7188 32.6719 915.1719 32.4063 C 915.6094 32.1406 916.1719 32 916.8594 32 C 917.4375 32 918.125 32.0938 918.9219 32.2813 C 919.7031 32.4688 920.4063 32.7188 921 33 L 921.5 30.2344 C 920.0938 29.4219 918.5938 29 917.0156 29 ZM 905 2 C 899.4771 2 895 6.4771 895 12 C 895 17.5229 899.4771 22 905 22 L 985 22 C 990.5229 22 995 17.5229 995 12 C 995 6.4771 990.5229 2 985 2 L 905 2 ZM 15 2 C 9.4771 2 5 6.4771 5 12 C 5 17.5229 9.4771 22 15 22 L 95 22 C 100.5229 22 105 17.5229 105 12 C 105 6.4771 100.5229 2 95 2 L 15 2 Z" fill="url(#gradient1)"/>
		</g>
	</g>
</svg>