<?xml version="1.0" standalone="no"?>
<!-- Generator: Adobe Fireworks 10, Export SVG Extension by Aaron Beall (http://fireworks.abeall.com) . Version: 0.6.1  -->
<!DOCTYPE svg PUBLIC "-//W3C//DTD SVG 1.1//EN" "http://www.w3.org/Graphics/SVG/1.1/DTD/svg11.dtd">
<svg id="Untitled-Page%201" viewBox="0 0 110 52" style="background-color:#ffffff00" version="1.1"
	xmlns="http://www.w3.org/2000/svg" xmlns:xlink="http://www.w3.org/1999/xlink" xml:space="preserve"
	x="0px" y="0px" width="110px" height="52px"
>
	<defs>
		<linearGradient id="gradient1" x1="50%" y1="0%" x2="50%" y2="100%">
			<stop stop-color="#ff1218" stop-opacity="1" offset="0%"/>
			<stop stop-color="#fff812" stop-opacity="1" offset="100%"/>
		</linearGradient>
	</defs>
	<g id="Layer%201">
		<path opacity="0.3412" d="M -803.125 -319.0574 L -863.125 -319.0574 C -866.625 -319.5574 -872.125 -314.5574 -871.875 -311.3074 L -871.875 -253.0574 L -929.625 -253.0574 C -932.875 -253.0574 -937.875 -249.0574 -937.875 -245.3074 L -937.875 -182.8074 C -937.875 -179.5574 -932.625 -175.0574 -929.625 -175.0574 L -871.875 -175.0574 L -871.875 -116.8074 C -871.875 -113.5574 -866.625 -109.0574 -863.625 -109.0574 L -802.625 -109.0574 C -799.375 -109.0574 -794.375 -113.3074 -794.125 -117.0574 L -794.125 -175.0574 L -736.625 -175.0574 C -733.375 -175.0574 -728.375 -179.3074 -728.125 -183.0574 L -728.125 -245.3074 C -728.125 -248.8074 -733.125 -253.3074 -736.625 -253.0574 L -794.125 -253.0574 L -794.125 -311.3074 C -794.125 -315.0574 -799.875 -319.5574 -803.125 -319.0574 ZM -804.125 -308.8074 L -804.125 -247.5574 C -804.625 -245.8074 -801.125 -242.8074 -799.375 -242.8074 L -738.125 -242.8074 L -738.125 -185.3074 L -799.375 -185.3074 C -800.875 -185.3074 -804.125 -182.8074 -804.125 -180.8074 L -804.125 -119.3074 L -861.875 -119.3074 L -861.875 -181.0574 C -862.125 -181.8074 -864.875 -185.3074 -866.875 -185.3074 L -927.875 -185.3074 L -927.875 -242.8074 L -866.625 -242.8074 C -865.125 -242.8074 -862.125 -245.5574 -861.875 -247.3074 L -861.875 -308.8074 L -804.125 -308.8074 ZM -828.875 -299.5574 C -829.875 -301.3074 -831.875 -301.8074 -833.125 -301.8074 C -834.375 -301.8074 -836.375 -301.3074 -837.375 -299.5574 C -839.875 -295.3074 -842.125 -290.3074 -844.375 -285.8074 C -846.875 -280.8074 -849.875 -275.3074 -852.375 -269.8074 C -853.625 -267.0574 -854.875 -265.8074 -854.875 -263.0574 C -854.875 -261.0574 -854.125 -259.0574 -850.875 -258.0574 L -815.625 -258.0574 C -813.125 -258.0574 -811.125 -261.0574 -811.125 -263.3074 C -811.125 -265.8074 -827.125 -297.3074 -828.875 -299.5574 ZM -824.375 -268.3074 L -841.625 -268.3074 L -833.125 -285.3074 L -824.375 -268.3074 ZM -807.125 -213.0574 C -807.125 -227.5574 -817.875 -238.8074 -833.375 -238.8074 C -844.625 -238.8074 -856.375 -232.5574 -858.875 -216.5574 L -858.875 -209.3074 C -858.875 -208.8074 -857.875 -204.8074 -857.125 -202.8074 C -852.125 -190.8074 -841.625 -187.3074 -833.125 -187.3074 C -819.125 -187.3074 -807.125 -197.5574 -807.125 -213.0574 ZM -822.375 -213.0574 C -822.375 -206.8074 -827.625 -202.3074 -833.125 -202.3074 C -834.875 -202.3074 -837.875 -203.5574 -839.375 -204.5574 C -840.625 -205.3074 -843.625 -209.3074 -843.625 -210.5574 L -843.625 -215.3074 C -842.125 -221.3074 -837.375 -223.8074 -833.125 -223.8074 C -826.875 -223.8074 -822.375 -218.8074 -822.375 -213.0574 ZM -776.125 -232.3074 C -777.875 -233.0574 -781.125 -235.0574 -783.125 -235.0574 C -784.875 -235.0574 -787.125 -234.3074 -787.875 -231.0574 L -787.875 -195.3074 C -787.875 -193.0574 -785.125 -191.3074 -782.875 -191.3074 C -782.125 -191.3074 -781.375 -191.5574 -780.625 -191.8074 C -769.125 -197.3074 -757.625 -203.0574 -746.375 -209.0574 C -745.125 -209.8074 -744.125 -212.5574 -744.125 -213.0574 C -744.125 -215.0574 -744.625 -216.3074 -746.375 -217.3074 C -756.125 -223.0574 -766.625 -227.5574 -776.125 -232.3074 ZM -760.625 -213.0574 L -777.875 -204.5574 L -777.875 -221.5574 L -760.625 -213.0574 ZM -878.125 -230.8074 C -878.125 -233.3074 -881.125 -234.8074 -883.375 -234.8074 C -883.875 -234.8074 -884.875 -234.8074 -885.375 -234.5574 C -897.125 -229.0574 -908.375 -223.0574 -919.625 -217.3074 C -921.125 -216.5574 -921.875 -213.8074 -921.875 -213.0574 C -921.875 -211.3074 -921.625 -210.0574 -919.625 -209.0574 C -910.125 -203.3074 -899.875 -198.8074 -889.875 -194.0574 C -888.625 -193.3074 -885.125 -191.0574 -883.125 -191.0574 C -881.375 -191.0574 -879.125 -192.0574 -878.125 -195.3074 L -878.125 -230.8074 ZM -888.125 -204.5574 L -905.375 -213.0574 L -888.125 -221.5574 L -888.125 -204.5574 ZM -815.875 -168.0574 L -850.125 -168.0574 C -853.125 -167.5574 -854.875 -165.8074 -854.875 -163.0574 C -854.875 -160.5574 -838.875 -129.0574 -837.375 -126.5574 C -836.375 -125.0574 -834.375 -124.3074 -833.125 -124.3074 C -831.875 -124.3074 -829.875 -125.0574 -828.875 -126.5574 C -826.125 -131.3074 -823.875 -136.3074 -821.625 -140.8074 C -819.125 -146.0574 -816.375 -151.3074 -813.875 -156.3074 C -812.375 -159.3074 -811.125 -160.5574 -811.125 -163.0574 C -811.125 -165.5574 -812.375 -167.5574 -815.875 -168.0574 ZM -824.375 -157.8074 L -832.875 -140.8074 L -841.625 -157.8074 L -824.375 -157.8074 ZM 163.875 -262.0574 C 163.875 -292.0574 140.125 -317.0574 108.875 -317.0574 C 84.125 -317.0574 58.125 -300.0574 54.125 -266.8074 L 54.125 -257.3074 C 54.125 -256.0574 56.375 -246.0574 56.875 -244.0574 C 66.125 -217.5574 89.875 -207.0574 108.875 -207.0574 C 139.375 -207.0574 163.875 -231.5574 163.875 -262.0574 ZM 153.875 -262.0574 C 153.875 -237.0574 133.375 -217.3074 108.875 -217.3074 C 83.625 -217.3074 64.125 -237.8074 64.125 -262.0574 C 64.125 -287.0574 84.375 -306.8074 108.875 -306.8074 C 134.125 -306.8074 153.875 -286.5574 153.875 -262.0574 ZM 117.375 -285.5574 C 115.375 -290.8074 112.375 -290.0574 109.375 -290.0574 C 106.375 -290.0574 103.625 -290.8074 101.875 -286.8074 C 99.875 -282.5574 98.125 -277.8074 96.375 -273.3074 C 94.375 -268.3074 92.125 -262.5574 89.875 -257.3074 C 89.125 -255.8074 85.125 -246.3074 85.125 -244.3074 C 85.125 -239.0574 89.625 -239.0574 93.125 -239.0574 C 101.375 -239.0574 100.125 -241.0574 104.875 -251.0574 L 114.125 -251.0574 C 119.375 -241.0574 117.125 -239.0574 125.625 -239.0574 C 127.875 -239.0574 133.875 -238.5574 133.875 -244.3074 C 133.875 -246.5574 120.875 -277.3074 117.375 -285.5574 ZM 63.875 -164.0574 C 63.875 -194.8074 39.375 -219.0574 8.875 -219.0574 C -15.875 -219.0574 -41.875 -202.0574 -45.875 -168.8074 L -45.875 -159.3074 C -45.875 -157.5574 -43.625 -147.5574 -43.375 -146.8074 C -34.125 -120.0574 -10.625 -109.0574 8.875 -109.0574 C 39.375 -109.0574 63.875 -133.5574 63.875 -164.0574 ZM 53.875 -164.0574 C 53.875 -139.0574 33.375 -119.3074 8.875 -119.3074 C -16.375 -119.3074 -35.875 -139.8074 -35.875 -164.0574 C -35.875 -189.0574 -15.625 -208.8074 8.875 -208.8074 C 34.125 -208.8074 53.875 -188.5574 53.875 -164.0574 ZM 12.625 -188.8074 C 9.875 -189.0574 4.625 -189.0574 3.875 -189.0574 C 1.625 -189.0574 -7.125 -189.8074 -6.875 -184.8074 L -6.875 -143.3074 C -6.875 -141.3074 -3.625 -139.3074 -2.375 -139.0574 L 12.375 -139.0574 C 20.875 -139.0574 28.875 -145.8074 28.875 -155.0574 C 28.875 -158.3074 28.875 -158.8074 26.875 -162.5574 C 26.125 -164.0574 24.125 -166.0574 24.125 -166.5574 C 24.125 -167.3074 25.125 -168.8074 25.125 -169.3074 C 25.375 -170.8074 25.875 -173.3074 25.875 -174.0574 C 25.875 -180.3074 21.875 -187.8074 12.625 -188.8074 ZM 9.625 -172.8074 C 9.625 -172.5574 9.375 -172.5574 9.125 -172.5574 L 9.125 -173.8074 C 9.625 -173.5574 9.625 -172.8074 9.625 -172.8074 ZM 11.125 -156.8074 C 12.125 -156.3074 12.625 -156.0574 12.625 -155.5574 C 12.625 -155.0574 12.125 -154.3074 11.375 -154.3074 L 9.125 -154.3074 L 9.125 -156.8074 L 11.125 -156.8074 ZM -841.045 29.945 L -840.23 29.945 C -840.3973 30.2844 -840.5294 30.6656 -840.625 31.0957 C -840.74 30.6644 -840.8813 30.2828 -841.045 29.945 ZM -794.125 -0.0574 L -876.125 -0.0574 C -881.875 -0.3074 -889.875 6.6926 -889.875 12.6926 L -889.875 17.1926 C -889.875 21.4426 -883.375 28.6926 -879.125 29.1926 C -878.125 29.1926 -877.125 29.6926 -876.375 29.9426 L -875.89 29.945 C -877.5205 31.4012 -878.625 33.4579 -878.625 36.0957 C -878.625 36.8457 -878.125 38.3457 -878.125 38.8457 C -878.125 38.8457 -879.625 43.8457 -879.625 44.8457 C -879.625 49.0957 -873.625 51.3457 -870.375 51.3457 C -869.625 51.3457 -866.375 50.3457 -865.875 50.3457 C -865.125 50.3457 -864.375 51.0957 -863.625 51.3457 L -827.375 51.3457 C -826.625 51.3457 -824.875 49.8457 -824.125 49.8457 C -823.625 49.8457 -819.625 51.3457 -818.125 51.3457 C -817.375 51.3457 -815.125 51.0957 -813.875 50.5957 C -812.875 50.3457 -811.375 49.5957 -810.875 49.5957 C -810.125 49.5957 -808.625 50.8457 -807.625 51.0957 C -807.125 51.3457 -806.375 51.3457 -805.625 51.3457 C -797.875 51.3457 -800.125 45.3457 -798.625 39.3457 C -793.875 39.3457 -792.875 35.8457 -792.875 32.5957 C -792.875 31.5972 -792.9746 30.6965 -793.39 29.895 C -792.5946 29.7648 -791.4857 29.3962 -790.875 29.1926 C -782.625 26.1926 -780.125 20.4426 -780.125 14.9426 C -780.125 7.6926 -784.375 1.4426 -794.125 -0.0574 ZM -794.625 10.1926 C -792.125 10.4426 -790.125 12.9426 -790.125 14.6926 C -790.125 16.4426 -792.125 19.6926 -794.375 19.6926 L -875.875 19.6926 C -878.125 19.1926 -879.875 16.6926 -879.875 14.9426 C -879.875 13.1926 -878.125 9.9426 -875.625 10.1926 L -794.625 10.1926 ZM 95.875 -0.0574 L 13.875 -0.0574 C 8.125 -0.3074 0.125 6.6926 0.125 12.6926 L 0.125 17.1926 C 0.125 22.4426 7.875 29.9426 13.625 29.9426 L 19.61 29.945 C 17.9795 31.4012 16.875 33.4579 16.875 36.0957 C 16.875 36.8457 17.375 38.3457 17.375 38.8457 C 17.375 38.8457 15.875 43.8457 15.875 44.8457 C 15.875 49.0957 21.875 51.3457 25.125 51.3457 C 28.625 51.3457 30.125 49.3457 31.375 49.3457 C 32.125 49.3457 33.875 50.8457 34.875 51.0957 C 35.375 51.3457 36.125 51.3457 36.875 51.3457 C 37.375 51.3457 38.375 51.3457 38.875 51.0957 C 39.625 51.0957 40.625 50.0957 41.375 50.0957 C 41.875 50.0957 43.125 51.0957 43.875 51.0957 C 44.625 51.3457 45.375 51.3457 45.875 51.3457 C 48.375 51.3457 47.875 51.0957 51.625 49.3457 C 52.875 51.5957 57.375 51.3457 59.375 51.3457 C 59.875 51.3457 62.375 51.3457 63.875 51.0957 C 64.875 50.8457 66.125 49.8457 66.625 49.8457 C 67.375 49.8457 67.625 50.5957 68.125 50.5957 C 69.125 51.0957 71.125 51.3457 71.625 51.3457 C 72.375 51.3457 74.625 50.8457 75.375 50.8457 C 75.875 50.8457 78.125 51.3457 78.875 51.3457 C 86.375 51.3457 84.375 45.3457 85.875 39.3457 C 90.625 39.3457 91.625 35.8457 91.625 32.5957 C 91.625 31.7689 91.5375 30.8162 91.1899 29.945 L 96.125 29.9426 C 96.875 29.9426 98.375 29.4426 99.125 29.1926 C 107.375 26.1926 109.875 20.4426 109.875 14.9426 C 109.875 7.6926 105.625 1.4426 95.875 -0.0574 ZM 95.375 10.1926 C 97.875 9.9426 99.875 13.1926 99.875 14.9426 C 99.875 16.4426 97.875 19.6926 95.625 19.6926 L 14.125 19.6926 C 11.875 19.1926 10.125 16.6926 10.125 14.9426 C 10.125 12.9426 11.875 10.6926 14.375 10.1926 L 95.375 10.1926 Z" fill="#000000"/>
		<g>
			<path d="M -809.6563 29 L -810 32 L -805.2344 32 L -807 44 L -803.9531 44 L -802.1875 32 L -797.3438 32 L -797 29 L -809.6563 29 ZM -815.1094 29 C -818.0313 29 -820.4063 29.7813 -822.25 31.3281 C -824.0938 32.8906 -825 34.875 -825 37.3125 C -825 39.3125 -824.3281 40.9219 -822.9844 42.1563 C -821.6406 43.3906 -819.8906 44 -817.7188 44 C -816 44 -814.2344 43.5625 -812.4531 42.6875 L -812 39 C -814.0938 40.3438 -815.9531 41 -817.5938 41 C -818.9531 41 -820.0313 40.6719 -820.8125 40 C -821.6094 39.3438 -822 38.4531 -822 37.3281 C -822 35.9063 -821.4219 34.6563 -820.25 33.5938 C -819.0938 32.5313 -817.4531 32 -815.3281 32 C -814.0469 32 -812.7969 32.3438 -811.5469 33 L -811 29.6563 C -812.4688 29.2188 -813.8438 29 -815.1094 29 ZM -835.875 29 L -838 44 L -827.3438 44 L -827 41 L -834.5313 41 L -834.1094 38 L -828.375 38 L -828 35 L -833.6719 35 L -833.25 32 L -827.3438 32 L -827 29 L -835.875 29 ZM -847.875 29 L -850 44 L -840.3438 44 L -840 41 L -846.5313 41 L -844.8281 29 L -847.875 29 ZM -860.875 29 L -863 44 L -852.3438 44 L -852 41 L -859.5313 41 L -859.1094 38 L -853.375 38 L -853 35 L -858.6719 35 L -858.25 32 L -852.3438 32 L -852 29 L -860.875 29 ZM -868.4844 29 C -870.0781 29 -871.3906 29.4375 -872.4375 30.2813 C -873.4844 31.125 -874 32.1875 -874 33.4375 C -874 34.0938 -873.8125 34.7344 -873.4219 35.3438 C -873.0469 35.9688 -872.2344 36.5938 -871 37.2344 C -869.7656 37.8906 -868.9531 38.3594 -868.5781 38.6563 C -868.2031 38.9688 -868 39.2656 -868 39.5625 C -868 40 -868.2031 40.3438 -868.6094 40.6094 C -869.0156 40.875 -869.5313 41 -870.1875 41 C -870.8125 41 -871.5156 40.8281 -872.3281 40.4531 C -873.1406 40.0781 -873.8594 39.5938 -874.5156 39 L -875 42.2344 C -873.5938 43.4219 -871.9219 44 -869.9844 44 C -868.4688 44 -867.2656 43.5781 -866.3594 42.7344 C -865.4531 41.8906 -865 40.8125 -865 39.5313 C -865 38.8125 -865.2188 38.1094 -865.6406 37.4375 C -866.0625 36.7656 -866.875 36.1094 -868.0938 35.4688 C -869.3125 34.8281 -870.0938 34.3906 -870.4531 34.1406 C -870.8281 33.8906 -871 33.6563 -871 33.4063 C -871 33 -870.7813 32.6719 -870.3281 32.4063 C -869.8906 32.1406 -869.3281 32 -868.6406 32 C -868.0625 32 -867.375 32.0938 -866.5781 32.2813 C -865.7969 32.4688 -865.0938 32.7188 -864.5 33 L -864 30.2344 C -865.4063 29.4219 -866.9063 29 -868.4844 29 ZM 74.8438 29 L 74.5 32 L 79.2656 32 L 77.5 44 L 80.5469 44 L 82.3125 32 L 87.1563 32 L 87.5 29 L 74.8438 29 ZM 60.5 44 L 63.5469 44 L 64.3906 38 L 65.1563 38 C 66.0313 38 66.6719 38.1719 67.0781 38.4844 C 67.4688 38.8125 68.0313 39.625 68.75 40.9063 L 70.25 44 L 73.5 44 L 71.1875 39.2813 C 70.7344 38.2813 70.2031 37.6563 69.6094 37.4063 L 69.6094 37.3438 C 70.6719 37.1406 71.4219 36.6875 71.8594 35.9844 C 72.2813 35.2969 72.5 34.4531 72.5 33.4688 C 72.5 32.25 72.0625 31.2031 71.2031 30.3281 C 70.3438 29.4531 69.1406 29 67.5938 29 L 62.5938 29 L 60.5 44 ZM 66.8594 32 C 67.6719 32 68.3281 32.125 68.7969 32.375 C 69.2656 32.625 69.5 32.9688 69.5 33.4063 C 69.5 33.875 69.2188 34.25 68.6875 34.5469 C 68.1406 34.8594 67.375 35 66.4063 35 L 64.8125 35 L 65.2188 32 L 66.8594 32 ZM 52.3438 29 L 44.5 44 L 47.7969 44 L 48.8438 42 L 55.1875 42 L 55.4375 44 L 58.5 44 L 56.6719 29 L 52.3438 29 ZM 54 32.1563 L 54.8281 39 L 50.4063 39 L 54 32.1563 ZM 32.8438 29 L 32.5 32 L 37.2656 32 L 35.5 44 L 38.5469 44 L 40.3125 32 L 45.1563 32 L 45.5 29 L 32.8438 29 ZM 27.0156 29 C 25.4219 29 24.1094 29.4375 23.0625 30.2813 C 22.0156 31.125 21.5 32.1875 21.5 33.4375 C 21.5 34.0938 21.6875 34.7344 22.0781 35.3438 C 22.4531 35.9688 23.2656 36.5938 24.5 37.2344 C 25.7344 37.8906 26.5469 38.3594 26.9219 38.6563 C 27.2969 38.9688 27.5 39.2656 27.5 39.5625 C 27.5 40 27.2969 40.3438 26.8906 40.6094 C 26.4844 40.875 25.9688 41 25.3125 41 C 24.6875 41 23.9844 40.8281 23.1719 40.4531 C 22.3594 40.0781 21.6406 39.5938 20.9844 39 L 20.5 42.2344 C 21.9063 43.4219 23.5781 44 25.5156 44 C 27.0313 44 28.2344 43.5781 29.1406 42.7344 C 30.0469 41.8906 30.5 40.8125 30.5 39.5313 C 30.5 38.8125 30.2813 38.1094 29.8594 37.4375 C 29.4375 36.7656 28.625 36.1094 27.4063 35.4688 C 26.1875 34.8281 25.4063 34.3906 25.0469 34.1406 C 24.6719 33.8906 24.5 33.6563 24.5 33.4063 C 24.5 33 24.7188 32.6719 25.1719 32.4063 C 25.6094 32.1406 26.1719 32 26.8594 32 C 27.4375 32 28.125 32.0938 28.9219 32.2813 C 29.7031 32.4688 30.4063 32.7188 31 33 L 31.5 30.2344 C 30.0938 29.4219 28.5938 29 27.0156 29 ZM 15 2 C 9.4771 2 5 6.4771 5 12 C 5 17.5229 9.4771 22 15 22 L 95 22 C 100.5229 22 105 17.5229 105 12 C 105 6.4771 100.5229 2 95 2 L 15 2 ZM -875 2 C -880.5229 2 -885 6.4771 -885 12 C -885 17.5229 -880.5229 22 -875 22 L -795 22 C -789.4771 22 -785 17.5229 -785 12 C -785 6.4771 -789.4771 2 -795 2 L -875 2 Z" fill="url(#gradient1)"/>
		</g>
	</g>
</svg>