<?xml version="1.0" standalone="no"?>
<!-- Generator: Adobe Fireworks 10, Export SVG Extension by Aaron Beall (http://fireworks.abeall.com) . Version: 0.6.1  -->
<!DOCTYPE svg PUBLIC "-//W3C//DTD SVG 1.1//EN" "http://www.w3.org/Graphics/SVG/1.1/DTD/svg11.dtd">
<svg id="Untitled-Page%201" viewBox="0 0 50 50" style="background-color:#ffffff00" version="1.1"
	xmlns="http://www.w3.org/2000/svg" xmlns:xlink="http://www.w3.org/1999/xlink" xml:space="preserve"
	x="0px" y="0px" width="50px" height="50px"
>
	<g id="Layer%201">
		<path d="M 23.4375 12.5 C 22.5745 12.5 21.875 13.1995 21.875 14.0625 L 21.875 21.875 L 14.0625 21.875 C 13.1995 21.875 12.5 22.5745 12.5 23.4375 L 12.5 26.5625 C 12.5 27.4255 13.1995 28.125 14.0625 28.125 L 21.875 28.125 L 21.875 35.9375 C 21.875 36.8005 22.5745 37.5 23.4375 37.5 L 26.5625 37.5 C 27.4255 37.5 28.125 36.8005 28.125 35.9375 L 28.125 28.125 L 35.9375 28.125 C 36.8005 28.125 37.5 27.4255 37.5 26.5625 L 37.5 23.4375 C 37.5 22.5745 36.8005 21.875 35.9375 21.875 L 28.125 21.875 L 28.125 14.0625 C 28.125 13.1995 27.4255 12.5 26.5625 12.5 L 23.4375 12.5 Z" fill="#b90546"/>
	</g>
</svg>