<?xml version="1.0" standalone="no"?>
<!-- Generator: Adobe Fireworks 10, Export SVG Extension by Aaron Beall (http://fireworks.abeall.com) . Version: 0.6.1  -->
<!DOCTYPE svg PUBLIC "-//W3C//DTD SVG 1.1//EN" "http://www.w3.org/Graphics/SVG/1.1/DTD/svg11.dtd">
<svg id="Untitled-Page%201" viewBox="0 0 30 30" style="background-color:#ffffff00" version="1.1"
	xmlns="http://www.w3.org/2000/svg" xmlns:xlink="http://www.w3.org/1999/xlink" xml:space="preserve"
	x="0px" y="0px" width="30px" height="30px"
>
	<g id="Layer%201">
		<path d="M 17 5.5 L 13 5.5 C 13 4.3954 13.8954 3.5 15 3.5 C 16.1046 3.5 17 4.3954 17 5.5 ZM 6.5 8.5 L 15 8.5 L 23.5 8.5 C 23.5 8.5 23.5 5.5 20.5 5.5 L 18 5.5 C 18 3.8431 16.6569 2.5 15 2.5 C 13.3431 2.5 12 3.8431 12 5.5 L 9.5 5.5 C 9.5 5.5 6.5 5.75 6.5 8.5 ZM 20.9106 11.5 C 21.2878 11.5 21.5483 11.8482 21.4924 12.2778 L 19.8735 24.7222 C 19.8176 25.1518 19.4666 25.5 19.0894 25.5 C 18.7122 25.5 18.4517 25.1518 18.5076 24.7222 L 20.1265 12.2778 C 20.1824 11.8482 20.5334 11.5 20.9106 11.5 ZM 17.7188 12.25 L 17.0604 24.7222 C 17.0448 25.1518 16.7646 25.4688 16.3438 25.4688 L 16.2701 25.5 C 15.8492 25.5 15.7032 25.1483 15.7188 24.7188 L 16.1946 12.25 C 16.2077 11.8909 16.4508 11.5895 16.7781 11.5 C 17.199 11.5 17.7343 11.8204 17.7188 12.25 ZM 16.9849 11.4722 L 16.7781 11.5 C 16.8424 11.4824 16.9159 11.4722 16.9849 11.4722 ZM 12.991 11.5035 L 13.2219 11.5 C 13.6428 11.5 13.7657 11.8517 13.7813 12.2813 L 14.3125 24.7188 C 14.3276 25.1357 14.0912 25.4802 13.6925 25.5 C 13.2881 25.4803 12.9548 25.1391 12.9396 24.7222 L 12.2571 12.2813 C 12.2415 11.8517 12.5701 11.5035 12.991 11.5035 ZM 9.0894 11.5 C 9.4666 11.5 9.8176 11.8482 9.8735 12.2778 L 11.4924 24.7222 C 11.5483 25.1518 11.2878 25.5 10.9106 25.5 C 10.5334 25.5 10.1824 25.1518 10.1265 24.7222 L 8.5076 12.2778 C 8.4517 11.8482 8.7122 11.5 9.0894 11.5 ZM 6.5 10 L 9.1475 25 L 9.1875 25 L 9.1875 25.0625 C 9.1875 25.1501 9.1919 25.2354 9.2025 25.32 L 9.235 25.5025 C 9.3993 26.2343 9.9661 26.8145 10.69 27 L 19.31 27 C 20.0362 26.8139 20.6028 26.2305 20.765 25.495 L 20.795 25.325 C 20.8064 25.2393 20.8125 25.1512 20.8125 25.0625 L 20.8125 25 L 20.8525 25 L 23.5 10 L 6.5 10 Z" fill="#ffffff"/>
	</g>
</svg>