<?xml version="1.0" standalone="no"?>
<!-- Generator: Adobe Fireworks 10, Export SVG Extension by Aaron Beall (http://fireworks.abeall.com) . Version: 0.6.1  -->
<!DOCTYPE svg PUBLIC "-//W3C//DTD SVG 1.1//EN" "http://www.w3.org/Graphics/SVG/1.1/DTD/svg11.dtd">
<svg id="Untitled-Page%201" viewBox="0 0 45 50" style="background-color:#ffffff00" version="1.1"
	xmlns="http://www.w3.org/2000/svg" xmlns:xlink="http://www.w3.org/1999/xlink" xml:space="preserve"
	x="0px" y="0px" width="45px" height="50px"
>
	<g id="Layer%201">
		<path d="M 26.8125 6.0417 C 27.0625 6.0417 28.4375 6.6667 28.4375 7.2917 L 28.4375 14.0417 L 35.0625 14.0417 C 35.6875 14.2917 36.4375 14.9167 36.4375 15.2917 L 36.4375 24.5417 C 36.1875 25.1667 35.4375 25.9167 35.0625 25.9167 L 28.4375 25.9167 L 28.4375 32.5417 C 28.1875 32.9167 27.5625 33.9167 27.0625 33.9167 L 17.8125 33.9167 C 17.5625 33.7917 16.5625 33.0417 16.5625 32.7917 L 16.5625 25.9167 L 9.8125 25.9167 C 9.3125 25.6667 8.5625 24.9167 8.5625 24.6667 L 8.5625 15.2917 C 8.8125 14.7917 9.4375 14.0417 9.8125 14.0417 L 16.5625 14.0417 L 16.5625 7.1667 C 16.6875 6.6667 17.3125 5.9167 18.0625 6.0417 L 26.8125 6.0417 ZM 39.5234 45.4063 C 39.3203 45.3438 39.0625 45.2266 38.75 45.0547 L 38.75 44 C 38.9844 44.1563 39.2266 44.2734 39.4766 44.3672 C 39.7266 44.4609 39.9375 44.5 40.1094 44.5 C 40.2813 44.5 40.4297 44.4609 40.5547 44.3828 C 40.6797 44.3047 40.75 44.2031 40.75 44.0938 C 40.75 43.9844 40.7031 43.8906 40.625 43.8125 C 40.5391 43.7344 40.3594 43.6094 40.0859 43.4297 C 39.5391 43.0859 39.1797 42.7969 39.0078 42.5547 C 38.8359 42.3125 38.75 42.0469 38.75 41.7578 C 38.75 41.3906 38.8906 41.0859 39.1797 40.8516 C 39.4688 40.6172 39.8438 40.5 40.2969 40.5 C 40.7656 40.5 41.25 40.6484 41.75 40.9453 L 41.75 42 C 41.1875 41.6719 40.7266 41.5 40.3672 41.5 C 40.1797 41.5 40.0234 41.5313 39.9141 41.5938 C 39.8047 41.6563 39.75 41.7422 39.75 41.8359 C 39.75 41.9297 39.7734 42.0156 39.8359 42.0938 C 39.8906 42.1719 40.0391 42.2891 40.2734 42.4297 L 40.5781 42.625 C 41.3594 43.0859 41.75 43.5938 41.75 44.1406 C 41.75 44.5391 41.6016 44.8672 41.3203 45.1172 C 41.0391 45.375 40.6719 45.5 40.2266 45.5 C 39.9609 45.5 39.7266 45.4688 39.5234 45.4063 ZM 36.25 45.5 L 36.25 38 L 37.25 38 L 37.25 45.5 L 36.25 45.5 ZM 30.9609 41.2188 C 31.4375 40.7422 32.0391 40.5 32.7656 40.5 C 33.4766 40.5 34.0703 40.7422 34.5391 41.2266 C 35.0078 41.7109 35.25 42.3125 35.25 43.0391 C 35.25 43.75 35.0078 44.3359 34.5313 44.8047 C 34.0469 45.2734 33.4453 45.5 32.7188 45.5 C 32.0156 45.5 31.4219 45.2656 30.9531 44.7891 C 30.4844 44.3203 30.25 43.7266 30.25 43.0078 C 30.25 42.2969 30.4844 41.7031 30.9609 41.2188 ZM 25.75 40.5 L 26.75 40.5 L 26.75 41.7969 L 26.8125 41.7031 C 27.3516 40.9063 27.8906 40.5 28.4297 40.5 C 28.8516 40.5 29.2891 40.7031 29.75 41.0938 L 29.1641 42 C 28.7734 41.6719 28.4063 41.5 28.0781 41.5 C 27.7188 41.5 27.4063 41.6484 27.1406 41.9453 C 26.875 42.2422 26.75 42.5859 26.75 42.9844 L 26.75 45.5 L 25.75 45.5 L 25.75 40.5 ZM 21.75 41.5 L 21.75 41.375 L 23.75 39 L 23.75 40.5 L 24.75 40.5 L 24.75 41.5 L 23.75 41.5 L 23.75 43.7188 C 23.75 44.2422 23.9375 44.5 24.3281 44.5 L 25.25 44.5 L 25.25 45.2422 C 24.9063 45.4141 24.5391 45.5 24.1484 45.5 C 23.7422 45.5 23.4141 45.375 23.1484 45.125 C 23.0625 45.0469 22.9922 44.9609 22.9375 44.8672 C 22.8828 44.7734 22.8359 44.6484 22.8047 44.4922 C 22.7656 44.3359 22.75 44.0469 22.75 43.6172 L 22.75 41.5 L 21.75 41.5 ZM 16.75 40.5 L 17.75 40.5 L 17.75 41 C 18.2344 40.6719 18.7813 40.5 19.3984 40.5 C 19.7422 40.5 20.0547 40.5859 20.3516 40.7422 C 20.6406 40.8984 20.8594 41.1172 21.0156 41.3906 C 21.1719 41.6641 21.25 42.1016 21.25 42.6953 L 21.25 45.5 L 20.25 45.5 L 20.25 42.8359 C 20.25 42.3594 20.1563 42.0156 19.9844 41.8125 C 19.8047 41.6094 19.5078 41.5 19.1016 41.5 C 18.5703 41.5 18.1172 41.6719 17.75 42 L 17.75 45.5 L 16.75 45.5 L 16.75 40.5 ZM 11.4609 41.2188 C 11.9375 40.7422 12.5391 40.5 13.2656 40.5 C 13.9766 40.5 14.5703 40.7422 15.0391 41.2266 C 15.5078 41.7109 15.75 42.3125 15.75 43.0391 C 15.75 43.75 15.5078 44.3359 15.0313 44.8047 C 14.5469 45.2734 13.9453 45.5 13.2188 45.5 C 12.5156 45.5 11.9219 45.2656 11.4531 44.7891 C 10.9844 44.3203 10.75 43.7266 10.75 43.0078 C 10.75 42.2969 10.9844 41.7031 11.4609 41.2188 ZM 6.9219 44.5 C 7.8828 44.5 8.8281 44.1719 9.75 43.5 L 9.75 44.5 C 8.9297 45.1719 7.9844 45.5 6.9219 45.5 C 6.0547 45.5 5.3203 45.3359 4.7109 45.0078 C 4.1016 44.6797 3.625 44.2266 3.2734 43.6484 C 2.9219 43.0703 2.75 42.4531 2.75 41.7813 C 2.75 40.7188 3.1563 39.8203 3.9766 39.0938 C 4.7891 38.3672 5.7969 38 7 38 C 7.8203 38 8.7344 38.1719 9.75 38.5 L 9.75 39.5 C 8.7969 39.1719 7.875 39 6.9766 39 C 6.0469 39 5.2734 39.2656 4.6641 39.7891 C 4.0547 40.3203 3.75 40.9766 3.75 41.7656 C 3.75 42.5625 4.0469 43.2188 4.6406 43.7344 C 5.2344 44.25 5.9922 44.5 6.9219 44.5 ZM 0 0 L 0 50 L 45 50 L 45 0 L 0 0 ZM 26.8125 6.5417 L 18.0625 6.5417 C 17.6875 6.4167 17.1875 6.7917 17.0625 7.2917 L 17.0625 14.5417 L 9.8125 14.5417 C 9.4375 14.5417 9.1875 15.0417 9.0625 15.2917 L 9.0625 24.6667 C 9.0625 24.9167 9.5625 25.2917 9.8125 25.4167 L 17.0625 25.4167 L 17.0625 32.6667 C 17.0625 32.9167 17.5625 33.2917 17.8125 33.4167 L 27.0625 33.4167 C 27.4375 33.4167 27.8125 32.9167 27.9375 32.5417 L 27.9375 25.4167 L 35.0625 25.4167 C 35.4375 25.4167 35.8125 24.9167 35.9375 24.5417 L 35.9375 15.2917 C 35.9375 14.9167 35.4375 14.6667 35.0625 14.5417 L 27.9375 14.5417 L 27.9375 7.2917 C 27.9375 6.7917 26.9375 6.5417 26.8125 6.5417 ZM 18.8025 7.5 L 26.1975 7.5 C 26.5026 7.5 26.75 7.7474 26.75 8.0525 L 26.75 15.75 L 34.4475 15.75 C 34.7526 15.75 35 15.9974 35 16.3025 L 35 23.6975 C 35 24.0026 34.7526 24.25 34.4475 24.25 L 26.75 24.25 L 26.75 31.9475 C 26.75 32.2526 26.5026 32.5 26.1975 32.5 L 18.8025 32.5 C 18.4974 32.5 18.25 32.2526 18.25 31.9475 L 18.25 24.25 L 10.5525 24.25 C 10.2474 24.25 10 24.0026 10 23.6975 L 10 16.3025 C 10 15.9974 10.2474 15.75 10.5525 15.75 L 18.25 15.75 L 18.25 8.0525 C 18.25 7.7474 18.4974 7.5 18.8025 7.5 ZM 25.1094 20.1406 C 25.1094 18.7031 24.0469 17.5156 22.4844 17.5156 C 21.3594 17.5156 20.1719 18.1406 19.8906 19.7656 L 19.8906 20.4844 C 19.8906 20.5469 19.9531 20.8594 20.0156 21.0156 C 20.4844 22.2656 21.5469 22.7344 22.4844 22.7344 C 23.8906 22.7344 25.1094 21.6719 25.1094 20.1406 ZM 24.4844 20.1094 C 24.4844 21.2656 23.5469 22.1094 22.4844 22.1094 C 21.7969 22.1094 20.8906 21.7031 20.5781 20.7031 C 20.5469 20.6094 20.5156 20.4844 20.5156 20.4219 L 20.5156 19.8281 C 20.7344 18.6406 21.6719 18.1406 22.4844 18.1406 C 23.6406 18.1406 24.4844 19.0469 24.4844 20.1094 ZM 24.625 26.375 L 20.375 26.375 L 22.5 30.625 L 24.625 26.375 ZM 16.25 22.25 L 16.25 18 L 12 20.125 L 16.25 22.25 ZM 20.375 13.875 L 24.625 13.875 L 22.5 9.625 L 20.375 13.875 ZM 28.75 18 L 28.75 22.25 L 33 20.125 L 28.75 18 ZM 33.8125 41.9297 C 33.5156 41.6484 33.1563 41.5 32.7188 41.5 C 32.2813 41.5 31.9297 41.6484 31.6563 41.9297 C 31.3828 42.2109 31.25 42.5781 31.25 43.0156 C 31.25 43.4531 31.3906 43.8125 31.6719 44.0859 C 31.9531 44.3672 32.3125 44.5 32.7578 44.5 C 33.1953 44.5 33.5469 44.3672 33.8281 44.0859 C 34.1094 43.8047 34.25 43.4453 34.25 43.0078 C 34.25 42.5703 34.1016 42.2109 33.8125 41.9297 ZM 14.3125 41.9297 C 14.0156 41.6484 13.6563 41.5 13.2188 41.5 C 12.7813 41.5 12.4297 41.6484 12.1563 41.9297 C 11.8828 42.2109 11.75 42.5781 11.75 43.0156 C 11.75 43.4531 11.8906 43.8125 12.1719 44.0859 C 12.4531 44.3672 12.8125 44.5 13.2578 44.5 C 13.6953 44.5 14.0469 44.3672 14.3281 44.0859 C 14.6094 43.8047 14.75 43.4453 14.75 43.0078 C 14.75 42.5703 14.6016 42.2109 14.3125 41.9297 Z" fill="#222222"/>
	</g>
</svg>