<?xml version="1.0" standalone="no"?>
<!-- Generator: Adobe Fireworks 10, Export SVG Extension by Aaron Beall (http://fireworks.abeall.com) . Version: 0.6.1  -->
<!DOCTYPE svg PUBLIC "-//W3C//DTD SVG 1.1//EN" "http://www.w3.org/Graphics/SVG/1.1/DTD/svg11.dtd">
<svg id="Untitled-Page%201" viewBox="0 0 50 50" style="background-color:#ffffff00" version="1.1"
	xmlns="http://www.w3.org/2000/svg" xmlns:xlink="http://www.w3.org/1999/xlink" xml:space="preserve"
	x="0px" y="0px" width="50px" height="50px"
>
	<g id="Layer%201">
		<path d="M 27.5882 12.8571 L 22.4118 12.8571 C 22.4118 11.437 23.5705 10.2857 25 10.2857 C 26.4295 10.2857 27.5882 11.437 27.5882 12.8571 ZM 14 16.7143 L 25 16.7143 L 36 16.7143 C 36 16.7143 36 12.8571 32.1176 12.8571 L 28.8824 12.8571 C 28.8824 10.7269 27.1442 9 25 9 C 22.8558 9 21.1176 10.7269 21.1176 12.8571 L 17.8824 12.8571 C 17.8824 12.8571 14 13.1786 14 16.7143 ZM 32.6491 20.5714 C 33.1372 20.5714 33.4743 21.0191 33.402 21.5714 L 31.3069 37.5714 C 31.2346 38.1237 30.7802 38.5714 30.2921 38.5714 C 29.804 38.5714 29.4669 38.1237 29.5392 37.5714 L 31.6342 21.5714 C 31.7066 21.0191 32.1609 20.5714 32.6491 20.5714 ZM 28.5184 21.5357 L 27.6664 37.5714 C 27.6462 38.1237 27.2836 38.5313 26.739 38.5313 L 26.6436 38.5714 C 26.099 38.5714 25.91 38.1193 25.9301 37.567 L 26.546 21.5357 C 26.5629 21.074 26.8775 20.6865 27.3011 20.5714 C 27.8458 20.5714 28.5386 20.9834 28.5184 21.5357 ZM 27.5687 20.5357 L 27.3011 20.5714 C 27.3843 20.5488 27.4794 20.5357 27.5687 20.5357 ZM 22.4001 20.5759 L 22.6989 20.5714 C 23.2436 20.5714 23.4026 21.0236 23.4228 21.5759 L 24.1103 37.567 C 24.1299 38.103 23.824 38.546 23.3079 38.5714 C 22.7847 38.5461 22.3532 38.1074 22.3336 37.5714 L 21.4504 21.5759 C 21.4302 21.0236 21.8554 20.5759 22.4001 20.5759 ZM 17.3509 20.5714 C 17.8391 20.5714 18.2934 21.0191 18.3658 21.5714 L 20.4608 37.5714 C 20.5331 38.1237 20.196 38.5714 19.7079 38.5714 C 19.2198 38.5714 18.7654 38.1237 18.6931 37.5714 L 16.598 21.5714 C 16.5257 21.0191 16.8628 20.5714 17.3509 20.5714 ZM 14 18.6429 L 17.4262 37.9286 L 17.4779 37.9286 L 17.4779 38.0089 C 17.4779 38.1216 17.4836 38.2312 17.4973 38.34 L 17.5394 38.5746 C 17.752 39.5156 18.4856 40.2615 19.4224 40.5 L 30.5776 40.5 C 31.5174 40.2607 32.2507 39.5107 32.4606 38.565 L 32.4994 38.3464 C 32.5141 38.2363 32.5221 38.123 32.5221 38.0089 L 32.5221 37.9286 L 32.5738 37.9286 L 36 18.6429 L 14 18.6429 Z" fill="#ddb10a"/>
	</g>
</svg>