<?xml version="1.0" standalone="no"?>
<!-- Generator: Adobe Fireworks 10, Export SVG Extension by Aaron Beall (http://fireworks.abeall.com) . Version: 0.6.1  -->
<!DOCTYPE svg PUBLIC "-//W3C//DTD SVG 1.1//EN" "http://www.w3.org/Graphics/SVG/1.1/DTD/svg11.dtd">
<svg id="editiconPNG.fw-Page%201" viewBox="0 0 40 40" style="background-color:#ffffff00" version="1.1"
	xmlns="http://www.w3.org/2000/svg" xmlns:xlink="http://www.w3.org/1999/xlink" xml:space="preserve"
	x="0px" y="0px" width="40px" height="40px"
>
	<g id="Layer%201">
		<g>
			<path d="M 28.0313 8.875 L 19.5 20.5 L 19 25.5 L 23.5 23.5 L 31.875 11.375 C 31.875 11.375 31.25 8.4063 28.0313 8.875 Z" fill="#ffffff"/>
			<path d="M 26.5 21.5675 L 26.5 29.0625 C 26.25 29.3125 25.75 30.4375 25.25 30.4375 L 10.125 30.4375 C 9.75 30.1875 9 29.5625 9 29.1875 L 9 11.8125 C 9.125 11.4375 9.75 10.4375 10.375 10.5625 L 24.79 10.5625 L 25.545 9.595 C 25.4453 9.5732 25.3464 9.5625 25.25 9.5625 L 10.125 9.5625 C 9.25 9.5625 8.125 10.5625 8 11.6875 L 8 29.3125 C 8 29.9375 9.125 31.4375 10 31.4375 L 25.375 31.4375 C 25.75 31.4375 26.75 30.5625 27 30.3125 C 27.25 29.9375 27.375 29.5625 27.5 29.0625 L 27.5 20.2225 L 26.5 21.5675 ZM 11.0625 24.5 C 10.7518 24.5 10.5 24.8358 10.5 25.25 C 10.5 25.6642 10.7518 26 11.0625 26 L 17.7875 26 C 17.5928 25.6439 17.5625 25.2151 17.5625 24.9075 C 17.5625 24.8349 17.5715 24.6922 17.5875 24.5 L 11.0625 24.5 ZM 11.25 20.5 C 10.8358 20.5 10.5 20.8358 10.5 21.25 C 10.5 21.6642 10.8358 22 11.25 22 L 17.8375 22 L 17.9375 21.0325 C 17.9375 20.8736 17.9379 20.6894 17.95 20.5 L 11.25 20.5 ZM 11.25 16.5 C 10.8358 16.5 10.5 16.8358 10.5 17.25 C 10.5 17.6642 10.8358 18 11.25 18 L 19.29 18 C 19.6413 17.4997 19.9965 16.9996 20.355 16.5 L 11.25 16.5 ZM 11.25 12.5 C 10.8358 12.5 10.5 12.8358 10.5 13.25 C 10.5 13.6642 10.8358 14 11.25 14 L 22.18 14 C 22.5519 13.499 22.9272 12.9989 23.305 12.5 L 11.25 12.5 Z" fill="#ffffff"/>
		</g>
	</g>
</svg>