<?xml version="1.0" standalone="no"?>
<!-- Generator: Adobe Fireworks 10, Export SVG Extension by Aaron Beall (http://fireworks.abeall.com) . Version: 0.6.1  -->
<!DOCTYPE svg PUBLIC "-//W3C//DTD SVG 1.1//EN" "http://www.w3.org/Graphics/SVG/1.1/DTD/svg11.dtd">
<svg id="amebosplash.fw-Page%201" viewBox="0 0 140 140" style="background-color:#ffffff" version="1.1"
	xmlns="http://www.w3.org/2000/svg" xmlns:xlink="http://www.w3.org/1999/xlink" xml:space="preserve"
	x="0px" y="0px" width="140px" height="140px"
>
	<defs>
		<filter id="filter1" x="-100%" y="-100%" width="300%" height="300%">
			<!-- Gaussian Blur... -->
			<feGaussianBlur in="SourceGraphic" stdDeviation="17" result="Gaussian_Blur___1"/>
		</filter>
	</defs>
	<g id="Layer%201">
		<image visibility="hidden" x="51" y="39" width="40" height="62" xlink:href="load.svg.images/image1.png"/>
		<path d="M 92.2898 42 L 47.9534 42 C 46.9111 42.0346 45.3127 43.0737 45.139 44.5282 C 45.139 44.6667 45.1042 44.8746 45.0695 45.0131 L 45.0695 117.1188 C 45.0347 117.2227 45.0347 117.3266 45 117.3959 L 45 118.4695 C 45 118.5388 45.0347 118.8158 45.0695 118.989 C 45.278 119.9241 45.6254 120.8592 46.5636 121.7943 C 47.189 122.4177 47.884 122.7986 48.5441 123.1104 C 50.2467 123.9069 52.0535 124.0454 53.7213 124.3225 C 57.2307 124.8766 60.8096 125.1883 64.319 125.3961 L 68.28 125.5 L 72.8318 125.5 L 74.7081 125.4307 C 78.8777 125.1883 83.2558 124.7381 87.46 123.9415 C 87.8423 123.8723 88.294 123.7683 88.7109 123.6991 C 88.9194 123.6298 89.2321 123.5952 89.4753 123.5259 C 89.7185 123.4566 90.0313 123.3528 90.3092 123.2835 C 91.2474 122.9371 92.4288 122.383 93.3322 121.3787 C 94.2703 120.3397 94.6525 119.2661 94.861 118.2617 C 94.9305 117.7769 95 117.2574 95 116.8071 L 94.9305 44.736 C 94.9305 43.7663 93.8881 42.0693 92.7067 42.0346 C 92.5677 42.0346 92.4288 42.0346 92.2898 42 ZM 92.2898 43.42 C 92.8457 43.316 93.5059 44.3204 93.5059 44.7014 L 93.5059 115.8374 C 93.5754 116.1837 93.6101 116.7032 93.6101 116.7725 C 93.6101 119.5432 91.9423 121.7596 88.2592 122.3484 C 87.8423 122.4177 87.3905 122.5216 87.0083 122.5909 C 83.0125 123.3181 78.8429 123.7683 74.8819 124.0108 L 73.1445 124.08 L 67.6894 124.08 L 64.1452 123.9761 C 60.9138 123.7337 57.6477 123.4566 54.451 123.0064 C 52.0535 122.6601 46.3899 122.3138 46.3899 117.9154 C 46.3899 117.8461 46.4594 117.3266 46.4941 117.0496 L 46.4941 45.0131 C 46.4941 44.2165 47.3975 43.3853 48.0229 43.42 L 92.2898 43.42 ZM 89.5275 45.4792 L 49.9166 45.4792 C 49.1174 45.4445 47.9013 46.3449 47.8318 47.4532 C 47.8318 47.5225 47.8318 47.6264 47.7971 47.6956 L 47.9708 80.2852 C 47.9361 81.0818 48.77 82.4325 49.8124 82.7095 C 50.1598 82.8135 50.542 82.952 50.8895 82.9866 C 54.2252 83.3676 57.7693 83.61 61.1397 83.8524 C 62.1126 83.9217 63.1897 83.991 64.1973 84.0602 L 68.5406 84.1988 L 72.5712 84.1988 L 75.9069 84.0602 C 80.2154 83.7486 84.4892 83.4715 88.8325 82.9866 C 89.8054 82.8827 91.6817 82.0862 91.786 80.5623 L 91.786 47.7303 C 91.786 46.6566 90.8478 45.5484 89.5275 45.4792 ZM 89.2147 46.8645 C 89.6317 46.8299 90.4309 47.2108 90.3614 47.765 L 90.3961 80.216 C 90.4309 81.255 88.9368 81.5667 88.3113 81.6359 C 84.2807 82.0515 80.0764 82.3633 76.0806 82.6403 L 72.8492 82.7788 L 68.1237 82.7788 L 64.7185 82.675 C 63.6762 82.6057 62.6338 82.5018 61.5914 82.4671 C 60.7575 82.4325 59.9236 82.3633 59.0897 82.294 C 58.499 82.2593 57.8388 82.1901 57.2481 82.1555 C 56.6922 82.0862 56.0667 82.0862 55.5455 82.0169 C 55.1633 81.9823 54.7116 81.9476 54.3642 81.913 C 53.009 81.7745 51.6539 81.7398 50.3336 81.3935 C 49.8819 81.255 49.3607 80.6316 49.3954 80.2506 L 49.2217 58.3626 L 49.2217 47.7303 C 49.2912 47.1069 49.7081 46.8645 50.2988 46.8645 L 89.2147 46.8645 ZM 53.9472 57.4463 L 53.7735 57.4463 C 53.8429 57.7233 53.9472 57.8619 53.9472 58.1043 C 53.9472 58.3121 53.8429 58.5892 53.7387 58.797 L 53.8429 58.797 C 54.2252 58.797 54.4336 58.3814 54.4336 58.1043 C 54.4336 57.9312 54.2946 57.4463 53.9472 57.4463 ZM 52.8874 57.4463 L 52.7137 57.4463 C 52.7832 57.6194 52.9222 57.8965 52.9222 58.1043 C 52.9222 58.3121 52.7484 58.5892 52.7137 58.797 L 52.8179 58.797 C 53.1654 58.797 53.3739 58.4507 53.3739 58.1043 C 53.3739 57.8619 53.2696 57.5502 52.8874 57.4463 ZM 51.8624 57.4463 L 51.6887 57.4463 C 51.7582 57.7233 51.8624 57.8619 51.8624 58.1043 C 51.8624 58.3121 51.7582 58.5892 51.6539 58.797 L 51.7582 58.797 C 52.1404 58.797 52.3488 58.3814 52.3488 58.1043 C 52.3488 57.9312 52.2099 57.4463 51.8624 57.4463 ZM 51.4802 58.1043 C 51.4802 57.6194 51.098 57.2731 50.6115 57.2731 C 50.0903 57.2731 49.7429 57.6194 49.7429 58.1043 C 49.7429 58.4853 50.0903 58.9701 50.6115 58.9701 C 51.0285 58.9701 51.4802 58.5892 51.4802 58.1043 ZM 83.5511 50.1215 L 56.032 50.1215 L 56.032 74.5723 L 83.5511 74.5723 L 83.5511 50.1215 ZM 82.1265 51.5414 L 82.1265 73.187 L 57.4218 73.187 L 57.4218 51.5414 L 82.1265 51.5414 ZM 90.2397 119.4219 C 90.2397 119.1795 90.0313 118.9024 89.7185 118.9024 C 89.4058 118.9024 89.2321 119.1795 89.2321 119.4219 C 89.2321 119.6297 89.4406 119.9414 89.7185 119.9414 C 89.927 119.9414 90.2397 119.7336 90.2397 119.4219 ZM 81.9006 118.0366 C 81.9006 117.7942 81.7616 117.5171 81.3794 117.5171 C 81.0667 117.5171 80.893 117.7942 80.893 118.0366 C 80.893 118.2444 81.0667 118.5561 81.3794 118.5561 C 81.6574 118.5561 81.9006 118.3137 81.9006 118.0366 ZM 81.9006 115.266 C 81.9006 115.0236 81.6922 114.7465 81.4142 114.7465 C 81.0667 114.7465 80.893 115.0236 80.893 115.266 C 80.893 115.4738 81.0667 115.7855 81.4142 115.7855 C 81.6922 115.7855 81.9006 115.543 81.9006 115.266 ZM 81.9006 112.5473 C 81.9006 112.2702 81.6922 112.0624 81.3794 112.0624 C 81.0667 112.0624 80.893 112.2702 80.893 112.5473 C 80.893 112.7551 81.0667 113.0668 81.3794 113.0668 C 81.6922 113.0668 81.9006 112.859 81.9006 112.5473 ZM 91.6296 117.673 C 91.6296 117.4651 91.4559 117.1881 91.1084 117.1881 C 90.7957 117.1881 90.6219 117.3613 90.6219 117.673 C 90.6219 117.8808 90.7262 118.1924 91.1084 118.1924 C 91.3169 118.1924 91.6296 118.0539 91.6296 117.673 ZM 91.6296 114.9023 C 91.6296 114.6945 91.4559 114.4175 91.1084 114.4175 C 90.7957 114.4175 90.6219 114.5906 90.6219 114.937 C 90.6219 115.214 90.8304 115.4218 91.1084 115.4218 C 91.3169 115.4218 91.6296 115.2833 91.6296 114.9023 ZM 91.6296 112.1317 C 91.6296 111.9239 91.4559 111.6469 91.1084 111.6469 C 90.7957 111.6469 90.6219 111.82 90.6219 112.1663 C 90.6219 112.4434 90.7957 112.6512 91.1084 112.6512 C 91.3169 112.6512 91.6296 112.5126 91.6296 112.1317 ZM 90.2397 116.6513 C 90.2397 116.4088 90.0313 116.1318 89.7185 116.1318 C 89.4058 116.1318 89.2321 116.4088 89.2321 116.6513 C 89.2321 116.8591 89.4058 117.1708 89.7185 117.1708 C 89.927 117.1708 90.2397 116.963 90.2397 116.6513 ZM 90.2397 113.8806 C 90.2397 113.6382 90.0313 113.3612 89.7185 113.3612 C 89.4406 113.3612 89.2321 113.6382 89.2321 113.8806 C 89.2321 114.0884 89.3711 114.4001 89.7185 114.4001 C 89.927 114.4001 90.2397 114.1924 90.2397 113.8806 ZM 90.2397 111.1619 C 90.2397 110.9542 90.1355 110.6771 89.7185 110.6771 C 89.4058 110.6771 89.2321 110.8849 89.2321 111.1619 C 89.2321 111.3698 89.3363 111.6815 89.7185 111.6815 C 89.927 111.6815 90.2397 111.4737 90.2397 111.1619 ZM 87.46 119.9241 C 87.46 119.6817 87.2863 119.4046 86.9388 119.4046 C 86.6261 119.4046 86.4524 119.5778 86.4524 119.8895 C 86.4524 120.0973 86.5566 120.409 86.9388 120.409 C 87.1473 120.409 87.46 120.2704 87.46 119.9241 ZM 87.46 117.1535 C 87.46 116.911 87.2863 116.6339 86.9388 116.6339 C 86.6609 116.6339 86.4524 116.8418 86.4524 117.1188 C 86.4524 117.3266 86.5566 117.6383 86.9388 117.6383 C 87.1473 117.6383 87.46 117.4998 87.46 117.1535 ZM 87.46 114.4348 C 87.46 114.1924 87.2516 113.9153 86.9388 113.9153 C 86.7304 113.9153 86.4524 114.0884 86.4524 114.4001 C 86.4524 114.5733 86.5566 114.9543 86.9388 114.9543 C 87.1473 114.9543 87.46 114.7465 87.46 114.4348 ZM 87.46 111.6641 C 87.46 111.4217 87.2516 111.1447 86.9388 111.1447 C 86.6261 111.1447 86.4524 111.4217 86.4524 111.6641 C 86.4524 111.8719 86.6261 112.1837 86.9388 112.1837 C 87.1473 112.1837 87.46 111.9758 87.46 111.6641 ZM 84.6803 120.4436 C 84.6803 120.1665 84.4719 119.9587 84.1939 119.9587 C 83.8464 119.9587 83.6727 120.1319 83.6727 120.4436 C 83.6727 120.6514 83.7769 120.9631 84.1591 120.9631 C 84.4719 120.9631 84.6803 120.7552 84.6803 120.4436 ZM 84.6803 117.673 C 84.6803 117.4651 84.5414 117.1881 84.1591 117.1881 C 83.8464 117.1881 83.6727 117.3613 83.6727 117.673 C 83.6727 117.8808 83.7769 118.1924 84.1591 118.1924 C 84.3676 118.1924 84.6803 118.0886 84.6803 117.673 ZM 84.6803 114.937 C 84.6803 114.6945 84.5414 114.4175 84.1591 114.4175 C 83.8464 114.4175 83.6727 114.5906 83.6727 114.9023 C 83.6727 115.214 83.8464 115.4218 84.1939 115.4218 C 84.4719 115.4218 84.6803 115.214 84.6803 114.937 ZM 84.6803 112.1663 C 84.6803 111.9239 84.5066 111.6469 84.1939 111.6469 C 83.8812 111.6469 83.6727 111.8546 83.6727 112.1317 C 83.6727 112.3395 83.7769 112.6512 84.1591 112.6512 C 84.3676 112.6512 84.6803 112.5126 84.6803 112.1663 ZM 88.8499 118.2271 C 88.8499 117.95 88.6414 117.7422 88.3287 117.7422 C 88.016 117.7422 87.8423 117.95 87.8423 118.2271 C 87.8423 118.4348 87.9465 118.7466 88.3287 118.7466 C 88.6414 118.7466 88.8499 118.5388 88.8499 118.2271 ZM 88.8499 115.4565 C 88.8499 115.2487 88.7109 114.9716 88.3287 114.9716 C 88.016 114.9716 87.8423 115.1447 87.8423 115.4565 C 87.8423 115.6642 87.9465 115.9759 88.3287 115.9759 C 88.5372 115.9759 88.8499 115.8028 88.8499 115.4565 ZM 88.8499 112.6858 C 88.8499 112.478 88.7109 112.201 88.3287 112.201 C 88.016 112.201 87.8423 112.3741 87.8423 112.6858 C 87.8423 112.8936 87.9465 113.2053 88.3287 113.2053 C 88.5372 113.2053 88.8499 113.0668 88.8499 112.6858 ZM 88.8499 109.9152 C 88.8499 109.7074 88.7109 109.4303 88.3287 109.4303 C 88.016 109.4303 87.8423 109.6035 87.8423 109.9152 C 87.8423 110.123 87.9465 110.4347 88.3287 110.4347 C 88.5372 110.4347 88.8499 110.2961 88.8499 109.9152 ZM 86.0702 118.7292 C 86.0702 118.4868 85.8617 118.2097 85.549 118.2097 C 85.3405 118.2097 85.0625 118.3829 85.0625 118.6946 C 85.0625 118.8678 85.1668 119.2487 85.549 119.2487 C 85.7575 119.2487 86.0702 119.041 86.0702 118.7292 ZM 86.0702 115.9586 C 86.0702 115.7162 85.8617 115.4391 85.5837 115.4391 C 85.2363 115.4391 85.0625 115.7162 85.0625 115.9586 C 85.0625 116.1664 85.2363 116.4781 85.549 116.4781 C 85.7575 116.4781 86.0702 116.2703 86.0702 115.9586 ZM 86.0702 113.2399 C 86.0702 112.9629 85.8617 112.7551 85.549 112.7551 C 85.2363 112.7551 85.0625 112.9283 85.0625 113.2399 C 85.0625 113.4478 85.2363 113.7595 85.549 113.7595 C 85.8617 113.7595 86.0702 113.517 86.0702 113.2399 ZM 86.0702 110.4693 C 86.0702 110.1922 85.8617 109.9844 85.549 109.9844 C 85.2363 109.9844 85.0625 110.1576 85.0625 110.4693 C 85.0625 110.6771 85.2015 110.9888 85.549 110.9888 C 85.8617 110.9888 86.0702 110.781 86.0702 110.4693 ZM 83.2905 119.2315 C 83.2905 118.989 83.1515 118.7119 82.804 118.7119 C 82.4913 118.7119 82.2829 118.9198 82.2829 119.1968 C 82.2829 119.4046 82.3871 119.7163 82.7693 119.7163 C 82.9778 119.7163 83.2905 119.5778 83.2905 119.2315 ZM 83.2905 116.4608 C 83.2905 116.2184 83.1168 115.9413 82.7693 115.9413 C 82.4566 115.9413 82.2829 116.2184 82.2829 116.4608 C 82.2829 116.7379 82.4566 116.9456 82.7693 116.9456 C 82.9778 116.9456 83.2905 116.8071 83.2905 116.4608 ZM 83.2905 113.7421 C 83.2905 113.4997 83.1168 113.2227 82.804 113.2227 C 82.4566 113.2227 82.2829 113.4997 82.2829 113.7421 C 82.2829 113.9499 82.4566 114.2616 82.7693 114.2616 C 82.9778 114.2616 83.2905 114.0538 83.2905 113.7421 ZM 83.2905 110.9715 C 83.2905 110.729 83.082 110.452 82.7693 110.452 C 82.4566 110.452 82.2829 110.729 82.2829 110.9715 C 82.2829 111.1793 82.4566 111.491 82.7693 111.491 C 82.9778 111.491 83.2905 111.2832 83.2905 110.9715 ZM 75.2409 86.3301 L 64.4695 86.3301 C 63.4271 86.3648 62.8712 87.2999 62.8712 88.0618 C 62.8712 88.7544 63.4271 89.5856 64.3653 89.7588 L 75.3799 89.7588 C 75.5536 89.7588 76.0748 89.4818 76.1791 89.4125 C 76.3875 89.2739 76.5613 89.0662 76.6655 88.8584 C 76.9435 88.2696 76.874 88.4428 76.874 88.0272 C 76.874 87.3345 76.3875 86.3648 75.2409 86.3301 ZM 75.1714 87.7501 C 75.3104 87.7501 75.4841 87.9579 75.4841 88.0272 C 75.4841 88.1311 75.3104 88.3389 75.2409 88.3389 L 64.5043 88.3389 C 64.2958 88.235 64.2958 88.0964 64.2958 88.0272 C 64.2958 87.9232 64.3306 87.7847 64.5738 87.7501 L 75.1714 87.7501 ZM 68.7839 110.5559 C 68.7839 109.6555 66.6643 109.6208 66.4211 109.6208 C 66.1431 109.6208 64.1279 109.6901 64.1279 110.5559 C 64.1279 111.3871 66.2126 111.491 66.4559 111.491 C 66.6643 111.491 68.7839 111.3871 68.7839 110.5559 ZM 75.8721 110.5213 C 75.8721 109.6555 73.7526 109.6208 73.5441 109.6208 C 73.3009 109.6208 71.2161 109.6555 71.2161 110.5559 C 71.2161 111.3871 73.3009 111.491 73.5441 111.491 C 73.7526 111.491 75.8721 111.3871 75.8721 110.5213 ZM 57.1612 90.6824 L 53.9993 90.6824 C 53.8256 90.6131 53.4434 91.0287 53.3739 91.2365 L 53.3739 94.4573 L 50.3857 94.4573 C 50.1077 94.4573 49.7603 94.7344 49.7255 95.0807 L 49.7255 98.3363 C 49.7255 98.4055 49.8298 98.648 50.0035 98.7518 C 50.073 98.8211 50.212 98.8904 50.3162 98.925 L 53.3739 98.925 L 53.3739 102.0074 C 53.3739 102.1459 53.6518 102.4229 53.7213 102.4229 C 53.8256 102.4922 53.9993 102.5268 54.1035 102.5615 L 57.057 102.5615 C 57.3349 102.5615 57.8561 102.2844 57.8561 101.8688 L 57.8561 98.925 L 61.0181 98.925 C 61.2265 98.925 61.6435 98.5787 61.6435 98.3363 L 61.6435 95.0115 C 61.6435 94.7691 61.1571 94.4573 60.9833 94.4573 L 57.8561 94.4573 L 57.8561 91.3404 C 57.8561 91.0634 57.4739 90.6824 57.1612 90.6824 ZM 56.4315 92.0677 L 56.4315 94.5612 C 56.3968 95.0807 57.2307 95.8773 57.7171 95.8773 L 60.2536 95.8773 L 60.2536 97.5051 L 57.7867 97.5051 C 57.2307 97.5051 56.4315 98.1978 56.4315 98.7865 L 56.4315 101.1415 L 54.7637 101.1415 L 54.7637 98.7172 C 54.729 98.1631 53.9646 97.5051 53.3739 97.5051 L 51.1501 97.5051 L 51.1501 95.8773 L 53.4434 95.8773 C 53.9646 95.808 54.7637 95.15 54.7637 94.6305 L 54.7637 92.0677 L 56.4315 92.0677 ZM 81.3968 97.9495 C 81.3968 96.3564 80.1112 95.1096 78.5476 95.1096 C 76.9493 95.1096 75.6984 96.3564 75.6984 97.9495 C 75.6984 99.508 76.9493 100.7894 78.5476 100.7894 C 80.1112 100.7894 81.3968 99.508 81.3968 97.9495 ZM 79.9722 97.9495 C 79.9722 98.7807 79.312 99.3695 78.5476 99.3695 C 77.7484 99.3695 77.123 98.7114 77.123 97.9495 C 77.123 97.1529 77.7484 96.5295 78.5476 96.5295 C 79.312 96.5295 79.9722 97.1529 79.9722 97.9495 ZM 90.0139 95.1789 C 90.0139 93.6897 88.7978 92.339 87.1647 92.339 C 85.6706 92.339 84.3155 93.5858 84.3155 95.1789 C 84.3155 96.7374 85.5664 98.0188 87.1647 98.0188 C 88.7283 98.0188 90.0139 96.8066 90.0139 95.1789 ZM 88.6241 95.1789 C 88.6241 96.0447 87.8944 96.5988 87.1647 96.5988 C 86.3655 96.5988 85.7401 95.9408 85.7401 95.1789 C 85.7401 94.3823 86.3655 93.7589 87.1647 93.7589 C 87.9986 93.7589 88.6241 94.3823 88.6241 95.1789 Z" fill="#d6d6d6"/>
		<path opacity="0.749" filter="url(#filter1)" d="M 92.2898 42 L 47.9534 42 C 46.9111 42.0346 45.3127 43.0737 45.139 44.5282 C 45.139 44.6667 45.1042 44.8746 45.0695 45.0131 L 45.0695 117.1188 C 45.0347 117.2227 45.0347 117.3266 45 117.3959 L 45 118.4695 C 45 118.5388 45.0347 118.8158 45.0695 118.989 C 45.278 119.9241 45.6254 120.8592 46.5636 121.7943 C 47.189 122.4177 47.884 122.7986 48.5441 123.1104 C 50.2467 123.9069 52.0535 124.0454 53.7213 124.3225 C 57.2307 124.8766 60.8096 125.1883 64.319 125.3961 L 68.28 125.5 L 72.8318 125.5 L 74.7081 125.4307 C 78.8777 125.1883 83.2557 124.7381 87.46 123.9415 C 87.8423 123.8723 88.2939 123.7683 88.7109 123.6991 C 88.9194 123.6298 89.2321 123.5952 89.4753 123.5259 C 89.7185 123.4566 90.0313 123.3528 90.3092 123.2835 C 91.2474 122.9371 92.4288 122.383 93.3322 121.3787 C 94.2703 120.3397 94.6525 119.2661 94.861 118.2617 C 94.9305 117.7769 95 117.2574 95 116.8071 L 94.9305 44.736 C 94.9305 43.7663 93.8881 42.0693 92.7067 42.0346 C 92.5677 42.0346 92.4288 42.0346 92.2898 42 ZM 92.2898 43.42 C 92.8457 43.316 93.5059 44.3204 93.5059 44.7014 L 93.5059 115.8374 C 93.5754 116.1837 93.6101 116.7032 93.6101 116.7725 C 93.6101 119.5432 91.9423 121.7596 88.2592 122.3484 C 87.8423 122.4177 87.3906 122.5216 87.0084 122.5909 C 83.0125 123.3181 78.843 123.7683 74.8818 124.0108 L 73.1445 124.08 L 67.6894 124.08 L 64.1453 123.9761 C 60.9138 123.7337 57.6476 123.4566 54.451 123.0064 C 52.0535 122.6601 46.3899 122.3138 46.3899 117.9154 C 46.3899 117.8461 46.4594 117.3266 46.4941 117.0496 L 46.4941 45.0131 C 46.4941 44.2165 47.3975 43.3853 48.0229 43.42 L 92.2898 43.42 ZM 89.5275 45.4792 L 49.9166 45.4792 C 49.1174 45.4445 47.9013 46.3449 47.8318 47.4532 C 47.8318 47.5225 47.8318 47.6264 47.7971 47.6956 L 47.9708 80.2852 C 47.936 81.0818 48.77 82.4325 49.8124 82.7095 C 50.1598 82.8135 50.5421 82.952 50.8895 82.9866 C 54.2252 83.3676 57.7693 83.61 61.1397 83.8524 C 62.1126 83.9217 63.1897 83.991 64.1973 84.0602 L 68.5406 84.1988 L 72.5712 84.1988 L 75.9069 84.0602 C 80.2155 83.7486 84.4892 83.4715 88.8325 82.9866 C 89.8054 82.8827 91.6817 82.0862 91.786 80.5623 L 91.786 47.7303 C 91.786 46.6566 90.8478 45.5484 89.5275 45.4792 ZM 89.2147 46.8645 C 89.6317 46.8299 90.4308 47.2108 90.3614 47.765 L 90.3961 80.216 C 90.4308 81.255 88.9368 81.5667 88.3113 81.6359 C 84.2808 82.0515 80.0764 82.3633 76.0806 82.6403 L 72.8492 82.7788 L 68.1237 82.7788 L 64.7185 82.675 C 63.6761 82.6057 62.6338 82.5018 61.5914 82.4671 C 60.7574 82.4325 59.9236 82.3633 59.0897 82.294 C 58.499 82.2593 57.8388 82.1901 57.2481 82.1555 C 56.6921 82.0862 56.0667 82.0862 55.5455 82.0169 C 55.1633 81.9823 54.7116 81.9476 54.3641 81.913 C 53.009 81.7745 51.6539 81.7398 50.3336 81.3935 C 49.8818 81.255 49.3607 80.6316 49.3954 80.2506 L 49.2217 58.3626 L 49.2217 47.7303 C 49.2912 47.1069 49.7081 46.8645 50.2988 46.8645 L 89.2147 46.8645 ZM 53.9472 57.4463 L 53.7734 57.4463 C 53.843 57.7233 53.9472 57.8619 53.9472 58.1043 C 53.9472 58.3121 53.843 58.5892 53.7387 58.797 L 53.843 58.797 C 54.2252 58.797 54.4337 58.3814 54.4337 58.1043 C 54.4337 57.9312 54.2946 57.4463 53.9472 57.4463 ZM 52.8874 57.4463 L 52.7137 57.4463 C 52.7832 57.6194 52.9222 57.8965 52.9222 58.1043 C 52.9222 58.3121 52.7484 58.5892 52.7137 58.797 L 52.8179 58.797 C 53.1654 58.797 53.3739 58.4507 53.3739 58.1043 C 53.3739 57.8619 53.2697 57.5502 52.8874 57.4463 ZM 51.8624 57.4463 L 51.6887 57.4463 C 51.7582 57.7233 51.8624 57.8619 51.8624 58.1043 C 51.8624 58.3121 51.7582 58.5892 51.6539 58.797 L 51.7582 58.797 C 52.1404 58.797 52.3488 58.3814 52.3488 58.1043 C 52.3488 57.9312 52.2099 57.4463 51.8624 57.4463 ZM 51.4802 58.1043 C 51.4802 57.6194 51.098 57.2731 50.6115 57.2731 C 50.0903 57.2731 49.7429 57.6194 49.7429 58.1043 C 49.7429 58.4853 50.0903 58.9701 50.6115 58.9701 C 51.0285 58.9701 51.4802 58.5892 51.4802 58.1043 ZM 83.5511 50.1215 L 56.032 50.1215 L 56.032 74.5723 L 83.5511 74.5723 L 83.5511 50.1215 ZM 82.1265 51.5414 L 82.1265 73.187 L 57.4218 73.187 L 57.4218 51.5414 L 82.1265 51.5414 ZM 90.2397 119.4219 C 90.2397 119.1795 90.0313 118.9024 89.7185 118.9024 C 89.4058 118.9024 89.2321 119.1795 89.2321 119.4219 C 89.2321 119.6297 89.4406 119.9414 89.7185 119.9414 C 89.927 119.9414 90.2397 119.7336 90.2397 119.4219 ZM 81.9006 118.0366 C 81.9006 117.7942 81.7617 117.5171 81.3795 117.5171 C 81.0667 117.5171 80.893 117.7942 80.893 118.0366 C 80.893 118.2444 81.0667 118.5561 81.3795 118.5561 C 81.6574 118.5561 81.9006 118.3137 81.9006 118.0366 ZM 81.9006 115.266 C 81.9006 115.0236 81.6921 114.7465 81.4142 114.7465 C 81.0667 114.7465 80.893 115.0236 80.893 115.266 C 80.893 115.4738 81.0667 115.7855 81.4142 115.7855 C 81.6921 115.7855 81.9006 115.543 81.9006 115.266 ZM 81.9006 112.5473 C 81.9006 112.2702 81.6921 112.0624 81.3795 112.0624 C 81.0667 112.0624 80.893 112.2702 80.893 112.5473 C 80.893 112.7551 81.0667 113.0668 81.3795 113.0668 C 81.6921 113.0668 81.9006 112.859 81.9006 112.5473 ZM 91.6296 117.673 C 91.6296 117.4651 91.4559 117.1881 91.1084 117.1881 C 90.7957 117.1881 90.6219 117.3613 90.6219 117.673 C 90.6219 117.8808 90.7262 118.1924 91.1084 118.1924 C 91.3169 118.1924 91.6296 118.0539 91.6296 117.673 ZM 91.6296 114.9023 C 91.6296 114.6945 91.4559 114.4175 91.1084 114.4175 C 90.7957 114.4175 90.6219 114.5906 90.6219 114.937 C 90.6219 115.214 90.8304 115.4218 91.1084 115.4218 C 91.3169 115.4218 91.6296 115.2833 91.6296 114.9023 ZM 91.6296 112.1317 C 91.6296 111.9239 91.4559 111.6469 91.1084 111.6469 C 90.7957 111.6469 90.6219 111.82 90.6219 112.1663 C 90.6219 112.4434 90.7957 112.6512 91.1084 112.6512 C 91.3169 112.6512 91.6296 112.5126 91.6296 112.1317 ZM 90.2397 116.6513 C 90.2397 116.4088 90.0313 116.1318 89.7185 116.1318 C 89.4058 116.1318 89.2321 116.4088 89.2321 116.6513 C 89.2321 116.8591 89.4058 117.1708 89.7185 117.1708 C 89.927 117.1708 90.2397 116.963 90.2397 116.6513 ZM 90.2397 113.8806 C 90.2397 113.6382 90.0313 113.3612 89.7185 113.3612 C 89.4406 113.3612 89.2321 113.6382 89.2321 113.8806 C 89.2321 114.0884 89.3711 114.4001 89.7185 114.4001 C 89.927 114.4001 90.2397 114.1924 90.2397 113.8806 ZM 90.2397 111.1619 C 90.2397 110.9542 90.1355 110.6771 89.7185 110.6771 C 89.4058 110.6771 89.2321 110.8849 89.2321 111.1619 C 89.2321 111.3698 89.3363 111.6815 89.7185 111.6815 C 89.927 111.6815 90.2397 111.4737 90.2397 111.1619 ZM 87.46 119.9241 C 87.46 119.6817 87.2863 119.4046 86.9388 119.4046 C 86.6261 119.4046 86.4524 119.5778 86.4524 119.8895 C 86.4524 120.0973 86.5566 120.409 86.9388 120.409 C 87.1473 120.409 87.46 120.2704 87.46 119.9241 ZM 87.46 117.1535 C 87.46 116.911 87.2863 116.6339 86.9388 116.6339 C 86.6609 116.6339 86.4524 116.8418 86.4524 117.1188 C 86.4524 117.3266 86.5566 117.6383 86.9388 117.6383 C 87.1473 117.6383 87.46 117.4998 87.46 117.1535 ZM 87.46 114.4348 C 87.46 114.1924 87.2516 113.9153 86.9388 113.9153 C 86.7303 113.9153 86.4524 114.0884 86.4524 114.4001 C 86.4524 114.5733 86.5566 114.9543 86.9388 114.9543 C 87.1473 114.9543 87.46 114.7465 87.46 114.4348 ZM 87.46 111.6641 C 87.46 111.4217 87.2516 111.1447 86.9388 111.1447 C 86.6261 111.1447 86.4524 111.4217 86.4524 111.6641 C 86.4524 111.8719 86.6261 112.1837 86.9388 112.1837 C 87.1473 112.1837 87.46 111.9758 87.46 111.6641 ZM 84.6804 120.4436 C 84.6804 120.1665 84.4719 119.9587 84.1939 119.9587 C 83.8464 119.9587 83.6727 120.1319 83.6727 120.4436 C 83.6727 120.6514 83.7769 120.9631 84.1591 120.9631 C 84.4719 120.9631 84.6804 120.7552 84.6804 120.4436 ZM 84.6804 117.673 C 84.6804 117.4651 84.5414 117.1881 84.1591 117.1881 C 83.8464 117.1881 83.6727 117.3613 83.6727 117.673 C 83.6727 117.8808 83.7769 118.1924 84.1591 118.1924 C 84.3676 118.1924 84.6804 118.0886 84.6804 117.673 ZM 84.6804 114.937 C 84.6804 114.6945 84.5414 114.4175 84.1591 114.4175 C 83.8464 114.4175 83.6727 114.5906 83.6727 114.9023 C 83.6727 115.214 83.8464 115.4218 84.1939 115.4218 C 84.4719 115.4218 84.6804 115.214 84.6804 114.937 ZM 84.6804 112.1663 C 84.6804 111.9239 84.5066 111.6469 84.1939 111.6469 C 83.8812 111.6469 83.6727 111.8546 83.6727 112.1317 C 83.6727 112.3395 83.7769 112.6512 84.1591 112.6512 C 84.3676 112.6512 84.6804 112.5126 84.6804 112.1663 ZM 88.8499 118.2271 C 88.8499 117.95 88.6414 117.7422 88.3287 117.7422 C 88.016 117.7422 87.8423 117.95 87.8423 118.2271 C 87.8423 118.4348 87.9465 118.7466 88.3287 118.7466 C 88.6414 118.7466 88.8499 118.5388 88.8499 118.2271 ZM 88.8499 115.4565 C 88.8499 115.2487 88.7109 114.9716 88.3287 114.9716 C 88.016 114.9716 87.8423 115.1447 87.8423 115.4565 C 87.8423 115.6642 87.9465 115.9759 88.3287 115.9759 C 88.5372 115.9759 88.8499 115.8028 88.8499 115.4565 ZM 88.8499 112.6858 C 88.8499 112.478 88.7109 112.201 88.3287 112.201 C 88.016 112.201 87.8423 112.3741 87.8423 112.6858 C 87.8423 112.8936 87.9465 113.2053 88.3287 113.2053 C 88.5372 113.2053 88.8499 113.0668 88.8499 112.6858 ZM 88.8499 109.9152 C 88.8499 109.7074 88.7109 109.4303 88.3287 109.4303 C 88.016 109.4303 87.8423 109.6035 87.8423 109.9152 C 87.8423 110.123 87.9465 110.4347 88.3287 110.4347 C 88.5372 110.4347 88.8499 110.2961 88.8499 109.9152 ZM 86.0702 118.7292 C 86.0702 118.4868 85.8617 118.2097 85.549 118.2097 C 85.3405 118.2097 85.0626 118.3829 85.0626 118.6946 C 85.0626 118.8678 85.1668 119.2487 85.549 119.2487 C 85.7574 119.2487 86.0702 119.041 86.0702 118.7292 ZM 86.0702 115.9586 C 86.0702 115.7162 85.8617 115.4391 85.5837 115.4391 C 85.2363 115.4391 85.0626 115.7162 85.0626 115.9586 C 85.0626 116.1664 85.2363 116.4781 85.549 116.4781 C 85.7574 116.4781 86.0702 116.2703 86.0702 115.9586 ZM 86.0702 113.2399 C 86.0702 112.9629 85.8617 112.7551 85.549 112.7551 C 85.2363 112.7551 85.0626 112.9283 85.0626 113.2399 C 85.0626 113.4478 85.2363 113.7595 85.549 113.7595 C 85.8617 113.7595 86.0702 113.517 86.0702 113.2399 ZM 86.0702 110.4693 C 86.0702 110.1922 85.8617 109.9844 85.549 109.9844 C 85.2363 109.9844 85.0626 110.1576 85.0626 110.4693 C 85.0626 110.6771 85.2015 110.9888 85.549 110.9888 C 85.8617 110.9888 86.0702 110.781 86.0702 110.4693 ZM 83.2905 119.2315 C 83.2905 118.989 83.1515 118.7119 82.804 118.7119 C 82.4913 118.7119 82.2828 118.9198 82.2828 119.1968 C 82.2828 119.4046 82.3871 119.7163 82.7693 119.7163 C 82.9778 119.7163 83.2905 119.5778 83.2905 119.2315 ZM 83.2905 116.4608 C 83.2905 116.2184 83.1168 115.9413 82.7693 115.9413 C 82.4566 115.9413 82.2828 116.2184 82.2828 116.4608 C 82.2828 116.7379 82.4566 116.9456 82.7693 116.9456 C 82.9778 116.9456 83.2905 116.8071 83.2905 116.4608 ZM 83.2905 113.7421 C 83.2905 113.4997 83.1168 113.2227 82.804 113.2227 C 82.4566 113.2227 82.2828 113.4997 82.2828 113.7421 C 82.2828 113.9499 82.4566 114.2616 82.7693 114.2616 C 82.9778 114.2616 83.2905 114.0538 83.2905 113.7421 ZM 83.2905 110.9715 C 83.2905 110.729 83.082 110.452 82.7693 110.452 C 82.4566 110.452 82.2828 110.729 82.2828 110.9715 C 82.2828 111.1793 82.4566 111.491 82.7693 111.491 C 82.9778 111.491 83.2905 111.2832 83.2905 110.9715 ZM 75.2409 86.3301 L 64.4695 86.3301 C 63.4271 86.3648 62.8712 87.2999 62.8712 88.0618 C 62.8712 88.7544 63.4271 89.5856 64.3653 89.7588 L 75.3799 89.7588 C 75.5536 89.7588 76.0748 89.4818 76.1791 89.4125 C 76.3875 89.2739 76.5613 89.0662 76.6655 88.8584 C 76.9435 88.2696 76.874 88.4428 76.874 88.0272 C 76.874 87.3345 76.3875 86.3648 75.2409 86.3301 ZM 75.1714 87.7501 C 75.3104 87.7501 75.4841 87.9579 75.4841 88.0272 C 75.4841 88.1311 75.3104 88.3389 75.2409 88.3389 L 64.5043 88.3389 C 64.2958 88.235 64.2958 88.0964 64.2958 88.0272 C 64.2958 87.9232 64.3306 87.7847 64.5738 87.7501 L 75.1714 87.7501 ZM 68.7839 110.5559 C 68.7839 109.6555 66.6643 109.6208 66.4211 109.6208 C 66.1431 109.6208 64.1279 109.6901 64.1279 110.5559 C 64.1279 111.3871 66.2126 111.491 66.4559 111.491 C 66.6643 111.491 68.7839 111.3871 68.7839 110.5559 ZM 75.8721 110.5213 C 75.8721 109.6555 73.7526 109.6208 73.5441 109.6208 C 73.3009 109.6208 71.2161 109.6555 71.2161 110.5559 C 71.2161 111.3871 73.3009 111.491 73.5441 111.491 C 73.7526 111.491 75.8721 111.3871 75.8721 110.5213 ZM 57.1612 90.6824 L 53.9993 90.6824 C 53.8256 90.6131 53.4434 91.0287 53.3739 91.2365 L 53.3739 94.4573 L 50.3857 94.4573 C 50.1077 94.4573 49.7603 94.7344 49.7255 95.0807 L 49.7255 98.3363 C 49.7255 98.4055 49.8298 98.648 50.0035 98.7518 C 50.073 98.8211 50.212 98.8904 50.3162 98.925 L 53.3739 98.925 L 53.3739 102.0074 C 53.3739 102.1459 53.6519 102.4229 53.7213 102.4229 C 53.8256 102.4922 53.9993 102.5268 54.1035 102.5615 L 57.057 102.5615 C 57.335 102.5615 57.8561 102.2844 57.8561 101.8688 L 57.8561 98.925 L 61.0181 98.925 C 61.2266 98.925 61.6435 98.5787 61.6435 98.3363 L 61.6435 95.0115 C 61.6435 94.7691 61.157 94.4573 60.9833 94.4573 L 57.8561 94.4573 L 57.8561 91.3404 C 57.8561 91.0634 57.4739 90.6824 57.1612 90.6824 ZM 56.4315 92.0677 L 56.4315 94.5612 C 56.3968 95.0807 57.2307 95.8773 57.7172 95.8773 L 60.2537 95.8773 L 60.2537 97.5051 L 57.7867 97.5051 C 57.2307 97.5051 56.4315 98.1978 56.4315 98.7865 L 56.4315 101.1415 L 54.7637 101.1415 L 54.7637 98.7172 C 54.729 98.1631 53.9645 97.5051 53.3739 97.5051 L 51.1501 97.5051 L 51.1501 95.8773 L 53.4434 95.8773 C 53.9645 95.808 54.7637 95.15 54.7637 94.6305 L 54.7637 92.0677 L 56.4315 92.0677 ZM 81.3968 97.9495 C 81.3968 96.3564 80.1112 95.1096 78.5476 95.1096 C 76.9493 95.1096 75.6984 96.3564 75.6984 97.9495 C 75.6984 99.508 76.9493 100.7894 78.5476 100.7894 C 80.1112 100.7894 81.3968 99.508 81.3968 97.9495 ZM 79.9722 97.9495 C 79.9722 98.7807 79.312 99.3695 78.5476 99.3695 C 77.7484 99.3695 77.123 98.7114 77.123 97.9495 C 77.123 97.1529 77.7484 96.5295 78.5476 96.5295 C 79.312 96.5295 79.9722 97.1529 79.9722 97.9495 ZM 90.0139 95.1789 C 90.0139 93.6897 88.7978 92.339 87.1647 92.339 C 85.6706 92.339 84.3155 93.5858 84.3155 95.1789 C 84.3155 96.7374 85.5663 98.0188 87.1647 98.0188 C 88.7283 98.0188 90.0139 96.8066 90.0139 95.1789 ZM 88.6241 95.1789 C 88.6241 96.0447 87.8944 96.5988 87.1647 96.5988 C 86.3655 96.5988 85.7401 95.9408 85.7401 95.1789 C 85.7401 94.3823 86.3655 93.7589 87.1647 93.7589 C 87.9986 93.7589 88.6241 94.3823 88.6241 95.1789 Z" fill="#d6d6d6"/>
		<g>
			<text x="32" y="34.5" width="76" fill="#b80546" style="font-size: 37px; font-family: Myriad Pro; color: #b80546; text-align: center; "><tspan><![CDATA[a]]></tspan><tspan style="color: #5254a5; "><![CDATA[m]]></tspan><tspan style="color: #79ac35; "><![CDATA[e]]></tspan><tspan style="color: #ddb10a; "><![CDATA[b]]></tspan><tspan style="color: #009388; "><![CDATA[o]]></tspan></text>
			<rect x="45" y="32" width="50" height="1" fill="#009489"/>
			<rect x="45" y="32" width="10" height="1" fill="#b90546"/>
			<rect x="55" y="32" width="10" height="1" fill="#5255a5"/>
			<rect x="65" y="32" width="10" height="1" fill="#79ad36"/>
			<rect x="75" y="32" width="10" height="1" fill="#ddb10a"/>
		</g>
	</g>
</svg>