<?xml version="1.0" standalone="no"?>
<!-- Generator: Adobe Fireworks 10, Export SVG Extension by Aaron Beall (http://fireworks.abeall.com) . Version: 0.6.1  -->
<!DOCTYPE svg PUBLIC "-//W3C//DTD SVG 1.1//EN" "http://www.w3.org/Graphics/SVG/1.1/DTD/svg11.dtd">
<svg id="Untitled-Page%201" viewBox="0 0 45 50" style="background-color:#ffffff00" version="1.1"
	xmlns="http://www.w3.org/2000/svg" xmlns:xlink="http://www.w3.org/1999/xlink" xml:space="preserve"
	x="0px" y="0px" width="45px" height="50px"
>
	<g id="Layer%201">
		<path d="M 13.0425 26.7175 L 15.25 25.5 C 14.8199 24.9275 14.4584 24.2993 14.1775 23.63 L 11.7325 24.2575 C 11.378 23.3268 11.1429 22.3356 11.0475 21.305 L 13.565 21.3275 C 13.5216 20.9743 13.5 20.6149 13.5 20.25 C 13.5 19.8215 13.5306 19.3995 13.59 18.9875 L 11.1675 18.305 C 11.3485 17.2651 11.672 16.2733 12.1175 15.3525 L 14.295 16.5975 C 14.6244 15.8802 15.048 15.2145 15.55 14.6175 L 13.77 12.855 C 14.4748 12.0474 15.2932 11.3415 16.2 10.7625 L 17.45 12.93 C 18.1253 12.4862 18.8668 12.1343 19.655 11.89 L 19.0325 9.4675 C 20.0518 9.1641 21.1322 9 22.25 9 L 22.25 11.5 C 23.0593 11.5 23.8436 11.6093 24.5875 11.815 L 25.22 9.395 C 26.256 9.6777 27.2336 10.1061 28.1275 10.655 L 26.885 12.8275 C 27.5595 13.2496 28.173 13.761 28.7075 14.345 L 30.4825 12.5825 C 31.1855 13.337 31.7866 14.1892 32.2625 15.115 L 30.0725 16.3225 C 30.3958 16.9653 30.6428 17.6533 30.8 18.375 L 33.2225 17.755 C 33.4043 18.5576 33.5 19.3923 33.5 20.25 C 33.5 20.3975 33.4981 20.5438 33.4925 20.69 L 30.99 20.6675 C 30.9553 21.4022 30.83 22.1132 30.625 22.79 L 33.0325 23.47 C 32.7331 24.4739 32.296 25.4178 31.745 26.2825 L 29.5725 25.0425 C 29.1851 25.6334 28.7274 26.1753 28.2125 26.655 L 29.99 28.4125 C 29.2906 29.0759 28.5063 29.6521 27.655 30.12 L 26.405 27.9525 C 25.8039 28.2773 25.1605 28.5345 24.485 28.7125 L 25.1075 31.135 C 24.2725 31.3538 23.399 31.4779 22.5 31.4975 L 22.5 28.9975 L 22.25 29 C 21.6134 29 20.9929 28.9316 20.395 28.8025 L 19.7425 31.22 C 18.7647 30.9974 17.835 30.6464 16.9725 30.1875 L 18.245 28.03 C 17.5992 27.6969 16.9997 27.2867 16.46 26.81 L 14.6525 28.5475 C 14.0527 27.9981 13.5118 27.3843 13.0425 26.7175 ZM 37.5234 45.4063 C 37.3203 45.3438 37.0625 45.2266 36.75 45.0547 L 36.75 44 C 36.9844 44.1563 37.2266 44.2734 37.4766 44.3672 C 37.7266 44.4609 37.9375 44.5 38.1094 44.5 C 38.2813 44.5 38.4297 44.4609 38.5547 44.3828 C 38.6797 44.3047 38.75 44.2031 38.75 44.0938 C 38.75 43.9844 38.7031 43.8906 38.625 43.8125 C 38.5391 43.7344 38.3594 43.6094 38.0859 43.4297 C 37.5391 43.0859 37.1797 42.7969 37.0078 42.5547 C 36.8359 42.3125 36.75 42.0469 36.75 41.7578 C 36.75 41.3906 36.8906 41.0859 37.1797 40.8516 C 37.4688 40.6172 37.8438 40.5 38.2969 40.5 C 38.7656 40.5 39.25 40.6484 39.75 40.9453 L 39.75 42 C 39.1875 41.6719 38.7266 41.5 38.3672 41.5 C 38.1797 41.5 38.0234 41.5313 37.9141 41.5938 C 37.8047 41.6563 37.75 41.7422 37.75 41.8359 C 37.75 41.9297 37.7734 42.0156 37.8359 42.0938 C 37.8906 42.1719 38.0391 42.2891 38.2734 42.4297 L 38.5781 42.625 C 39.3594 43.0859 39.75 43.5938 39.75 44.1406 C 39.75 44.5391 39.6016 44.8672 39.3203 45.1172 C 39.0391 45.375 38.6719 45.5 38.2266 45.5 C 37.9609 45.5 37.7266 45.4688 37.5234 45.4063 ZM 31.25 40.5 L 32.25 40.5 L 32.25 41 C 32.7344 40.6719 33.2813 40.5 33.8984 40.5 C 34.2422 40.5 34.5547 40.5859 34.8516 40.7422 C 35.1406 40.8984 35.3594 41.1172 35.5156 41.3906 C 35.6719 41.6641 35.75 42.1016 35.75 42.6953 L 35.75 45.5 L 34.75 45.5 L 34.75 42.8359 C 34.75 42.3594 34.6563 42.0156 34.4844 41.8125 C 34.3047 41.6094 34.0078 41.5 33.6016 41.5 C 33.0703 41.5 32.6172 41.6719 32.25 42 L 32.25 45.5 L 31.25 45.5 L 31.25 40.5 ZM 25.9609 41.2188 C 26.4375 40.7422 27.0391 40.5 27.7656 40.5 C 28.4766 40.5 29.0703 40.7422 29.5391 41.2266 C 30.0078 41.7109 30.25 42.3125 30.25 43.0391 C 30.25 43.75 30.0078 44.3359 29.5313 44.8047 C 29.0469 45.2734 28.4453 45.5 27.7188 45.5 C 27.0156 45.5 26.4219 45.2656 25.9531 44.7891 C 25.4844 44.3203 25.25 43.7266 25.25 43.0078 C 25.25 42.2969 25.4844 41.7031 25.9609 41.2188 ZM 22.8984 38.6563 C 22.9922 38.5547 23.1094 38.5 23.2422 38.5 C 23.3828 38.5 23.5 38.5547 23.6016 38.6484 C 23.6953 38.7422 23.75 38.8594 23.75 39 C 23.75 39.1406 23.6953 39.2578 23.6016 39.3516 C 23.5 39.4531 23.3828 39.5 23.2422 39.5 C 23.1094 39.5 22.9922 39.4531 22.8984 39.3516 C 22.7969 39.25 22.75 39.1328 22.75 39 C 22.75 38.875 22.7969 38.7578 22.8984 38.6563 ZM 22.75 45.5 L 22.75 40.5 L 23.75 40.5 L 23.75 45.5 L 22.75 45.5 ZM 18.75 41.5 L 18.75 41.375 L 20.75 39 L 20.75 40.5 L 21.75 40.5 L 21.75 41.5 L 20.75 41.5 L 20.75 43.7188 C 20.75 44.2422 20.9375 44.5 21.3281 44.5 L 22.25 44.5 L 22.25 45.2422 C 21.9063 45.4141 21.5391 45.5 21.1484 45.5 C 20.7422 45.5 20.4141 45.375 20.1484 45.125 C 20.0625 45.0469 19.9922 44.9609 19.9375 44.8672 C 19.8828 44.7734 19.8359 44.6484 19.8047 44.4922 C 19.7656 44.3359 19.75 44.0469 19.75 43.6172 L 19.75 41.5 L 18.75 41.5 ZM 14.75 48 L 13.75 48 L 13.75 40.5 L 15.4688 40.5 C 16.3438 40.5 17.0234 40.7188 17.5156 41.1563 C 18 41.5938 18.25 42.1953 18.25 42.9766 C 18.25 43.7109 18.0156 44.3203 17.5547 44.7891 C 17.0938 45.2656 16.5078 45.5 15.7969 45.5 C 15.4844 45.5 15.1328 45.4297 14.75 45.2891 L 14.75 48 ZM 5.875 39.0781 C 6.625 38.3594 7.5781 38 8.7344 38 C 9.875 38 10.8359 38.3594 11.6016 39.0781 C 12.3672 39.7969 12.75 40.6875 12.75 41.7656 C 12.75 42.8438 12.3594 43.7422 11.5938 44.4453 C 10.8203 45.1484 9.8438 45.5 8.6719 45.5 C 7.5469 45.5 6.6172 45.1484 5.8672 44.4453 C 5.1172 43.7422 4.75 42.8516 4.75 41.7813 C 4.75 40.6953 5.125 39.7969 5.875 39.0781 ZM 0 0 L 0 50 L 45 50 L 45 0 L 0 0 ZM 16 20.25 C 16 23.7018 18.7982 26.5 22.25 26.5 C 25.7018 26.5 28.5 23.7018 28.5 20.25 C 28.5 16.7982 25.7018 14 22.25 14 C 18.7982 14 16 16.7982 16 20.25 ZM 18.5 20.25 C 18.5 18.1789 20.1789 16.5 22.25 16.5 C 24.3211 16.5 26 18.1789 26 20.25 C 26 22.3211 24.3211 24 22.25 24 C 20.1789 24 18.5 22.3211 18.5 20.25 ZM 28.8125 41.9297 C 28.5156 41.6484 28.1563 41.5 27.7188 41.5 C 27.2813 41.5 26.9297 41.6484 26.6563 41.9297 C 26.3828 42.2109 26.25 42.5781 26.25 43.0156 C 26.25 43.4531 26.3906 43.8125 26.6719 44.0859 C 26.9531 44.3672 27.3125 44.5 27.7578 44.5 C 28.1953 44.5 28.5469 44.3672 28.8281 44.0859 C 29.1094 43.8047 29.25 43.4453 29.25 43.0078 C 29.25 42.5703 29.1016 42.2109 28.8125 41.9297 ZM 16.4766 41.6563 C 16.2422 41.5547 15.8906 41.5 15.4375 41.5 L 14.75 41.5 L 14.75 44.4219 C 15.0469 44.4766 15.3672 44.5 15.6953 44.5 C 16.1484 44.5 16.5156 44.3594 16.8125 44.0625 C 17.1016 43.7734 17.25 43.3984 17.25 42.9297 C 17.25 42.6406 17.1797 42.3828 17.0391 42.1563 C 16.8984 41.9297 16.7109 41.7656 16.4766 41.6563 ZM 10.8828 39.7891 C 10.3047 39.2656 9.6016 39 8.7734 39 C 7.8906 39 7.1641 39.2656 6.6016 39.7813 C 6.0313 40.2969 5.75 40.9609 5.75 41.7656 C 5.75 42.5547 6.0313 43.2109 6.6016 43.7266 C 7.1641 44.2422 7.8828 44.5 8.7422 44.5 C 9.5938 44.5 10.3047 44.2422 10.8828 43.7109 C 11.4609 43.1797 11.75 42.5234 11.75 41.7266 C 11.75 40.9609 11.4609 40.3125 10.8828 39.7891 Z" fill="#222222"/>
	</g>
</svg>