<?xml version="1.0" standalone="no"?>
<!-- Generator: Adobe Fireworks 10, Export SVG Extension by Aaron Beall (http://fireworks.abeall.com) . Version: 0.6.1  -->
<!DOCTYPE svg PUBLIC "-//W3C//DTD SVG 1.1//EN" "http://www.w3.org/Graphics/SVG/1.1/DTD/svg11.dtd">
<svg id="Untitled-Page%201" viewBox="0 0 50 50" style="background-color:#ffffff00" version="1.1"
	xmlns="http://www.w3.org/2000/svg" xmlns:xlink="http://www.w3.org/1999/xlink" xml:space="preserve"
	x="0px" y="0px" width="50px" height="50px"
>
	<g id="Layer%201">
		<path d="M 31.7273 39.5454 L 31.7273 41 L 39 41 L 39 39.5454 L 37.961 39.5454 C 37.1003 39.5454 36.4026 38.5686 36.4026 37.3636 L 36.4026 12.6364 C 36.4026 11.4314 37.1003 10.4546 37.961 10.4546 L 39 10.4546 L 39 9 L 31.7273 9 L 31.7273 10.4546 L 32.7662 10.4546 C 33.627 10.4546 34.3247 11.4314 34.3247 12.6364 L 34.3247 37.3636 C 34.3247 38.5686 33.627 39.5454 32.7662 39.5454 L 31.7273 39.5454 ZM 11 35.9091 L 14.1023 35.9091 L 16.9659 29.3636 L 26.1818 29.3636 L 29 35.9091 L 32.0909 35.9091 L 22.5341 14.0909 L 20.5341 14.0909 L 11 35.9091 ZM 18.2273 26.4546 L 21.5455 18.8864 L 24.9432 26.4546 L 18.2273 26.4546 Z" fill="#ddb10a"/>
	</g>
</svg>