<?xml version="1.0" standalone="no"?>
<!-- Generator: Adobe Fireworks 10, Export SVG Extension by Aaron Beall (http://fireworks.abeall.com) . Version: 0.6.1  -->
<!DOCTYPE svg PUBLIC "-//W3C//DTD SVG 1.1//EN" "http://www.w3.org/Graphics/SVG/1.1/DTD/svg11.dtd">
<svg id="Untitled-Page%201" viewBox="0 0 30 30" style="background-color:#ffffff00" version="1.1"
	xmlns="http://www.w3.org/2000/svg" xmlns:xlink="http://www.w3.org/1999/xlink" xml:space="preserve"
	x="0px" y="0px" width="30px" height="30px"
>
	<g id="Layer%201">
		<path d="M 19.5 25 L 19.5 26 L 24.5 26 L 24.5 25 L 23.7857 25 C 23.194 25 22.7143 24.3284 22.7143 23.5 L 22.7143 6.5 C 22.7143 5.6716 23.194 5 23.7857 5 L 24.5 5 L 24.5 4 L 19.5 4 L 19.5 5 L 20.2143 5 C 20.806 5 21.2857 5.6716 21.2857 6.5 L 21.2857 23.5 C 21.2857 24.3284 20.806 25 20.2143 25 L 19.5 25 ZM 5.25 22.5 L 7.3828 22.5 L 9.3516 18 L 15.6875 18 L 17.625 22.5 L 19.75 22.5 L 13.1797 7.5 L 11.8047 7.5 L 5.25 22.5 ZM 10.2188 16 L 12.5 10.7969 L 14.8359 16 L 10.2188 16 Z" fill="#ffffff"/>
	</g>
</svg>