<?xml version="1.0" standalone="no"?>
<!-- Generator: Adobe Fireworks 10, Export SVG Extension by Aaron Beall (http://fireworks.abeall.com) . Version: 0.6.1  -->
<!DOCTYPE svg PUBLIC "-//W3C//DTD SVG 1.1//EN" "http://www.w3.org/Graphics/SVG/1.1/DTD/svg11.dtd">
<svg id="Untitled-Page%201" viewBox="0 0 45 50" style="background-color:#ffffff00" version="1.1"
	xmlns="http://www.w3.org/2000/svg" xmlns:xlink="http://www.w3.org/1999/xlink" xml:space="preserve"
	x="0px" y="0px" width="45px" height="50px"
>
	<g id="Layer%201">
		<path d="M 33.5234 45.4063 C 33.3203 45.3438 33.0625 45.2266 32.75 45.0547 L 32.75 44 C 32.9844 44.1563 33.2266 44.2734 33.4766 44.3672 C 33.7266 44.4609 33.9375 44.5 34.1094 44.5 C 34.2813 44.5 34.4297 44.4609 34.5547 44.3828 C 34.6797 44.3047 34.75 44.2031 34.75 44.0938 C 34.75 43.9844 34.7031 43.8906 34.625 43.8125 C 34.5391 43.7344 34.3594 43.6094 34.0859 43.4297 C 33.5391 43.0859 33.1797 42.7969 33.0078 42.5547 C 32.8359 42.3125 32.75 42.0469 32.75 41.7578 C 32.75 41.3906 32.8906 41.0859 33.1797 40.8516 C 33.4688 40.6172 33.8438 40.5 34.2969 40.5 C 34.7656 40.5 35.25 40.6484 35.75 40.9453 L 35.75 42 C 35.1875 41.6719 34.7266 41.5 34.3672 41.5 C 34.1797 41.5 34.0234 41.5313 33.9141 41.5938 C 33.8047 41.6563 33.75 41.7422 33.75 41.8359 C 33.75 41.9297 33.7734 42.0156 33.8359 42.0938 C 33.8906 42.1719 34.0391 42.2891 34.2734 42.4297 L 34.5781 42.625 C 35.3594 43.0859 35.75 43.5938 35.75 44.1406 C 35.75 44.5391 35.6016 44.8672 35.3203 45.1172 C 35.0391 45.375 34.6719 45.5 34.2266 45.5 C 33.9609 45.5 33.7266 45.4688 33.5234 45.4063 ZM 28.4141 41.2266 L 30.8516 38 L 31.75 38 L 31.75 45.5 L 30.75 45.5 L 30.75 39.6406 L 28.5938 42.5 L 28.3984 42.5 L 25.75 39.6406 L 25.75 45.5 L 24.75 45.5 L 24.75 38 L 25.4219 38 L 28.4141 41.2266 ZM 16.375 39.0781 C 17.125 38.3594 18.0781 38 19.2344 38 C 20.375 38 21.3359 38.3594 22.1016 39.0781 C 22.8672 39.7969 23.25 40.6875 23.25 41.7656 C 23.25 42.8438 22.8594 43.7422 22.0938 44.4453 C 21.3203 45.1484 20.3438 45.5 19.1719 45.5 C 18.0469 45.5 17.1172 45.1484 16.3672 44.4453 C 15.6172 43.7422 15.25 42.8516 15.25 41.7813 C 15.25 40.6953 15.625 39.7969 16.375 39.0781 ZM 10.25 45.5 L 9.25 45.5 L 9.25 38 L 11.1953 38 C 11.9766 38 12.5938 38.1797 13.0547 38.5313 C 13.5156 38.8828 13.75 39.3594 13.75 39.9531 C 13.75 40.3672 13.6484 40.7266 13.4453 41.0234 C 13.2422 41.3203 12.9609 41.5469 12.5938 41.6875 C 12.8203 41.8594 13.0469 42.0859 13.2656 42.375 C 13.4844 42.6641 13.8047 43.1719 14.2266 43.8906 C 14.4844 44.3516 14.6953 44.6953 14.8516 44.9219 L 15.25 45.5 L 14.1484 45.5 L 13.8125 44.9531 C 13.7969 44.9375 13.7734 44.8984 13.7422 44.8516 L 13.5313 44.5234 L 13.1875 43.9219 L 12.8203 43.2734 C 12.5859 42.9375 12.3594 42.6797 12.1328 42.5 C 11.9063 42.3281 11.7031 42.1953 11.5156 42.1172 C 11.3281 42.0391 11.0234 42 10.5938 42 L 10.25 42 L 10.25 45.5 ZM 12 11 L 12 10.4286 L 9.0825 10.4275 L 9.0882 10.0609 L 9.3243 10.0609 L 9.3275 9.8575 L 11.5 9.8571 L 11.5 9.2857 L 9.0975 9.285 L 9.1001 9.145 L 9.3361 9.145 L 9.3425 8.715 L 11.5 8.7143 L 11.5 8.1429 L 9.35 8.1425 L 9.3538 7.7726 L 9.118 7.7726 L 9.12 7.5725 L 12 7.5714 L 12 7 L 9.365 7 L 9.3656 6.8589 L 9.1299 6.8589 L 9.1596 4.5778 L 33.4101 4.5778 L 33.4084 5.9459 L 36 5.9459 L 36 6.8589 L 35.7643 6.8589 L 35.765 7 L 33 7 L 33 7.5714 L 36 7.5714 L 36 7.7726 L 35.7642 7.7726 L 35.765 8.1425 L 33.5 8.1429 L 33.5 8.7143 L 35.765 8.715 L 35.764 9.145 L 36 9.145 L 36 9.2857 L 33.5 9.2857 L 33.5 9.8571 L 35.765 9.8575 L 35.7639 10.0609 L 36 10.0609 L 36 10.4286 L 33 10.4286 L 33 11 L 36 11 L 36 16.4475 L 33.9167 16.1875 C 33.9167 16.1875 34.2109 30.7814 34.235 34.045 L 10.6825 34.045 C 10.7064 30.7803 11 16.1875 11 16.1875 L 9.005 16.4375 L 9.075 11 L 12 11 ZM 34.9175 34.045 L 34.9167 17 L 35.7625 17 L 35.7612 34.0444 L 34.9175 34.045 ZM 9.235 17 L 10 17 L 10 34.045 L 9.1667 34 L 9.235 17 ZM 0 0 L 0 50 L 45 50 L 45 0 L 0 0 ZM 21.3828 39.7891 C 20.8047 39.2656 20.1016 39 19.2734 39 C 18.3906 39 17.6641 39.2656 17.1016 39.7813 C 16.5313 40.2969 16.25 40.9609 16.25 41.7656 C 16.25 42.5547 16.5313 43.2109 17.1016 43.7266 C 17.6641 44.2422 18.3828 44.5 19.2422 44.5 C 20.0938 44.5 20.8047 44.2422 21.3828 43.7109 C 21.9609 43.1797 22.25 42.5234 22.25 41.7266 C 22.25 40.9609 21.9609 40.3125 21.3828 39.7891 ZM 11.9219 39.1016 C 11.6563 39.0391 11.2266 39 10.625 39 L 10.25 39 L 10.25 41 L 10.7188 41 C 11.3438 41 11.7734 40.9609 12.0078 40.8828 C 12.2422 40.8047 12.4219 40.6875 12.5547 40.5313 C 12.6797 40.375 12.75 40.1875 12.75 39.9844 C 12.75 39.7891 12.6719 39.6094 12.5313 39.4453 C 12.3906 39.2891 12.1875 39.1719 11.9219 39.1016 ZM 22.1551 33.1658 C 22.1551 33.1658 22.3621 33.4439 22.6325 33.1658 C 22.9028 32.8876 24.3126 31.5275 24.3126 31.5275 C 24.3126 31.5275 24.7623 31.0599 23.8383 31.0599 L 20.8575 31.0599 C 20.8575 31.0599 20.008 31.0453 20.4963 31.5275 L 22.1551 33.1658 ZM 12.7192 12.555 C 12.3929 12.555 12.1254 12.8121 12.1217 13.1292 L 11.9281 29.9211 C 11.9244 30.2435 12.1882 30.5049 12.5174 30.5049 L 32.1856 30.5049 C 32.5147 30.5049 32.782 30.2435 32.7825 29.9211 L 32.8083 13.1292 C 32.8088 12.8121 32.5447 12.555 32.2184 12.555 L 12.7192 12.555 ZM 13.9639 13.5 L 31.0352 13.5833 C 31.471 13.5833 31.8237 13.9217 31.823 14.3393 L 31.797 28.8154 C 31.7962 29.2394 31.4394 29.5833 31 29.5833 L 13.7869 29.5 C 13.3475 29.5 12.9952 29.1561 13.0001 28.7321 L 13.166 14.256 C 13.1708 13.8384 13.528 13.5 13.9639 13.5 ZM 14.9119 6.1455 C 13.3503 6.1455 12.0702 7.3722 12.0527 8.8876 C 12.0351 10.4051 13.2901 11.6369 14.8558 11.6369 L 29.9757 11.6369 C 31.5414 11.6369 32.8125 10.4051 32.8149 8.8876 C 32.8172 7.3722 31.5532 6.1455 29.9917 6.1455 L 14.9119 6.1455 Z" fill="#222222"/>
	</g>
</svg>