<?xml version="1.0" standalone="no"?>
<!-- Generator: Adobe Fireworks 10, Export SVG Extension by Aaron Beall (http://fireworks.abeall.com) . Version: 0.6.1  -->
<!DOCTYPE svg PUBLIC "-//W3C//DTD SVG 1.1//EN" "http://www.w3.org/Graphics/SVG/1.1/DTD/svg11.dtd">
<svg id="Untitled-Page%201" viewBox="0 0 45 50" style="background-color:#ffffff00" version="1.1"
	xmlns="http://www.w3.org/2000/svg" xmlns:xlink="http://www.w3.org/1999/xlink" xml:space="preserve"
	x="0px" y="0px" width="45px" height="50px"
>
	<g id="Layer%201">
		<path d="M 32.5234 45.4063 C 32.3203 45.3438 32.0625 45.2266 31.75 45.0547 L 31.75 44 C 31.9844 44.1563 32.2266 44.2734 32.4766 44.3672 C 32.7266 44.4609 32.9375 44.5 33.1094 44.5 C 33.2813 44.5 33.4297 44.4609 33.5547 44.3828 C 33.6797 44.3047 33.75 44.2031 33.75 44.0938 C 33.75 43.9844 33.7031 43.8906 33.625 43.8125 C 33.5391 43.7344 33.3594 43.6094 33.0859 43.4297 C 32.5391 43.0859 32.1797 42.7969 32.0078 42.5547 C 31.8359 42.3125 31.75 42.0469 31.75 41.7578 C 31.75 41.3906 31.8906 41.0859 32.1797 40.8516 C 32.4688 40.6172 32.8438 40.5 33.2969 40.5 C 33.7656 40.5 34.25 40.6484 34.75 40.9453 L 34.75 42 C 34.1875 41.6719 33.7266 41.5 33.3672 41.5 C 33.1797 41.5 33.0234 41.5313 32.9141 41.5938 C 32.8047 41.6563 32.75 41.7422 32.75 41.8359 C 32.75 41.9297 32.7734 42.0156 32.8359 42.0938 C 32.8906 42.1719 33.0391 42.2891 33.2734 42.4297 L 33.5781 42.625 C 34.3594 43.0859 34.75 43.5938 34.75 44.1406 C 34.75 44.5391 34.6016 44.8672 34.3203 45.1172 C 34.0391 45.375 33.6719 45.5 33.2266 45.5 C 32.9609 45.5 32.7266 45.4688 32.5234 45.4063 ZM 30.75 42.8828 L 30.75 43 L 27.25 43 C 27.2734 43.4609 27.4375 43.8281 27.7422 44.0938 C 28.0391 44.3672 28.4297 44.5 28.9063 44.5 C 29.5703 44.5 30.1875 44.3359 30.75 44 L 30.75 44.9453 C 30.4375 45.1484 30.125 45.2891 29.8281 45.375 C 29.5234 45.4609 29.1641 45.5 28.7578 45.5 C 28.1953 45.5 27.7344 45.3906 27.3906 45.1719 C 27.0469 44.9531 26.7656 44.6563 26.5625 44.2813 C 26.3516 43.9063 26.25 43.4766 26.25 42.9844 C 26.25 42.25 26.4609 41.6563 26.8906 41.1953 C 27.3203 40.7344 27.8828 40.5 28.5703 40.5 C 29.2344 40.5 29.7656 40.7188 30.1563 41.1484 C 30.5469 41.5859 30.75 42.1641 30.75 42.8828 ZM 22.25 41.5 L 22.25 41.375 L 24.25 39 L 24.25 40.5 L 25.25 40.5 L 25.25 41.5 L 24.25 41.5 L 24.25 43.7188 C 24.25 44.2422 24.4375 44.5 24.8281 44.5 L 25.75 44.5 L 25.75 45.2422 C 25.4063 45.4141 25.0391 45.5 24.6484 45.5 C 24.2422 45.5 23.9141 45.375 23.6484 45.125 C 23.5625 45.0469 23.4922 44.9609 23.4375 44.8672 C 23.3828 44.7734 23.3359 44.6484 23.3047 44.4922 C 23.2656 44.3359 23.25 44.0469 23.25 43.6172 L 23.25 41.5 L 22.25 41.5 ZM 21.7109 41.7422 C 21.7344 41.8984 21.75 42.1797 21.75 42.6016 L 21.75 44.7422 C 21.75 44.9141 21.7891 45 21.8672 45 L 22.25 45 L 22.25 45.3125 C 22.0469 45.3906 21.8906 45.4375 21.7734 45.4609 C 21.6563 45.4922 21.5313 45.5 21.4063 45.5 C 21.0313 45.5 20.8125 45.3984 20.75 45.1875 C 20.3359 45.3984 19.8984 45.5 19.4375 45.5 C 19.0938 45.5 18.8125 45.3906 18.5859 45.1641 C 18.3594 44.9453 18.25 44.6641 18.25 44.3203 C 18.25 44.0156 18.3594 43.7422 18.5781 43.5 C 18.7969 43.2578 19.1094 43.0625 19.5156 42.9219 L 20.75 42.5 L 20.75 42.2734 C 20.75 41.7578 20.4453 41.5 19.8438 41.5 C 19.2969 41.5 18.7656 41.6719 18.25 42 L 18.25 41.0781 C 18.6406 40.6953 19.1953 40.5 19.9297 40.5 C 20.6797 40.5 21.125 40.6484 21.25 40.9297 C 21.3594 41.0234 21.4531 41.1406 21.5469 41.2891 C 21.6328 41.4453 21.6875 41.5938 21.7109 41.7422 ZM 14.25 41.5 L 14.25 41.375 L 16.25 39 L 16.25 40.5 L 17.25 40.5 L 17.25 41.5 L 16.25 41.5 L 16.25 43.7188 C 16.25 44.2422 16.4375 44.5 16.8281 44.5 L 17.75 44.5 L 17.75 45.2422 C 17.4063 45.4141 17.0391 45.5 16.6484 45.5 C 16.2422 45.5 15.9141 45.375 15.6484 45.125 C 15.5625 45.0469 15.4922 44.9609 15.4375 44.8672 C 15.3828 44.7734 15.3359 44.6484 15.3047 44.4922 C 15.2656 44.3359 15.25 44.0469 15.25 43.6172 L 15.25 41.5 L 14.25 41.5 ZM 12.75 43.4922 C 12.75 43.0313 12.4375 42.6172 11.8281 42.2422 L 11.0703 41.7891 C 10.5859 41.5078 10.25 41.2266 10.0469 40.9297 C 9.8438 40.6406 9.75 40.3047 9.75 39.9219 C 9.75 39.3594 9.9297 38.8984 10.2969 38.5391 C 10.6563 38.1797 11.1328 38 11.7188 38 C 12.2734 38 12.7813 38.2109 13.25 38.625 L 13.25 39.625 C 12.7891 39.2109 12.2969 39 11.7734 39 C 11.4688 39 11.2188 39.0859 11.0313 39.2422 C 10.8438 39.4063 10.75 39.6094 10.75 39.8594 C 10.75 40.0859 10.8203 40.2969 10.9609 40.4922 C 11.1016 40.6875 11.3516 40.8828 11.6953 41.0859 L 12.4688 41.5391 C 13.3203 42.0547 13.75 42.7266 13.75 43.5391 C 13.75 44.1172 13.5547 44.5938 13.1719 44.9531 C 12.7891 45.3203 12.2891 45.5 11.6797 45.5 C 10.9688 45.5 10.3281 45.2969 9.75 44.875 L 9.75 43.375 C 10.2969 44.125 10.9219 44.5 11.6406 44.5 C 11.9531 44.5 12.2188 44.4063 12.4297 44.2188 C 12.6406 44.0313 12.75 43.7891 12.75 43.4922 ZM 30.035 7 C 30.0129 6.8086 30 6.6384 30 6.5 C 30 6.5 30.625 5.625 31.5 6.5 C 31.5 6.5 31.4828 6.6872 31.445 7 L 30.035 7 ZM 27.535 7 C 27.5129 6.8086 27.5 6.6384 27.5 6.5 C 27.5 6.5 28.125 5.625 29 6.5 C 29 6.5 28.9829 6.6874 28.945 7 L 27.535 7 ZM 25.035 7 C 25.0129 6.8086 25 6.6384 25 6.5 C 25 6.5 25.625 5.625 26.5 6.5 C 26.5 6.5 26.4829 6.6874 26.445 7 L 25.035 7 ZM 22.535 7 C 22.5129 6.8086 22.5 6.6384 22.5 6.5 C 22.5 6.5 23.125 5.625 24 6.5 C 24 6.5 23.9829 6.6874 23.945 7 L 22.535 7 ZM 20.035 7 C 20.0129 6.8086 20 6.6384 20 6.5 C 20 6.5 20.625 5.625 21.5 6.5 C 21.5 6.5 21.4829 6.6874 21.445 7 L 20.035 7 ZM 17.535 7 C 17.5129 6.8086 17.5 6.6384 17.5 6.5 C 17.5 6.5 18.125 5.625 19 6.5 C 19 6.5 18.9829 6.6874 18.945 7 L 17.535 7 ZM 15.035 7 C 15.0129 6.8086 15 6.6384 15 6.5 C 15 6.5 15.625 5.625 16.5 6.5 C 16.5 6.5 16.4829 6.6874 16.445 7 L 15.035 7 ZM 12.535 7 C 12.5131 6.8086 12.5 6.6383 12.5 6.5 C 12.5 6.5 13.125 5.625 14 6.5 C 14 6.5 13.9829 6.6874 13.945 7 L 12.535 7 ZM 35.2469 28.2781 L 34.5 26.5 L 34 26.25 L 34 28.0906 L 34 28.74 L 34 28.75 C 33.9954 30.0517 33.0899 31.1405 31.8744 31.4262 L 31.8906 31.2969 C 31.9219 31.0469 31.9844 30.6094 31.9844 30.5469 C 31.9844 29.8906 31.1406 29.5781 30.7031 29.5781 C 30.2656 29.5781 29.8594 29.7344 29.5156 30.3281 L 29.5156 30.8906 C 29.5156 30.9959 29.5472 31.2161 29.5981 31.5 L 29.3644 31.5 L 29.3906 31.2969 C 29.4219 31.0469 29.4844 30.6094 29.4844 30.5469 C 29.4844 29.8906 28.6406 29.5781 28.2031 29.5781 C 27.7656 29.5781 27.3594 29.7344 27.0156 30.3281 L 27.0156 30.8906 C 27.0156 30.9959 27.0472 31.2161 27.0981 31.5 L 26.8644 31.5 L 26.8906 31.2969 C 26.9219 31.0469 26.9844 30.6094 26.9844 30.5469 C 26.9844 29.8906 26.1406 29.5781 25.7031 29.5781 C 25.2656 29.5781 24.8594 29.7344 24.5156 30.3281 L 24.5156 30.8906 C 24.5156 30.9959 24.5472 31.2161 24.5981 31.5 L 24.3644 31.5 L 24.3906 31.2969 C 24.4219 31.0469 24.4844 30.6094 24.4844 30.5469 C 24.4844 29.8906 23.6406 29.5781 23.2031 29.5781 C 22.7656 29.5781 22.3594 29.7344 22.0156 30.3281 L 22.0156 30.8906 C 22.0156 30.9959 22.0472 31.2161 22.0981 31.5 L 21.8644 31.5 L 21.8906 31.2969 C 21.9219 31.0469 21.9844 30.6094 21.9844 30.5469 C 21.9844 29.8906 21.1406 29.5781 20.7031 29.5781 C 20.2656 29.5781 19.8594 29.7344 19.5156 30.3281 L 19.5156 30.8906 C 19.5156 30.9959 19.5472 31.2161 19.5981 31.5 L 19.3644 31.5 L 19.3906 31.2969 C 19.4219 31.0469 19.4844 30.6094 19.4844 30.5469 C 19.4844 29.8906 18.6406 29.5781 18.2031 29.5781 C 17.7656 29.5781 17.3594 29.7344 17.0156 30.3281 L 17.0156 30.8906 C 17.0156 30.9959 17.0472 31.2161 17.0981 31.5 L 16.8644 31.5 L 16.8906 31.2969 C 16.9219 31.0469 16.9844 30.6094 16.9844 30.5469 C 16.9844 29.8906 16.1406 29.5781 15.7031 29.5781 C 15.2656 29.5781 14.8594 29.7344 14.5156 30.3281 L 14.5156 30.8906 C 14.5156 30.9959 14.5472 31.2161 14.5981 31.5 L 14.3644 31.5 L 14.3906 31.2969 C 14.4219 31.0469 14.4844 30.6094 14.4844 30.5469 C 14.4844 29.8906 13.6406 29.5781 13.2031 29.5781 C 12.7656 29.5781 12.3594 29.7344 12.0156 30.3281 L 12.0156 30.8906 C 12.0156 30.9853 12.0415 31.1734 12.0837 31.4169 C 10.8895 31.116 10.0046 30.0366 10 28.75 L 10 28.74 L 10 28.0906 L 10 26.25 L 9.5 26.5 L 8.7531 28.2781 C 9.2616 27.8947 9.6931 27.943 10 28.0906 L 10 28.74 L 10 28.75 L 9.5 29 L 8.1875 32.125 L 8.4588 28.9794 L 8.1875 29.625 L 8.4588 26.4794 L 8.1875 27.125 L 8.4588 23.9794 L 8.1875 24.625 L 8.4588 21.4794 L 8.1875 22.125 L 8.4588 18.9794 L 8.1875 19.625 L 8.4588 16.4794 L 8.1875 17.125 L 8.4588 13.9794 L 8.1875 14.625 L 8.5 11 C 9.1185 10.3815 9.6434 10.419 10 10.5906 L 10 10.26 C 10 8.7874 11.1524 7.585 12.605 7.505 L 30.105 7.5 L 31.24 7.5 L 31.38 7.5025 C 32.8393 7.5754 34 8.7826 34 10.26 L 34 10.5906 C 34.3566 10.419 34.8815 10.3815 35.5 11 L 35.8125 14.625 L 35.5412 13.9794 L 35.8125 17.125 L 35.5412 16.4794 L 35.8125 19.625 L 35.5412 18.9794 L 35.8125 22.125 L 35.5412 21.4794 L 35.8125 24.625 L 35.5412 23.9794 L 35.8125 27.125 L 35.5412 26.4794 L 35.8125 29.625 L 35.5412 28.9794 L 35.8125 32.125 L 34.5 29 L 34 28.75 L 34 28.74 L 34 28.0906 C 34.3069 27.943 34.7384 27.8947 35.2469 28.2781 ZM 30.7031 30.0781 C 30.873 30.0781 31.3768 30.232 31.47 30.47 L 31.5 30.5 C 31.5 30.5 31.3125 32.625 30.75 34.5 C 30.75 34.5 30 31.5625 30 30.5 C 30 30.5 30.0241 30.4656 30.07 30.4175 C 30.1902 30.1911 30.4846 30.0781 30.7031 30.0781 ZM 28.2031 30.0781 C 28.373 30.0781 28.8768 30.232 28.97 30.47 L 29 30.5 C 29 30.5 28.8125 32.625 28.25 34.5 C 28.25 34.5 27.5 31.5625 27.5 30.5 C 27.5 30.5 27.5241 30.4656 27.57 30.4175 C 27.6902 30.1911 27.9846 30.0781 28.2031 30.0781 ZM 25.7031 30.0781 C 25.873 30.0781 26.3768 30.232 26.47 30.47 L 26.5 30.5 C 26.5 30.5 26.3125 32.625 25.75 34.5 C 25.75 34.5 25 31.5625 25 30.5 C 25 30.5 25.0241 30.4656 25.07 30.4175 C 25.1902 30.1911 25.4846 30.0781 25.7031 30.0781 ZM 23.2031 30.0781 C 23.373 30.0781 23.8768 30.232 23.97 30.47 L 24 30.5 C 24 30.5 23.8125 32.625 23.25 34.5 C 23.25 34.5 22.5 31.5625 22.5 30.5 C 22.5 30.5 22.5241 30.4656 22.57 30.4175 C 22.6902 30.1911 22.9846 30.0781 23.2031 30.0781 ZM 20.7031 30.0781 C 20.873 30.0781 21.3768 30.232 21.47 30.47 L 21.5 30.5 C 21.5 30.5 21.3125 32.625 20.75 34.5 C 20.75 34.5 20 31.5625 20 30.5 C 20 30.5 20.0241 30.4656 20.07 30.4175 C 20.1902 30.1911 20.4846 30.0781 20.7031 30.0781 ZM 18.9844 30.5469 C 18.9844 30.5204 18.9797 30.4947 18.97 30.47 L 19 30.5 L 18.97 30.7875 C 18.979 30.6942 18.9844 30.6133 18.9844 30.5469 ZM 18.8438 31.5 L 18.8675 31.5 C 18.8984 31.3223 18.9252 31.1557 18.945 31.0075 C 18.8546 31.7498 18.6441 33.1863 18.25 34.5 C 18.25 34.5 17.5 31.5625 17.5 30.5 C 17.5 30.5 17.5241 30.4656 17.57 30.4175 C 17.6902 30.1911 17.9846 30.0781 18.2031 30.0781 C 18.373 30.0781 18.8768 30.232 18.97 30.47 C 18.9797 30.4947 18.9844 30.5204 18.9844 30.5469 C 18.9844 30.6133 18.979 30.6942 18.97 30.7875 L 18.945 31.0075 C 18.9252 31.1557 18.8746 31.3223 18.8438 31.5 ZM 16.4844 30.5469 C 16.4844 30.5204 16.4797 30.4947 16.47 30.47 L 16.5 30.5 L 16.47 30.7875 C 16.479 30.6942 16.4844 30.6133 16.4844 30.5469 ZM 15.125 31.5 L 15.2025 31.5 L 15.2109 31.5469 L 16.3203 31.5078 L 16.3225 31.5 L 16.3675 31.5 C 16.3984 31.3223 16.4252 31.1557 16.445 31.0075 C 16.3546 31.7498 16.1441 33.1863 15.75 34.5 C 15.75 34.5 15 31.5625 15 30.5 C 15 30.5 15.0241 30.4656 15.07 30.4175 C 15.1902 30.1911 15.4846 30.0781 15.7031 30.0781 C 15.873 30.0781 16.3768 30.232 16.47 30.47 C 16.4797 30.4947 16.4844 30.5204 16.4844 30.5469 C 16.4844 30.6133 16.479 30.6942 16.47 30.7875 L 16.445 31.0075 C 16.4255 31.1535 16.3541 31.325 16.3225 31.5 L 15.2025 31.5 C 15.1346 31.1429 15.0156 30.806 15.0156 30.6406 C 15.0156 30.8133 15.0591 31.1258 15.125 31.5 ZM 13.2031 30.0781 C 13.373 30.0781 13.8768 30.232 13.97 30.47 L 14 30.5 C 14 30.5 13.8125 32.625 13.25 34.5 C 13.25 34.5 12.5 31.5625 12.5 30.5 C 12.5 30.5 12.5241 30.4656 12.57 30.4175 C 12.6902 30.1911 12.9846 30.0781 13.2031 30.0781 ZM 0 0 L 0 50 L 45 50 L 45 0 L 0 0 ZM 27.6875 41.7656 C 27.4609 41.9375 27.3125 42.1875 27.25 42.5 L 29.75 42.5 C 29.7188 42.1875 29.6016 41.9375 29.3984 41.7656 C 29.1875 41.5938 28.9063 41.5 28.5547 41.5 C 28.2031 41.5 27.9141 41.5938 27.6875 41.7656 ZM 19.9219 45 C 20.2188 45 20.4922 44.875 20.75 44.6172 L 20.75 43 L 20.125 43.2734 C 19.8047 43.4219 19.5781 43.5703 19.4453 43.7109 C 19.3125 43.8516 19.25 44.0313 19.25 44.25 C 19.25 44.4688 19.3125 44.6484 19.4375 44.7891 C 19.5625 44.9297 19.7188 45 19.9219 45 ZM 13.915 8 C 12.5812 8 11.5 9.0812 11.5 10.415 L 11.5 26.585 C 11.5 27.9188 12.5812 29 13.915 29 L 30.085 29 C 31.4188 29 32.5 27.9188 32.5 26.585 L 32.5 10.415 C 32.5 9.0812 31.4188 8 30.085 8 L 28.805 8 L 27.6925 8 L 26.305 8 L 25.1925 8 L 23.805 8 L 22.6925 8 L 21.305 8 L 20.1925 8 L 18.805 8 L 17.6925 8 L 16.305 8 L 15.1925 8 L 13.915 8 ZM 14.3 8.5 L 29.7 8.5 C 30.9703 8.5 32 9.5297 32 10.8 L 32 26.2 C 32 27.4703 30.9703 28.5 29.7 28.5 L 14.3 28.5 C 13.0297 28.5 12 27.4703 12 26.2 L 12 10.8 C 12 9.5297 13.0297 8.5 14.3 8.5 ZM 27 23 L 27 26 L 27.5 26 L 27.5 23 L 27 23 ZM 25.5 23 L 25.5 26 L 26 26 L 26.5 26 L 26.5 23 L 26 23 L 25.5 23 ZM 24 23 L 24 26 L 24.5 26 L 24.5 23 L 24 23 ZM 23 23 L 23 26 L 23.5 26 L 23.5 23 L 23 23 ZM 21.5 23 L 21.5 26 L 22 26 L 22.5 26 L 22.5 23 L 22 23 L 21.5 23 ZM 20.5 23 L 20.5 26 L 21 26 L 21 23 L 20.5 23 ZM 19 23 L 19 26 L 19.5 26 L 19.5 23 L 19 23 ZM 18 23 L 18 26 L 18.5 26 L 18.5 23 L 18 23 ZM 16.5 23 L 16.5 26 L 17 26 L 17.5 26 L 17.5 23 L 17 23 L 16.5 23 ZM 24.4095 13.1242 C 24.3561 13.1427 24.3134 13.1703 24.2814 13.2073 C 24.2494 13.2443 24.2334 13.2868 24.2334 13.3312 C 24.2334 13.3903 24.2725 13.4512 24.3543 13.5122 C 24.1214 13.5695 24.0058 13.6933 24.0058 13.8873 C 24.0058 14.024 24.0627 14.1349 24.1765 14.2162 C 24.2903 14.2975 24.4433 14.3381 24.6353 14.3381 C 24.8238 14.3381 24.9732 14.2975 25.0871 14.2181 C 25.2009 14.1349 25.2578 14.0278 25.2578 13.8911 C 25.2578 13.7875 25.2276 13.7007 25.1706 13.6323 C 25.1369 13.5917 25.0995 13.5621 25.0568 13.5399 C 25.0141 13.5178 24.9057 13.4882 24.7331 13.4494 C 24.63 13.5048 24.5589 13.503 24.5197 13.442 C 24.4806 13.381 24.461 13.333 24.461 13.2997 C 24.461 13.2424 24.5108 13.2055 24.6122 13.1888 C 24.758 13.1667 24.863 13.139 24.927 13.102 C 24.991 13.0669 25.0426 13.0152 25.0835 12.9468 C 25.1226 12.8803 25.144 12.8119 25.144 12.7417 C 25.144 12.6863 25.1333 12.6364 25.1137 12.592 C 25.0924 12.5477 25.0568 12.4996 25.0052 12.446 L 25.2578 12.446 L 25.2578 12.2095 L 24.7047 12.2095 C 24.5233 12.2095 24.3792 12.2539 24.2761 12.3389 C 24.1711 12.4239 24.1196 12.5403 24.1196 12.6863 C 24.1196 12.8895 24.2156 13.0355 24.4095 13.1242 ZM 24.8345 12.5144 C 24.8879 12.5606 24.9163 12.6179 24.9163 12.6844 C 24.9163 12.751 24.8879 12.8082 24.8345 12.8526 C 24.7794 12.8969 24.7118 12.9191 24.6318 12.9191 C 24.55 12.9191 24.4806 12.8987 24.4272 12.8544 C 24.3739 12.8101 24.3472 12.7546 24.3472 12.6863 C 24.3472 12.6216 24.3739 12.5662 24.429 12.5181 C 24.4824 12.4701 24.55 12.446 24.6282 12.446 C 24.71 12.446 24.7794 12.4701 24.8345 12.5144 ZM 24.8985 13.7395 C 24.9857 13.7802 25.0301 13.8319 25.0301 13.8965 C 25.0301 13.9612 24.9946 14.0111 24.9252 14.0481 C 24.8559 14.0832 24.758 14.1017 24.6335 14.1017 C 24.3668 14.1017 24.2334 14.0296 24.2334 13.8873 C 24.2334 13.8245 24.2636 13.7746 24.3241 13.7377 C 24.3846 13.697 24.4646 13.7081 24.5606 13.7672 C 24.6976 13.7081 24.8096 13.6989 24.8985 13.7395 ZM 22.6079 12.4128 C 22.4763 12.5496 22.4122 12.7195 22.4122 12.9228 C 22.4122 13.1242 22.4763 13.2924 22.6061 13.4272 C 22.7341 13.5621 22.896 13.6286 23.0881 13.6286 C 23.2855 13.6286 23.4491 13.564 23.5807 13.4309 C 23.7123 13.2979 23.7781 13.1316 23.7781 12.9302 C 23.7781 12.7233 23.7123 12.5514 23.5843 12.4147 C 23.4544 12.278 23.2926 12.2095 23.0987 12.2095 C 22.9013 12.2095 22.7377 12.278 22.6079 12.4128 ZM 23.4171 12.5809 C 23.506 12.6714 23.5505 12.7842 23.5505 12.9209 C 23.5505 13.0595 23.5078 13.1722 23.4224 13.2609 C 23.3371 13.3496 23.2286 13.3922 23.097 13.3922 C 22.9618 13.3922 22.8533 13.3496 22.7679 13.2609 C 22.6826 13.1741 22.6399 13.0613 22.6399 12.9246 C 22.6399 12.786 22.6808 12.6714 22.7644 12.5809 C 22.848 12.4922 22.9547 12.446 23.0845 12.446 C 23.2179 12.446 23.3282 12.4922 23.4171 12.5809 ZM 21.8432 13.6286 L 22.0708 13.6286 L 22.0708 11.5 L 21.8432 11.5 L 21.8432 13.6286 ZM 21.194 11.6552 C 21.1709 11.6793 21.1602 11.707 21.1602 11.7365 C 21.1602 11.7679 21.1709 11.7957 21.194 11.8196 C 21.2153 11.8437 21.242 11.8548 21.2723 11.8548 C 21.3043 11.8548 21.3309 11.8437 21.3541 11.8196 C 21.3754 11.7975 21.3879 11.7698 21.3879 11.7365 C 21.3879 11.7032 21.3754 11.6755 21.3541 11.6534 C 21.3309 11.6312 21.3043 11.6182 21.2723 11.6182 C 21.242 11.6182 21.2153 11.6312 21.194 11.6552 ZM 21.1602 13.6286 L 21.3879 13.6286 L 21.3879 12.2095 L 21.1602 12.2095 L 21.1602 13.6286 ZM 19.1115 11.7365 L 20.4471 11.7365 L 18.9976 13.6286 L 20.8188 13.6286 L 20.8188 13.3922 L 19.3907 13.3922 L 20.8188 11.5 L 19.1115 11.5 L 19.1115 11.7365 ZM 25.7739 15.7098 C 25.42 16.2827 25.2439 17.0236 25.2439 17.9364 C 25.2439 18.8603 25.4146 19.6031 25.7561 20.1611 C 26.0975 20.7209 26.5528 21 27.1184 21 C 27.6733 21 28.1268 20.7155 28.4754 20.1445 C 28.8239 19.5735 29 18.8326 29 17.9197 C 29 17.031 28.8239 16.2974 28.4754 15.7191 C 28.1268 15.1407 27.6839 14.8506 27.1504 14.8506 C 26.5849 14.8506 26.126 15.137 25.7739 15.7098 ZM 27.9223 16.2919 C 28.109 16.7021 28.2032 17.2509 28.2032 17.9401 C 28.2032 18.6274 28.1054 19.1725 27.9116 19.5717 C 27.7177 19.9727 27.4527 20.1722 27.1184 20.1722 C 26.7805 20.1722 26.5173 19.9727 26.327 19.5717 C 26.1349 19.1725 26.0406 18.6201 26.0406 17.9142 C 26.0406 17.2269 26.1385 16.6836 26.3341 16.2808 C 26.5297 15.8798 26.7929 15.6784 27.1255 15.6784 L 27.17 15.6784 C 27.4848 15.6784 27.7355 15.8835 27.9223 16.2919 ZM 21.0716 17.2509 C 21.1748 17.456 21.3438 17.6611 21.5803 17.8661 C 21.0628 18.1969 20.8049 18.6663 20.8049 19.276 C 20.8049 19.7639 20.9792 20.174 21.3313 20.5048 C 21.6817 20.8355 22.1156 21 22.6349 21 C 23.156 21 23.5882 20.8392 23.9314 20.514 C 24.2746 20.1907 24.4472 19.7805 24.4472 19.2853 C 24.4472 18.6608 24.1768 18.1877 23.6397 17.8661 C 24.1021 17.517 24.3333 17.0754 24.3333 16.5395 C 24.3333 16.0646 24.1697 15.6636 23.8425 15.3384 C 23.5152 15.0132 23.1151 14.8506 22.642 14.8506 C 22.1583 14.8506 21.751 15.0151 21.4184 15.3422 C 21.0841 15.671 20.9187 16.0702 20.9187 16.5395 C 20.9187 16.8093 20.9685 17.0458 21.0716 17.2509 ZM 23.2716 17.1917 C 23.0955 17.3654 22.8839 17.4523 22.6349 17.4523 C 22.3806 17.4523 22.1636 17.3654 21.984 17.1899 C 21.8044 17.0143 21.7154 16.8037 21.7154 16.5561 C 21.7154 16.2993 21.799 16.0886 21.9698 15.9242 C 22.1405 15.7616 22.3593 15.6784 22.626 15.6784 C 22.8892 15.6784 23.1062 15.7634 23.2787 15.9297 C 23.4494 16.096 23.5366 16.3085 23.5366 16.5654 C 23.5366 16.8093 23.4477 17.0181 23.2716 17.1917 ZM 23.3659 19.9301 C 23.1773 20.0927 22.9355 20.1722 22.642 20.1722 C 22.3344 20.1722 22.0836 20.0853 21.8915 19.9099 C 21.6977 19.7343 21.6016 19.507 21.6016 19.2261 C 21.6016 18.9471 21.6959 18.7198 21.8844 18.5443 C 22.0729 18.3688 22.3183 18.2801 22.6171 18.2801 C 22.923 18.2801 23.1702 18.3688 23.3623 18.5425 C 23.5544 18.7162 23.6504 18.9416 23.6504 19.2169 L 23.6504 19.3037 C 23.6504 19.5606 23.5544 19.7694 23.3659 19.9301 ZM 15.2276 15.7967 L 18.612 15.7967 L 15 20.8818 L 20.2358 20.8818 L 20.2358 20.054 L 16.5775 20.054 L 20.2358 14.9689 L 15.2276 14.9689 L 15.2276 15.7967 ZM 10 23.75 L 9.5 24 L 8.7531 25.7781 C 9.2616 25.3947 9.6931 25.443 10 25.5906 L 10 23.75 ZM 10 21.25 L 9.5 21.5 L 8.7531 23.2781 C 9.2616 22.8947 9.6931 22.943 10 23.0906 L 10 21.25 ZM 10 18.75 L 9.5 19 L 8.7531 20.7781 C 9.2616 20.3947 9.6931 20.443 10 20.5906 L 10 18.75 ZM 10 16.25 L 9.5 16.5 L 8.7531 18.2781 C 9.2616 17.8947 9.6931 17.943 10 18.0906 L 10 16.25 ZM 10 13.75 L 9.5 14 L 8.7531 15.7781 C 9.2616 15.3947 9.6931 15.443 10 15.5906 L 10 13.75 ZM 10 11.25 L 9.5 11.5 L 8.7531 13.2781 C 9.2616 12.8947 9.6931 12.943 10 13.0906 L 10 11.25 ZM 34 23.75 L 34 25.5906 C 34.3069 25.443 34.7384 25.3947 35.2469 25.7781 L 34.5 24 L 34 23.75 ZM 34 21.25 L 34 23.0906 C 34.3069 22.943 34.7384 22.8947 35.2469 23.2781 L 34.5 21.5 L 34 21.25 ZM 34 18.75 L 34 20.5906 C 34.3069 20.443 34.7384 20.3947 35.2469 20.7781 L 34.5 19 L 34 18.75 ZM 34 16.25 L 34 18.0906 C 34.3069 17.943 34.7384 17.8947 35.2469 18.2781 L 34.5 16.5 L 34 16.25 ZM 34 13.75 L 34 15.5906 C 34.3069 15.443 34.7384 15.3947 35.2469 15.7781 L 34.5 14 L 34 13.75 ZM 34 11.25 L 34 13.0906 C 34.3069 12.943 34.7384 12.8947 35.2469 13.2781 L 34.5 11.5 L 34 11.25 ZM 17.625 31.5 L 17.6641 31.5 C 17.5982 31.1258 17.5156 30.8133 17.5156 30.6406 C 17.5156 30.8133 17.5591 31.1258 17.625 31.5 Z" fill="#222222"/>
		<path d="M 35.545 29.0237 L 35.6319 30.0319 L 35.6569 30.0369 C 35.7317 30.8843 35.7656 31.6779 35.7656 31.7344 L 35.7656 32.0156 C 35.3594 31.0156 35.0469 29.9219 34.4844 29.0156 C 34.2969 28.6719 33.8281 28.6406 33.4844 28.4531 C 33.8281 28.0469 34.1406 27.9531 34.4219 27.9531 L 34.57 27.9613 L 34.5794 27.9881 C 34.8008 28.0133 35.0492 28.113 35.3181 28.3344 L 35.2706 28.2081 C 35.3603 28.2808 35.4271 28.3718 35.4531 28.4844 C 35.4866 28.6423 35.5173 28.8257 35.545 29.0237 ZM 35.545 24.0231 L 35.6319 25.0319 L 35.6569 25.0369 L 35.6906 25.4487 C 35.4941 25.2376 35.2495 25.1083 35.0025 25.035 C 34.8509 24.68 34.6833 24.3362 34.4844 24.0156 C 34.2969 23.6719 33.8281 23.6406 33.4844 23.4531 C 33.8281 23.0469 34.1406 22.9531 34.4219 22.9531 L 34.57 22.9613 L 34.5794 22.9881 C 34.8008 23.0133 35.0492 23.113 35.3181 23.3344 L 35.2706 23.2081 C 35.3603 23.2808 35.4271 23.3718 35.4531 23.4844 C 35.4866 23.6421 35.5173 23.8254 35.545 24.0231 ZM 35.545 19.0231 L 35.6319 20.0319 L 35.6569 20.0369 L 35.6906 20.4487 C 35.4941 20.2376 35.2495 20.1083 35.0025 20.035 C 34.8509 19.68 34.6833 19.3362 34.4844 19.0156 C 34.2969 18.6719 33.8281 18.6406 33.4844 18.4531 C 33.8281 18.0469 34.1406 17.9531 34.4219 17.9531 L 34.57 17.9613 L 34.5794 17.9881 C 34.8008 18.0133 35.0492 18.113 35.3181 18.3344 L 35.2706 18.2081 C 35.3603 18.2808 35.4271 18.3718 35.4531 18.4844 C 35.4866 18.6421 35.5173 18.8254 35.545 19.0231 ZM 34.0781 11.8594 C 34.208 12.0412 34.3056 12.245 34.3887 12.4544 L 34.4219 12.4531 C 34.6008 12.4531 34.8024 12.4756 35.0025 12.535 C 34.8509 12.18 34.6833 11.8362 34.4844 11.5156 C 34.2969 11.1719 33.8281 11.1406 33.4844 10.9531 C 33.8281 10.5469 34.1406 10.4531 34.4219 10.4531 C 34.7344 10.4531 35.3594 10.5781 35.4531 10.9844 C 35.5618 11.4969 35.6398 12.2795 35.6906 12.9487 C 35.4941 12.7376 35.2495 12.6083 35.0025 12.535 C 34.8024 12.4756 34.6008 12.4531 34.4219 12.4531 L 34.3887 12.4544 C 34.06 12.4718 32.9844 12.7298 32.9844 13.4531 C 32.9844 14.0156 33.9219 14.1094 34.0781 14.3594 C 34.208 14.5412 34.3056 14.745 34.3887 14.9544 C 34.06 14.9718 32.9844 15.2298 32.9844 15.9531 C 32.9844 16.5156 33.9219 16.6094 34.0781 16.8594 C 34.208 17.0412 34.3057 17.245 34.3887 17.4544 L 34.4219 17.4531 C 34.6008 17.4531 34.8024 17.4756 35.0025 17.535 C 34.8509 17.18 34.6833 16.8362 34.4844 16.5156 C 34.2969 16.1719 33.8281 16.1406 33.4844 15.9531 C 33.8281 15.5469 34.1406 15.4531 34.4219 15.4531 L 34.57 15.4612 L 34.5794 15.4881 C 34.8008 15.5133 35.0492 15.613 35.3181 15.8344 L 35.2706 15.7081 C 35.3603 15.7808 35.4271 15.8718 35.4531 15.9844 C 35.4866 16.1421 35.5173 16.3254 35.545 16.5231 L 35.6319 17.5319 L 35.6569 17.5369 L 35.6906 17.9487 C 35.4941 17.7376 35.2495 17.6083 35.0025 17.535 C 34.8024 17.4756 34.6008 17.4531 34.4219 17.4531 L 34.3887 17.4544 C 34.06 17.4718 32.9844 17.7298 32.9844 18.4531 C 32.9844 19.0156 33.9219 19.1094 34.0781 19.3594 C 34.208 19.5412 34.3057 19.745 34.3887 19.9544 C 34.06 19.9718 32.9844 20.2298 32.9844 20.9531 C 32.9844 21.5156 33.9219 21.6094 34.0781 21.8594 C 34.208 22.0412 34.3057 22.245 34.3887 22.4544 L 34.4219 22.4531 C 34.6008 22.4531 34.8024 22.4756 35.0025 22.535 C 34.8509 22.18 34.6833 21.8362 34.4844 21.5156 C 34.2969 21.1719 33.8281 21.1406 33.4844 20.9531 C 33.8281 20.5469 34.1406 20.4531 34.4219 20.4531 L 34.57 20.4613 L 34.5794 20.4881 C 34.8008 20.5133 35.0492 20.613 35.3181 20.8344 L 35.2706 20.7081 C 35.3603 20.7808 35.4271 20.8718 35.4531 20.9844 C 35.4866 21.1421 35.5173 21.3254 35.545 21.5231 L 35.6319 22.5319 L 35.6569 22.5369 L 35.6906 22.9487 C 35.4941 22.7376 35.2495 22.6083 35.0025 22.535 C 34.8024 22.4756 34.6008 22.4531 34.4219 22.4531 L 34.3887 22.4544 C 34.06 22.4718 32.9844 22.7298 32.9844 23.4531 C 32.9844 24.0156 33.9219 24.1094 34.0781 24.3594 C 34.208 24.5412 34.3057 24.745 34.3887 24.9544 C 34.06 24.9718 32.9844 25.2298 32.9844 25.9531 C 32.9844 26.5156 33.9219 26.6094 34.0781 26.8594 C 34.208 27.0412 34.3057 27.245 34.3887 27.4544 L 34.4219 27.4531 C 34.6008 27.4531 34.8024 27.4756 35.0025 27.535 C 34.8509 27.18 34.6833 26.8362 34.4844 26.5156 C 34.2969 26.1719 33.8281 26.1406 33.4844 25.9531 C 33.8281 25.5469 34.1406 25.4531 34.4219 25.4531 L 34.57 25.4613 L 34.5794 25.4881 C 34.8008 25.5133 35.0492 25.613 35.3181 25.8344 L 35.2706 25.7081 C 35.3603 25.7808 35.4271 25.8718 35.4531 25.9844 C 35.4866 26.1421 35.5173 26.3254 35.545 26.5231 L 35.6319 27.5319 L 35.6569 27.5369 L 35.6906 27.9487 C 35.4941 27.7376 35.2495 27.6083 35.0025 27.535 C 34.8024 27.4756 34.6008 27.4531 34.4219 27.4531 L 34.3887 27.4544 C 34.06 27.4718 32.9844 27.7298 32.9844 28.4531 C 32.9844 29.0156 33.9219 29.1094 34.0781 29.3594 C 34.3906 29.7969 34.5156 30.3594 34.7031 30.8281 C 34.8281 31.0469 34.8906 31.3281 35.0156 31.5781 C 35.2031 31.8594 35.2031 32.5469 35.7656 32.5469 C 36.1719 32.5469 36.2656 32.2344 36.2656 31.9219 C 36.2656 31.8448 36.1809 30.7541 36.0988 29.9344 C 36.2281 29.8157 36.2656 29.6189 36.2656 29.4219 C 36.2656 29.3448 36.1809 28.2541 36.0988 27.4344 C 36.2281 27.3157 36.2656 27.1189 36.2656 26.9219 C 36.2656 26.8448 36.1809 25.7541 36.0988 24.9344 C 36.2281 24.8157 36.2656 24.6189 36.2656 24.4219 C 36.2656 24.3448 36.1809 23.2541 36.0988 22.4344 C 36.2281 22.3157 36.2656 22.1189 36.2656 21.9219 C 36.2656 21.8448 36.1809 20.7541 36.0988 19.9344 C 36.2281 19.8157 36.2656 19.6189 36.2656 19.4219 C 36.2656 19.3448 36.1809 18.2541 36.0988 17.4344 C 36.2281 17.3157 36.2656 17.1189 36.2656 16.9219 C 36.2656 16.8448 36.1809 15.7541 36.0988 14.9344 C 36.2281 14.8157 36.2656 14.6189 36.2656 14.4219 C 36.2656 14.3281 36.1406 12.7344 36.0469 11.9531 C 35.9844 11.5156 36.0781 11.0156 35.8594 10.6719 C 35.5156 10.1094 34.8906 9.9531 34.4219 9.9531 C 34.1406 9.9531 32.9844 10.2031 32.9844 10.9531 C 32.9844 11.5156 33.9219 11.6094 34.0781 11.8594 ZM 35.545 14.0231 L 35.6319 15.0319 L 35.6569 15.0369 L 35.6906 15.4487 C 35.4941 15.2376 35.2495 15.1083 35.0025 15.035 C 34.8509 14.68 34.6833 14.3362 34.4844 14.0156 C 34.2969 13.6719 33.8281 13.6406 33.4844 13.4531 C 33.8281 13.0469 34.1406 12.9531 34.4219 12.9531 L 34.57 12.9612 L 34.5794 12.9881 C 34.8008 13.0133 35.0492 13.113 35.3181 13.3344 L 35.2706 13.2081 C 35.3603 13.2808 35.4271 13.3718 35.4531 13.4844 C 35.4866 13.6421 35.5173 13.8254 35.545 14.0231 ZM 8.455 29.0237 C 8.4827 28.8257 8.5134 28.6423 8.5469 28.4844 C 8.5729 28.3718 8.6397 28.2808 8.7294 28.2081 L 8.6819 28.3344 C 8.9508 28.113 9.1992 28.0133 9.4206 27.9881 L 9.43 27.9613 L 9.5781 27.9531 C 9.8594 27.9531 10.1719 28.0469 10.5156 28.4531 C 10.1719 28.6406 9.7031 28.6719 9.5156 29.0156 C 8.9531 29.9219 8.6406 31.0156 8.2344 32.0156 L 8.2344 31.7344 C 8.2344 31.6779 8.2683 30.8843 8.3431 30.0369 L 8.3681 30.0319 L 8.455 29.0237 ZM 8.455 24.0231 C 8.4827 23.8254 8.5134 23.6421 8.5469 23.4844 C 8.5729 23.3718 8.6397 23.2808 8.7294 23.2081 L 8.6819 23.3344 C 8.9508 23.113 9.1992 23.0133 9.4206 22.9881 L 9.43 22.9613 L 9.5781 22.9531 C 9.8594 22.9531 10.1719 23.0469 10.5156 23.4531 C 10.1719 23.6406 9.7031 23.6719 9.5156 24.0156 C 9.3167 24.3362 9.1491 24.68 8.9975 25.035 C 8.7505 25.1083 8.5059 25.2376 8.3094 25.4487 L 8.3431 25.0369 L 8.3681 25.0319 L 8.455 24.0231 ZM 8.455 19.0231 C 8.4827 18.8254 8.5134 18.6421 8.5469 18.4844 C 8.5729 18.3718 8.6397 18.2808 8.7294 18.2081 L 8.6819 18.3344 C 8.9508 18.113 9.1992 18.0133 9.4206 17.9881 L 9.43 17.9613 L 9.5781 17.9531 C 9.8594 17.9531 10.1719 18.0469 10.5156 18.4531 C 10.1719 18.6406 9.7031 18.6719 9.5156 19.0156 C 9.3167 19.3362 9.1491 19.68 8.9975 20.035 C 8.7505 20.1083 8.5059 20.2376 8.3094 20.4487 L 8.3431 20.0369 L 8.3681 20.0319 L 8.455 19.0231 ZM 9.9219 11.8594 C 10.0781 11.6094 11.0156 11.5156 11.0156 10.9531 C 11.0156 10.2031 9.8594 9.9531 9.5781 9.9531 C 9.1094 9.9531 8.4844 10.1094 8.1406 10.6719 C 7.9219 11.0156 8.0156 11.5156 7.9531 11.9531 C 7.8594 12.7344 7.7344 14.3281 7.7344 14.4219 C 7.7344 14.6189 7.7719 14.8157 7.9012 14.9344 C 7.8191 15.7541 7.7344 16.8448 7.7344 16.9219 C 7.7344 17.1189 7.7719 17.3157 7.9012 17.4344 C 7.8191 18.2541 7.7344 19.3448 7.7344 19.4219 C 7.7344 19.6189 7.7719 19.8157 7.9012 19.9344 C 7.8191 20.7541 7.7344 21.8448 7.7344 21.9219 C 7.7344 22.1189 7.7719 22.3157 7.9012 22.4344 C 7.8191 23.2541 7.7344 24.3448 7.7344 24.4219 C 7.7344 24.6189 7.7719 24.8157 7.9012 24.9344 C 7.8191 25.7541 7.7344 26.8448 7.7344 26.9219 C 7.7344 27.1189 7.7719 27.3157 7.9012 27.4344 C 7.8191 28.2541 7.7344 29.3448 7.7344 29.4219 C 7.7344 29.6189 7.7719 29.8157 7.9012 29.9344 C 7.8191 30.7541 7.7344 31.8448 7.7344 31.9219 C 7.7344 32.2344 7.8281 32.5469 8.2344 32.5469 C 8.7969 32.5469 8.7969 31.8594 8.9844 31.5781 C 9.1094 31.3281 9.1719 31.0469 9.2969 30.8281 C 9.4844 30.3594 9.6094 29.7969 9.9219 29.3594 C 10.0781 29.1094 11.0156 29.0156 11.0156 28.4531 C 11.0156 27.7298 9.94 27.4718 9.6113 27.4544 L 9.5781 27.4531 C 9.3992 27.4531 9.1976 27.4756 8.9975 27.535 C 8.7505 27.6083 8.5059 27.7376 8.3094 27.9487 L 8.3431 27.5369 L 8.3681 27.5319 L 8.455 26.5231 C 8.4827 26.3254 8.5134 26.1421 8.5469 25.9844 C 8.5729 25.8718 8.6397 25.7808 8.7294 25.7081 L 8.6819 25.8344 C 8.9508 25.613 9.1992 25.5133 9.4206 25.4881 L 9.43 25.4613 L 9.5781 25.4531 C 9.8594 25.4531 10.1719 25.5469 10.5156 25.9531 C 10.1719 26.1406 9.7031 26.1719 9.5156 26.5156 C 9.3167 26.8362 9.1491 27.18 8.9975 27.535 C 9.1976 27.4756 9.3992 27.4531 9.5781 27.4531 L 9.6113 27.4544 C 9.6943 27.245 9.792 27.0412 9.9219 26.8594 C 10.0781 26.6094 11.0156 26.5156 11.0156 25.9531 C 11.0156 25.2298 9.94 24.9718 9.6113 24.9544 C 9.6943 24.745 9.792 24.5412 9.9219 24.3594 C 10.0781 24.1094 11.0156 24.0156 11.0156 23.4531 C 11.0156 22.7298 9.94 22.4718 9.6113 22.4544 L 9.5781 22.4531 C 9.3992 22.4531 9.1976 22.4756 8.9975 22.535 C 8.7505 22.6083 8.5059 22.7376 8.3094 22.9487 L 8.3431 22.5369 L 8.3681 22.5319 L 8.455 21.5231 C 8.4827 21.3254 8.5134 21.1421 8.5469 20.9844 C 8.5729 20.8718 8.6397 20.7808 8.7294 20.7081 L 8.6819 20.8344 C 8.9508 20.613 9.1992 20.5133 9.4206 20.4881 L 9.43 20.4613 L 9.5781 20.4531 C 9.8594 20.4531 10.1719 20.5469 10.5156 20.9531 C 10.1719 21.1406 9.7031 21.1719 9.5156 21.5156 C 9.3167 21.8362 9.1491 22.18 8.9975 22.535 C 9.1976 22.4756 9.3992 22.4531 9.5781 22.4531 L 9.6113 22.4544 C 9.6943 22.245 9.792 22.0412 9.9219 21.8594 C 10.0781 21.6094 11.0156 21.5156 11.0156 20.9531 C 11.0156 20.2298 9.94 19.9718 9.6113 19.9544 C 9.6943 19.745 9.792 19.5412 9.9219 19.3594 C 10.0781 19.1094 11.0156 19.0156 11.0156 18.4531 C 11.0156 17.7298 9.94 17.4718 9.6113 17.4544 L 9.5781 17.4531 C 9.3992 17.4531 9.1976 17.4756 8.9975 17.535 C 8.7505 17.6083 8.5059 17.7376 8.3094 17.9487 L 8.3431 17.5369 L 8.3681 17.5319 L 8.455 16.5231 C 8.4827 16.3254 8.5134 16.1421 8.5469 15.9844 C 8.5729 15.8718 8.6397 15.7808 8.7294 15.7081 L 8.6819 15.8344 C 8.9508 15.613 9.1992 15.5133 9.4206 15.4881 L 9.43 15.4612 L 9.5781 15.4531 C 9.8594 15.4531 10.1719 15.5469 10.5156 15.9531 C 10.1719 16.1406 9.7031 16.1719 9.5156 16.5156 C 9.3167 16.8362 9.1491 17.18 8.9975 17.535 C 9.1976 17.4756 9.3992 17.4531 9.5781 17.4531 L 9.6113 17.4544 C 9.6943 17.245 9.792 17.0412 9.9219 16.8594 C 10.0781 16.6094 11.0156 16.5156 11.0156 15.9531 C 11.0156 15.2298 9.94 14.9718 9.6113 14.9544 C 9.6944 14.745 9.792 14.5412 9.9219 14.3594 C 10.0781 14.1094 11.0156 14.0156 11.0156 13.4531 C 11.0156 12.7298 9.94 12.4718 9.6113 12.4544 L 9.5781 12.4531 C 9.3992 12.4531 9.1976 12.4756 8.9975 12.535 C 8.7505 12.6083 8.5059 12.7376 8.3094 12.9487 C 8.3602 12.2795 8.4382 11.4969 8.5469 10.9844 C 8.6406 10.5781 9.2656 10.4531 9.5781 10.4531 C 9.8594 10.4531 10.1719 10.5469 10.5156 10.9531 C 10.1719 11.1406 9.7031 11.1719 9.5156 11.5156 C 9.3167 11.8362 9.1491 12.18 8.9975 12.535 C 9.1976 12.4756 9.3992 12.4531 9.5781 12.4531 L 9.6113 12.4544 C 9.6944 12.245 9.792 12.0412 9.9219 11.8594 ZM 8.455 14.0231 C 8.4827 13.8254 8.5134 13.6421 8.5469 13.4844 C 8.5729 13.3718 8.6397 13.2808 8.7294 13.2081 L 8.6819 13.3344 C 8.9508 13.113 9.1992 13.0133 9.4206 12.9881 L 9.43 12.9612 L 9.5781 12.9531 C 9.8594 12.9531 10.1719 13.0469 10.5156 13.4531 C 10.1719 13.6406 9.7031 13.6719 9.5156 14.0156 C 9.3167 14.3362 9.1491 14.68 8.9975 15.035 C 8.7505 15.1083 8.5059 15.2376 8.3094 15.4487 L 8.3431 15.0369 L 8.3681 15.0319 L 8.455 14.0231 Z" fill="#222222"/>
	</g>
</svg>